<svg xmlns="http://www.w3.org/2000/svg" width="1920" height="489.7">
  <path fill="#AD1F2C" d="M796.091 126.666h250.293v3.25H796.091v-3.25z"/>
  <path fill="#BBDB92" d="M1046.384 126.666h242.833v3.25h-242.833v-3.25z"/>
  <path fill="#53BA65" d="M1289.217 126.666h320.836v3.25h-320.836v-3.25z"/>
  <path fill="#263E8D" d="M1610.053 126.666H1920v3.25h-309.947v-3.25z"/>
  <g fill="#FFF">
    <path d="M796.532 212.904v-74.677h28.886c12.546 0 21.938 3.722 28.175 11.161 6.236 7.44 9.354 16.048 9.354 25.822 0 11.16-3.35 20.233-10.039 27.217-6.692 6.985-15.382 10.477-26.067 10.477h-30.309zm22.923-17.177h5.963c3.793 0 6.993-1.841 9.602-5.523 2.606-3.684 3.911-8.698 3.911-15.044 0-5.436-1.155-10.121-3.474-14.062-2.316-3.939-5.662-5.908-10.039-5.908h-5.963v40.537zm73.997 18.327c-9.229 0-16.562-2.872-21.992-8.616-5.435-5.743-8.151-12.48-8.151-20.215 0-8.313 2.836-15.244 8.51-20.789 5.671-5.543 13.048-8.313 22.129-8.313 9.151 0 16.513 2.733 22.072 8.205 5.563 5.472 8.346 12.328 8.346 20.569 0 8.315-2.817 15.257-8.452 20.816-5.639 5.562-13.125 8.343-22.462 8.343zm.328-13.24c3.393 0 5.462-1.759 6.21-5.277.747-3.521 1.121-7.194 1.121-11.023 0-5.215-.529-8.972-1.586-11.271-1.062-2.297-2.955-3.445-5.69-3.445-2.517 0-4.358 1.186-5.525 3.557-1.167 2.37-1.75 6.272-1.75 11.707 0 6.384.604 10.604 1.808 12.664 1.2 2.059 3.006 3.088 5.412 3.088z"/>
    <path d="M954.428 214.054c-9.227 0-16.558-2.872-21.992-8.616-5.435-5.743-8.148-12.48-8.148-20.215 0-8.313 2.835-15.244 8.507-20.789 5.671-5.543 13.048-8.313 22.128-8.313 9.154 0 16.514 2.733 22.076 8.205 5.561 5.472 8.342 12.328 8.342 20.569 0 8.315-2.814 15.257-8.451 20.816-5.638 5.562-13.124 8.343-22.462 8.343zm.328-13.24c3.396 0 5.463-1.759 6.211-5.277.746-3.521 1.121-7.194 1.121-11.023 0-5.215-.529-8.972-1.586-11.271-1.059-2.297-2.955-3.445-5.691-3.445-2.516 0-4.354 1.186-5.521 3.557-1.167 2.37-1.75 6.272-1.75 11.707 0 6.384.603 10.604 1.805 12.664 1.2 2.059 3.005 3.088 5.411 3.088zm54.36 12.09h-20.897v-55.638h18.161v11.488c2.08-8.352 6.912-12.527 14.498-12.527.769 0 1.822.072 3.175.22v19.421c-1.531-.364-2.897-.548-4.104-.548-7.225 0-10.832 4.03-10.832 12.091l-.001 25.493z"/>
    <path d="M1020.854 197.151l17.234-2.354c.984 4.014 4.887 6.018 11.707 6.018 5.652 0 8.479-1.094 8.479-3.28 0-.948-.548-1.688-1.644-2.217-1.094-.527-3.684-1.066-7.768-1.614-11.309-1.568-18.365-4.021-21.172-7.358-2.812-3.337-4.213-7.048-4.213-11.133 0-5.689 2.369-10.293 7.107-13.813 4.74-3.521 10.959-5.278 18.656-5.278 13.494 0 22.104 4.869 25.822 14.606l-16.523 3.117c-1.529-3.283-4.758-4.924-9.682-4.924-2.336 0-4.076.32-5.229.958-1.146.639-1.725 1.269-1.725 1.887 0 1.824 1.752 2.936 5.254 3.33 9.119 1.009 15.301 2.043 18.547 3.102 3.244 1.06 6.019 2.993 8.314 5.804 2.297 2.812 3.443 6.205 3.443 10.183 0 6.097-2.546 10.933-7.633 14.508-5.088 3.577-12.102 5.365-21.033 5.365-15.048-.004-24.367-5.638-27.941-16.907z"/>
  </g>
  <path fill="#FFF" d="M1161.279 26.743c-4.566 30.32-9.133 60.642-13.702 90.963-.015.101-.071.196-.11.293-.097-.067-.188-.136-.289-.2-1.468-.984-2.905-2.01-4.405-2.941-1.507-.936-3.033-1.84-4.61-2.645-1.479-.754-3.021-1.383-4.563-2.021-.815-.341-1.678-.591-2.521-.867-.818-.271-1.637-.543-2.465-.778-1.017-.291-2.051-.521-3.063-.819-1.419-.419-2.837-.843-4.229-1.329-1.255-.438-2.509-.9-3.71-1.464-1.437-.671-2.844-1.403-4.203-2.211-1.378-.817-2.688-1.755-4.018-2.65-1.513-1.016-2.996-2.064-4.522-3.055-1.263-.818-2.552-1.599-3.854-2.347-.777-.445-1.604-.805-2.418-1.182-.521-.243-1.055-.479-1.599-.663-1.002-.339-2.014-.649-3.024-.951-.873-.26-1.756-.498-2.641-.735-.505-.136-1.019-.238-1.521-.377-.771-.211-1.541-.427-2.309-.664-.643-.2-1.271-.433-1.906-.65 3.93-26.086 7.854-52.171 11.785-78.258 1.442.149 2.893.305 4.338.444.479.046.959.059 1.438.077.756.029 1.516.026 2.271.083.745.056 1.486.169 2.231.252.046.005.099-.029.146-.045.627.095 1.258.188 1.887.284.031.026.059.071.093.079.497.103.997.19 1.492.301.521.118 1.055.226 1.563.392.889.288 1.766.604 2.639.933.769.289 1.532.588 2.282.923 1.063.474 2.104.985 3.156 1.477.813.378 1.625.757 2.446 1.119.616.272 1.246.521 1.871.774.42.171.838.347 1.264.5.544.195 1.092.39 1.646.552.632.187 1.271.342 1.914.504.305.078.609.143.92.207.748.156 1.498.321 2.25.456.398.072.813.083 1.222.136.61.08 1.22.196 1.832.254.682.065 1.366.073 2.047.123.994.072 1.987.159 2.981.24.373.031.748.063 1.123.096 1.063.095 2.136.169 3.197.292.604.07 1.203.215 1.807.329.521.1 1.049.176 1.563.31 1.125.29 2.25.581 3.358.922 1.063.327 2.108.697 3.146 1.088.858.325 1.695.707 2.543 1.066 1.075.458 2.153.921 3.231 1.383zm-21.299 43.808c2.008-13.326 4.008-26.608 6.008-39.884-.151-.007-.286 0-.416-.021-1.096-.181-2.188-.386-3.284-.546-.586-.086-1.187-.089-1.774-.146-.985-.096-1.978-.204-2.965-.307-.465-.048-.929-.093-1.393-.139-.75-.073-1.502-.13-2.25-.223-.743-.092-1.482-.22-2.227-.331-1.933 12.826-3.865 25.683-5.806 38.542.416.118.828.256 1.251.353 1.029.235 2.063.469 3.098.67 1.469.285 2.938.537 4.407.812.708.132 1.413.284 2.119.424.359.071.726.119 1.079.208.717.183 1.424.388 2.153.588zm-25.948-8.476c.03-.146.048-.21.058-.277.572-3.644 1.165-7.283 1.711-10.931 1.017-6.771 1.997-13.545 2.997-20.318.255-1.729.521-3.459.779-5.188.036-.235.144-.508.063-.698-.064-.158-.357-.222-.554-.327-.066-.038-.133-.083-.203-.116-1.123-.525-2.243-1.058-3.376-1.573-.554-.253-1.114-.486-1.687-.706-.728-.277-1.453-.551-2.191-.791-.604-.195-1.229-.34-1.841-.509-.313-.086-.619-.194-.937-.257-.455-.088-.916-.143-1.354-.209-1.825 12.121-3.646 24.206-5.467 36.299 4.349 1.081 8.173 3.288 12.002 5.601zm24.212 20.058c-.332-.094-.661-.188-.991-.278-1.155-.313-2.304-.646-3.466-.927-1.119-.271-2.253-.479-3.38-.725-1.271-.277-2.544-.557-3.813-.852-.778-.182-1.559-.394-2.389-.604-1.016 6.736-2.031 13.486-3.05 20.245.644.215 1.301.461 1.972.654 1.188.341 2.377.651 3.566.972 1.537.413 3.076.819 4.613 1.234.563.153 1.129.304 1.684.486.701.231 1.395.495 2.098.749 1.054-6.983 2.101-13.945 3.156-20.954zm-40.66 3.963c4.322 1.438 8.098 3.936 11.877 6.563.992-6.591 1.979-13.13 2.979-19.756-1.881-1.082-3.806-2.205-5.741-3.303-1.958-1.106-4.035-1.93-6.238-2.575-.96 6.342-1.913 12.671-2.877 19.071zm50.674-5.732c.012-.19.051-.386.027-.571-.082-.681-.296-1.313-.67-1.901-.899-1.417-2.092-2.376-3.822-2.486-.652-.042-1.27.148-1.729.646-.539.588-.688 1.281-.539 2.074.172.917.649 1.644 1.289 2.274.931.923 2.021 1.53 3.368 1.613 1.065.068 2.024-.599 2.076-1.649zm-55.367-51.054l-6.676-1.005 2.75-18.262 6.676 1.005-2.75 18.262zm-2.924 19.603l-6.674-1.005 2.75-18.261 6.674 1.006-2.75 18.26zm-3.055 20.285l-6.674-1.005 2.75-18.261 6.674 1.005-2.75 18.261zm-2.95 19.58l-6.674-1.006 2.75-18.261 6.674 1.005-2.75 18.262zm.744-65.354l-4.944-.745 2.487-16.518 4.944.745-2.487 16.518zm-2.668 17.711l-4.944-.744 2.487-16.517 4.944.745-2.487 16.516zm-2.763 18.327l-4.943-.745 2.489-16.517 4.94.745-2.486 16.517zm-2.67 17.734l-4.944-.745 2.487-16.518 4.941.744-2.484 16.519zm.898-59.384l-3.297-.496 2.183-14.483 3.297.496-2.183 14.483zm-2.34 15.53l-3.296-.497 2.181-14.482 3.298.496-2.183 14.483zm-2.424 16.09l-3.298-.497 2.182-14.483 3.297.497-2.181 14.483zm-2.341 15.532l-3.299-.497 2.183-14.484 3.297.496-2.181 14.485zm2.263-52.973l-1.564-.236L1072.865 0l1.563.235-1.767 11.756zm-1.896 12.601l-1.564-.236 1.771-11.755 1.565.236-1.772 11.755zm-1.969 13.055l-1.563-.235 1.77-11.754 1.566.235-1.773 11.754zm-1.898 12.604l-1.566-.236 1.771-11.755 1.565.236-1.77 11.755zm76.209 153.772v8.755h-49.029c-.066-2.191.286-4.302 1.063-6.324 1.248-3.34 3.246-6.629 5.996-9.867 2.75-3.238 6.726-6.982 11.916-11.232 8.063-6.61 13.512-11.849 16.344-15.712 2.834-3.861 4.25-7.514 4.25-10.954 0-3.608-1.286-6.653-3.866-9.134-2.581-2.479-5.945-3.719-10.099-3.719-4.386 0-7.894 1.315-10.521 3.946-2.633 2.632-3.965 6.273-3.998 10.931l-9.361-.961c.644-6.983 3.054-12.304 7.236-15.964s9.799-5.49 16.85-5.49c7.117 0 12.752 1.973 16.9 5.92 4.146 3.947 6.223 8.838 6.223 14.674 0 2.969-.604 5.888-1.817 8.754-1.217 2.867-3.229 5.888-6.049 9.059-2.814 3.171-7.498 7.521-14.041 13.055-5.466 4.588-8.976 7.7-10.522 9.335-1.552 1.637-2.834 3.281-3.848 4.935h36.38v-.007h-.007zm4.584-27.828c0-8.771.899-15.83 2.707-21.177 1.806-5.347 4.483-9.471 8.047-12.373 3.559-2.899 8.036-4.352 13.435-4.352 3.979 0 7.474.802 10.479 2.402 3.002 1.604 5.479 3.914 7.438 6.933 1.955 3.021 3.49 6.696 4.604 11.031 1.111 4.335 1.671 10.179 1.671 17.532 0 8.702-.896 15.729-2.687 21.073-1.787 5.349-4.461 9.479-8.02 12.397-3.563 2.918-8.057 4.377-13.484 4.377-7.148 0-12.77-2.563-16.85-7.69-4.894-6.169-7.34-16.221-7.34-30.153zm9.362 0c0 12.178 1.428 20.28 4.275 24.313 2.851 4.032 6.367 6.047 10.551 6.047 4.186 0 7.699-2.022 10.549-6.072 2.854-4.047 4.276-12.144 4.276-24.286 0-12.211-1.425-20.324-4.276-24.339-2.85-4.015-6.396-6.021-10.646-6.021-4.188 0-7.523 1.771-10.021 5.313-3.139 4.519-4.708 12.868-4.708 25.045zM803.714 123.436h-5.34V87.247l-12.132 36.188h-5.05L769.06 87.247v36.188h-5.34V80.891h8.445l11.521 35.465 11.58-35.465h8.445v42.545h.003zm28.296-3.163c-2.786 2.593-6.376 3.89-10.768 3.89-3.06 0-5.572-.828-7.545-2.482-1.977-1.653-2.961-3.787-2.961-6.397 0-7.197 6.201-10.796 18.604-10.796h2.67c0-2.205-.116-3.807-.349-4.804-.232-.996-.881-1.822-1.944-2.48-1.063-.657-2.757-.986-5.079-.986-4.875 0-7.391 1.741-7.545 5.224h-5.456c.406-6.326 4.836-9.489 13.291-9.489 3.947 0 7.023.782 9.229 2.351 2.205 1.567 3.309 4.645 3.309 9.229v19.906h-5.456v-3.166zm0-4.933v-6.82h-3.744c-7.933 0-11.896 2.156-11.896 6.472 0 1.567.58 2.771 1.741 3.612 1.158.843 2.728 1.265 4.699 1.265 1.802 0 3.541-.406 5.226-1.222 1.681-.813 3.006-1.915 3.974-3.307zm26.032 8.822c-4.372 0-7.869-1.408-10.491-4.224-2.622-2.815-3.933-6.776-3.933-11.885 0-5.126 1.311-9.093 3.933-11.897 2.622-2.806 6.119-4.208 10.491-4.208 3.367 0 6.177.852 8.432 2.554 2.253 1.703 3.584 4.16 3.99 7.372h-5.631c-.077-1.838-.769-3.241-2.074-4.209-1.307-.967-2.879-1.45-4.717-1.45-2.611 0-4.729.991-6.354 2.975s-2.438 4.938-2.438 8.865c0 3.908.813 6.854 2.438 8.838 1.625 1.982 3.741 2.976 6.354 2.976 1.838 0 3.41-.484 4.717-1.451 1.309-.969 1.997-2.361 2.074-4.18h5.631c-.406 3.211-1.737 5.67-3.99 7.37-2.255 1.703-5.065 2.554-8.432 2.554zm33.229-26.525c-.773-.231-1.889-.349-3.34-.349-2.783 0-5.176 1.461-7.169 4.383v21.765h-5.481V92.645h5.481v4.296c2.306-3.327 4.976-4.991 8.014-4.991.771 0 1.604.077 2.495.231v5.456zm16.282-5.689c4.396 0 7.898 1.402 10.521 4.208 2.622 2.806 3.933 6.771 3.933 11.897 0 5.107-1.311 9.068-3.933 11.885-2.622 2.814-6.128 4.224-10.521 4.224-4.372 0-7.869-1.408-10.491-4.224s-3.933-6.776-3.933-11.885c0-5.126 1.311-9.093 3.933-11.897 2.622-2.804 6.119-4.208 10.491-4.208zm0 27.919c2.612 0 4.73-.992 6.356-2.976 1.625-1.983 2.438-4.93 2.438-8.838 0-3.927-.813-6.882-2.438-8.865-1.626-1.982-3.744-2.975-6.356-2.975-2.608 0-4.729.991-6.354 2.975s-2.438 4.938-2.438 8.865c0 3.908.813 6.854 2.438 8.838 1.623 1.984 3.742 2.976 6.354 2.976zm26.061-23.304c2.729-3.075 5.795-4.613 9.2-4.613 6.941 0 10.418 3.782 10.418 11.348v20.14h-5.484V103.53c0-2.517-.45-4.324-1.35-5.429-.899-1.103-2.375-1.653-4.429-1.653-2.784 0-5.569 1.646-8.355 4.934v22.056h-5.484V80.891h5.484v15.672zm47.074 23.71c-2.784 2.593-6.375 3.89-10.768 3.89-3.058 0-5.572-.828-7.546-2.482-1.974-1.653-2.96-3.787-2.96-6.397 0-7.197 6.2-10.796 18.604-10.796h2.67c0-2.205-.113-3.807-.349-4.804-.231-.996-.881-1.822-1.944-2.48-1.063-.657-2.758-.986-5.075-.986-4.88 0-7.396 1.741-7.55 5.224h-5.455c.406-6.326 4.839-9.489 13.291-9.489 3.947 0 7.023.782 9.229 2.351 2.206 1.567 3.31 4.645 3.31 9.229v19.906h-5.457v-3.166zm0-4.933v-6.82h-3.74c-7.938 0-11.899 2.156-11.899 6.472 0 1.567.58 2.771 1.741 3.612 1.161.843 2.729 1.265 4.702 1.265 1.799 0 3.54-.406 5.224-1.222 1.68-.813 3.005-1.915 3.972-3.307zm29.542-17.703c-.772-.231-1.888-.349-3.339-.349-2.784 0-5.177 1.461-7.17 4.383v21.765h-5.48V92.645h5.48v4.296c2.306-3.327 4.977-4.991 8.015-4.991.771 0 1.604.077 2.494.231v5.456zm23.306 22.113c-2.438 2.94-5.369 4.412-8.793 4.412-4.024 0-7.14-1.433-9.347-4.295-2.205-2.863-3.312-6.726-3.312-11.58 0-5.03 1.233-9.011 3.701-11.942 2.467-2.931 5.563-4.396 9.301-4.396 3.328 0 6.146 1.024 8.445 3.075V80.891h5.456v42.545h-5.456l.005-3.686zm0-5.166V99.958c-2.36-2.496-5.063-3.743-8.097-3.743-2.345 0-4.216 1.011-5.616 3.032-1.402 2.021-2.104 5.035-2.104 9.04 0 3.791.662 6.67 1.987 8.633 1.325 1.965 3.159 2.947 5.5 2.947 3.058 0 5.834-1.762 8.33-5.283z"/>
  <path d="M94.556 53.875h-1.301v-10.44h.002v-1.31H89.335V6.855H48.846v1.311h-1.31v1.299h-1.29v1.31h-1.32v1.3h1.32v.001h-2.63V47.335h-1.301v1.321h-1.31v7.819h-1.299v1.32h-1.31v6.531h-.001v-5.22h-1.31v1.3h-1.299v1.309h-1.31v1.3h-1.3v1.311h-1.31V69.545h41.8v1.311H86.726v-1.311h3.92v-1.299h1.3v-1.311h1.309v-1.3h1.301v-2.62h1.311v-9.14h-1.311zm-50.941 5.231l.001 1.3v1.309h-.001v-2.609zm26.132-5.231h-.003v-1.3h13.061v.001H69.747v1.299zm-2.611 7.841v2.61h-.001V61.715l.001.001zm11.75-44.41v22.21h-.001v-23.52h.001v1.31zm-26.13-.001V22.525h-.001v-3.92l.001-1.3-1.3.001v-.001h1.3zm28.732-1.31v26.13h-.003V14.695h.003v1.3zM55.385 59.106h.001v1.3h-.001v-1.3zm3.9 1.3v-1.3h.001l-.001 1.3.001 1.309h-.001v-1.309zm28.74-11.751v.001h-1.299v-.001h1.299zm-40.489 3.92h1.31v.001l-1.31-.001-1.29.001h-1.32v-.001H47.536zm7.849 10.44h.001v1.311h-.001v-1.311zm20.889-5.22l.001 1.311h-.001v-1.311zm2.611-2.61h.001v1.29h-.001v-1.29zm-7.831 0v-1.31h.002v1.31h-.002zm19.592-10.449v1.309h-.001l.001-1.309zm0 19.59l-.001-1.311h.001v1.311z"/>
  <path fill="#6FCBDC" d="M49.456 15.306V20.525h1.299V15.306z"/>
  <path fill="#282A73" d="M76.886 12.695v24.821H48.146v1.289H78.196V12.695z"/>
  <path fill="#3953A3" d="M75.585 13.996H48.143v23.52H76.885v-23.52h-1.3zm-26.129 5.239V15.305h1.3V20.525h-1.3v-1.29z"/>
  <path fill="#0B8040" d="M45.536 50.576v1.299H42.926v1.31H46.846v-2.609z"/>
  <path fill="#69BC45" d="M44.246 50.576h-1.32v1.299H45.536v-1.299z"/>
  <path d="M86.025 40.125h1.311v1.31h-1.311zM84.726 41.435h1.3v1.301h-1.3zM83.416 42.736h1.31v1.31h-1.31zM80.806 44.045h-39.19v1.29h41.8v-1.29h-1.299zM76.886 51.875h-7.83v1.31h7.83v1.29h2.599v-2.6h-1.289zM67.747 57.106h1.31v1.3h-1.31zM66.446 58.406h1.301v1.31h-1.301zM65.136 59.715h1.31v1.3h-1.31zM63.815 61.015h1.32v1.311h-1.32zM62.525 57.106h1.29v1.3h-1.29zM61.206 58.406h1.32v1.31h-1.32zM59.916 59.715h1.29v1.3h-1.29zM58.596 61.015h1.32v1.311h-1.32zM57.286 57.106h1.31v1.3h-1.31zM55.985 58.406h1.3v1.31h-1.3z"/>
  <path d="M54.676 59.715h1.31v1.3h-1.31zM53.386 61.015h1.29v1.311h-1.29zM52.065 57.106h1.32v1.3h-1.32zM50.755 58.406h1.31v1.31h-1.31z"/>
  <path d="M49.456 59.715h1.3v1.3h-1.3zM48.146 61.015h1.31v1.311h-1.31zM46.846 57.106h1.3v1.3h-1.3zM48.146 37.516v-23.52H76.886v-1.301H46.846V38.805h1.3zM45.536 58.406h1.31v1.31h-1.31zM44.246 59.715h1.29v1.3h-1.29zM42.926 61.015h1.32v1.311h-1.32zM41.616 57.106h1.31v1.3h-1.31zM40.315 58.406h1.3v1.31h-1.3z"/>
  <path d="M39.005 59.715h1.31v1.3h-1.31zM37.706 61.015h1.3v1.311h-1.3z"/>
  <g fill="#FFF">
    <path d="M89.946 54.475H87.335v1.32h-1.31v1.311h5.23V54.475zM87.335 58.406h-13.06v1.309h-1.299V62.326h-1.31v1.309h1.31v1.3h10.44v-1.3h2.609v-1.309h1.31v-1.311h1.311v-1.3h1.3v-1.309h-1.3zM82.117 54.475H79.485v1.32h-2.599v1.311H83.416v-1.311h1.31v-1.32h-1.31zM78.196 13.996v24.809H46.846v1.32H79.485V12.695h-1.289zM72.976 57.106h-3.92v1.3h-1.309v1.309h-1.301v1.3h-1.31v1.311h5.21v-1.311h1.32v-1.3h1.31v-1.309zM66.446 63.635H32.476v-1.309h-1.3v3.92h1.3v-1.311h36.58v-1.3h-1.309zM62.525 62.326v-1.311h1.29v-1.3h1.321v-1.309h1.31v-1.3H63.815v1.3h-1.29v1.309h-1.319v1.3h-1.29v1.311h1.29zM57.286 62.326v-1.311h1.31v-1.3h1.32v-1.309h1.29v-1.3H58.596v1.3h-1.31v1.309h-1.301v1.3h-1.309v1.311h1.309zM52.065 62.326v-1.311h1.321v-1.3h1.29v-1.309h1.309v-1.3h-2.599v1.3h-1.321v1.309h-1.31v1.3h-1.299v1.311h1.299zM46.846 62.326v-1.311h1.3v-1.3h1.31v-1.309h1.299v-1.3h-2.609v1.3h-1.3v1.309h-1.31v1.3h-1.29v1.311h1.29zM46.846 10.076H82.117V8.775H44.246v1.301h1.29zM44.246 58.406h1.29v-1.3H42.926v1.3h-1.31v1.309h-1.301v1.3h-1.31v1.311H41.616v-1.311h1.31v-1.3h1.32zM44.246 41.435V10.076h-1.32v32.66h1.32zM41.616 53.185v-5.22h43.11v-1.309H40.315v7.819h1.301zM39.005 57.106h1.31v1.3h-1.31z"/>
    <path d="M39.005 54.475h1.31v1.32h-1.31zM37.706 58.406h1.3v1.31h-1.3zM37.706 55.795h1.3v1.311h-1.3zM36.396 59.715h1.31v1.3h-1.31zM36.396 57.106h1.31v1.3h-1.31zM35.085 61.015h1.31v1.311h-1.31zM35.085 58.406h1.31v1.31h-1.31z"/>
    <path d="M33.786 59.715h1.3v1.3h-1.3zM32.476 61.015h1.31v1.311h-1.31z"/>
  </g>
  <g fill="#BFBFBF">
    <path d="M91.255 54.475V57.106h1.301V54.475zM89.946 58.406v1.309h1.309v-2.609h-1.309zM89.946 40.125h1.311v1.31h-1.311zM88.646 59.715h1.3v1.3h-1.3zM88.646 41.435h1.3v1.301h-1.3zM87.335 61.015h1.31v1.311h-1.31zM87.335 42.736h1.31v1.31h-1.31zM86.025 62.326h1.311v1.31h-1.311z"/>
    <path d="M86.025 44.045h1.311v1.29h-1.311zM84.726 54.475v1.32h-1.31v1.311h2.609v-1.311h1.31v-1.32h-1.31zM84.726 45.335h1.3v1.32h-1.3zM83.416 63.635v1.3h2.609v-1.3h-1.299zM84.726 51.875V47.964H41.613v6.511h-1.3v1.32h-1.31v1.311H74.274v-1.311h1.311v-1.32h1.3v-1.29h-7.831v-1.31h-1.31v-1.3h13.061v1.3h3.921zm-41.8 0v-1.3H46.846V53.185h-3.92v-1.31zM79.485 64.935H74.275v1.311h7.842v-1.311h-1.311zM71.666 63.635h1.31v1.3h-1.31zM71.666 61.015h1.31v1.311h-1.31zM66.446 64.935H32.476v1.311h36.58v-1.311h-1.309zM48.146 8.775H83.416v-1.31h1.31V6.166H46.846v1.299h-1.31v1.31h1.31zM46.846 42.736H82.119V10.075H44.246V42.736h2.6zm0-3.931v-26.11H79.488v27.43H46.846v-1.32zM37.706 57.106h1.3v1.3h-1.3z"/>
    <path d="M37.706 54.475h1.3v1.32h-1.3zM36.396 58.406h1.31v1.31h-1.31zM36.396 55.795h1.31v1.311h-1.31zM35.085 59.715h1.31v1.3h-1.31zM35.085 57.106h1.31v1.3h-1.31zM33.786 62.326h-1.31v1.309h36.58v-1.309H35.085v-1.311h-1.299z"/>
    <path d="M33.786 58.406h1.3v1.31h-1.3zM32.476 59.715h1.31v1.3h-1.31zM31.176 61.015h1.3v1.311h-1.3z"/>
  </g>
  <g fill="gray">
    <path d="M92.556 51.875h-1.301v-10.44h-1.309v1.301h-1.3v1.309h-1.311v1.29h-1.31v1.321h-1.299V51.875h-3.92v-1.299H67.747v1.299H79.485v2.6h13.071V57.106h-1.301v2.609h-1.309v1.3h-1.3v1.311h-1.311v1.309h-1.31v1.3h-3.908v1.311H74.275v-1.311h-2.609v-3.92h-1.32v1.311h-1.29v3.92H31.176v-3.92h-1.31V67.545h41.8v1.311H84.726v-1.311h3.92v-1.299h1.3v-1.311h1.309v-1.3h1.301v-2.62h1.311v-9.14z"/>
    <path d="M86.025 45.335v-1.29h1.31v-1.309h1.311v-1.301h1.3v-1.31H87.335v1.31h-1.31v1.301h-1.299v1.309h-1.31v1.29H40.315v1.321h44.411v-1.321z"/>
    <path d="M84.726 42.736v-1.301h1.299v-1.31h1.31V4.855H46.846v1.311H84.726v1.299h-1.31v1.31h-1.299v33.961H42.926V10.076h-1.31V44.045h41.8v-1.309zM74.275 58.406H89.946v-1.3H76.886v-1.311h2.599v-1.32H75.585v1.32h-1.31v1.311h-1.299v2.609h1.299zM71.666 59.715h1.31v1.3h-1.31zM66.446 57.106h1.301v1.3h-1.301zM65.136 58.406h1.31v1.31h-1.31zM63.815 59.715h1.32v1.3h-1.32zM62.525 61.015h1.29v1.311h-1.29zM61.206 57.106h1.32v1.3h-1.32zM59.916 58.406h1.29v1.31h-1.29zM58.596 59.715h1.32v1.3h-1.32zM57.286 61.015h1.31v1.311h-1.31zM55.985 57.106h1.3v1.3h-1.3zM54.676 58.406h1.31v1.31h-1.31zM53.386 59.715h1.29v1.3h-1.29zM52.065 61.015h1.32v1.311h-1.32zM50.755 57.106h1.31v1.3h-1.31zM49.456 58.406h1.3v1.31h-1.3zM48.146 59.715h1.31v1.3h-1.31zM46.846 61.015h1.3v1.311h-1.3zM45.536 57.106h1.31v1.3h-1.31z"/>
    <path d="M45.536 6.166h1.31v1.3h-1.31zM44.246 58.406h1.29v1.31h-1.29zM44.246 7.465h1.29v1.31h-1.29zM42.926 59.715h1.32v1.3h-1.32zM42.926 8.775h1.32v1.3h-1.32zM41.616 61.015h1.31v1.311h-1.31zM40.315 57.106h1.3v1.3h-1.3zM39.005 58.406h1.31v1.31h-1.31zM39.005 47.965v6.51h1.31v-7.819h-1.31z"/>
    <path d="M37.706 59.715h1.3v1.3h-1.3zM36.396 61.015h1.31v1.311h-1.31z"/>
  </g>
  <path d="M94.559 166.646h-2.613v-26.121h-22.2v-20.893H41.012v1.307h-1.306v1.307h-1.307v1.306h-1.32v1.294h-1.293v23.519h-2.613v1.322h-1.307v11.746h7.84v11.745h-7.84V177.1h6.533v1.319h6.533V177.1h9.134v5.226h37.88v-1.307h1.307v-1.307h1.306v-1.293h1.307v-11.773h-1.307zm-31.347 11.773l-3.92.001v-.001h3.92zm-22.2-20.907l-3.933.001v-.001h3.933zm23.508-5.225v-.002h1.293v.002H64.52zm0 14.359h22.199v.001h-24.8v-.001h2.601zm-5.228-24.813h-18.28v-.001h20.907v.001h-2.627zm-5.226 31.345H43.613v-11.745h14.373v9.132h-2.6v1.32h-1.32v1.293zm36.587 7.841H56.679v-.001l33.974.001z"/>
  <g>
    <path fill="teal" d="M80.8 147.687H61.212v14.347H82.12v-14.347H80.8zm-18.28 5.211v-2.613h1.293v3.92H62.52v-1.307z"/>
    <g fill="#6FCBDC">
      <path d="M62.52 150.287v3.92h1.293v-3.92zM40.319 129.379v2.626h1.294v-3.92h-1.294z"/>
    </g>
    <path fill="#F5EA14" d="M40.319 172.485h-1.307v3.934h2.601v-3.934z"/>
    <g fill="#282A73">
      <path d="M59.919 126.778v13.055h1.293v-13.055zM57.292 139.833h-18.28v1.319h20.907v-1.319z"/>
    </g>
    <path fill="#3953A3" d="M58.599 126.778H39.012v13.054h20.907v-13.054h-1.32zm-18.28 3.92v-2.613h1.293v3.92h-1.293v-1.307z"/>
    <path fill="#7F8033" d="M41.613 171.178h-5.214v5.241h1.307v-3.934h3.907v3.934h1.319v-5.241z"/>
    <g fill="#0B8040">
      <path d="M59.919 175.1h-2.627v1.319h3.92V175.1zM36.399 154.207h-1.32v1.305h3.933v-1.305z"/>
    </g>
    <g fill="#69BC45">
      <path d="M59.919 173.792h-2.627v1.308h3.92v-1.308zM36.399 152.898h-1.32v1.309h3.933v-1.309z"/>
    </g>
    <path d="M88.653 164.646v1.32h1.293v-1.32zM87.332 167.259h1.321v-1.293h-1.321zM84.719 167.259H55.986v1.306h31.346v-1.306zM83.413 173.792H71.665v1.308h14.361v-1.308zM59.919 146.365v15.667h1.293v-14.345H82.12v-1.322zM55.986 152.898h-5.227v1.309h5.227zM52.066 146.365h3.92v-1.305h-22.2v1.305zM39.012 139.833v-13.055h22.2v-1.305H37.706v15.679h1.306z"/>
    <g fill="#BFBFBF">
      <path d="M91.253 165.966v1.293h1.306v-1.293zM89.946 168.565h1.307v-1.306h-1.307zM88.653 169.885h1.293v-1.32h-1.293zM86.026 171.178H54.679v7.84h33.974v-7.84h-2.627zm-13.053 1.307h13.053v2.613H82.12v1.32H80.8v-1.32h-9.134v-2.613h1.307zM57.292 175.1v-1.307h3.92v2.627h-3.92v-1.32zM63.813 139.833h-2.601v1.319h-1.293v1.293h26.107v-1.293h1.306v-1.319zM57.292 146.365v19.601h28.734v-22.214H57.292v2.613zm3.92-1.305h23.507v19.587h-24.8V145.06h1.293zM55.986 158.112v-3.906h-5.227v-2.626h5.227v-2.601H32.479v9.133h23.507zm-20.907-3.905V152.9h3.933v2.613h-3.933v-1.306zM49.466 173.792h-6.534v1.308h9.134v-1.308zM40.319 160.738v10.44h1.294v-11.745h-1.294zM40.319 121.552h23.494v-1.306h1.32v-1.307H39.012v1.307h-1.306v1.306z"/>
      <path d="M39.012 143.752h18.28v-1.307H37.706v-18.279h23.506v14.359h2.601v-15.679H36.399v20.906zM33.786 173.792h-3.92v1.308h6.533v-1.308z"/>
    </g>
    <g fill="#FFF">
      <path d="M87.332 139.833v1.319h1.321v-1.319zM86.026 169.885h-32.64v9.134h1.293v-7.841h33.974v-1.293zM86.026 142.445h1.306v-1.293h-1.306zM83.413 142.445H58.599v1.307h27.427v-1.307zM66.439 118.939h-1.306v1.307h1.306zM65.133 120.246h-1.32v1.306h1.32zM62.52 164.646h22.199V145.06h-1.306v18.293H59.919v1.293zM57.292 141.152H37.706v1.293h20.893v-1.293zM54.679 148.979h1.307v-1.292H31.173v10.425h1.306v-9.133zM49.466 172.485h-6.534v1.307h9.134v-1.307zM39.012 160.738v10.44h1.307v-11.745h-1.307zM37.706 173.792v2.627h1.306v-3.934h-1.306zM39.012 122.846h24.801v-1.294H36.399v1.294zM36.399 142.445v-19.599h-1.32v20.906h1.32zM33.786 172.485h-3.92v1.307h6.533v-1.307z"/>
    </g>
    <g fill="#807F7F">
      <path d="M92.559 164.646h-2.613v1.32h-1.293v1.293h-1.321v1.306H53.386v1.32h35.267v-1.32h1.293v-1.306h1.307v-1.293h1.306v1.293h-1.306v1.306h-1.307v1.32h-1.293v9.134H53.386v-9.134h-1.32v1.293h-9.134v1.307h9.134v7.841h37.88v-1.307h1.307v-1.307h1.306v-1.293h1.307v-11.773z"/>
      <path d="M88.653 165.966v-1.32h1.293v-26.121h-22.2v-20.893H39.012v1.307h27.427v1.307h-1.306v1.306h-1.32v16.973h-2.601v1.308h27.441v1.319h-1.321v1.293h-1.306v23.521H57.292v-22.214H35.079v-20.906h-1.293v22.214h22.2v1.305H31.173v1.322h24.813v3.893h-5.227v1.318h5.227v5.214H31.173v-10.425h-1.307v11.746h7.84v11.745h1.306v-11.745h16.974v7.826h31.346v-1.293zM80.8 176.419h1.32V175.1H80.8zM74.266 173.792h11.76v-1.307H71.665v1.307z"/>
      <path d="M59.919 145.06v1.305H82.12v15.667H59.919v1.321h23.494V145.06zM59.919 141.152h1.293v-1.319h-1.293zM59.919 141.152h-1.32v1.293h1.32zM58.599 142.445h-1.307v1.307h1.307zM40.319 125.473h20.893v-1.307H37.706v1.307zM39.012 118.939h-1.306v1.307h1.306zM37.706 120.246h-1.307v1.306h1.307zM36.399 121.552h-1.32v1.294h1.32zM33.786 171.178h-3.92v1.307h6.533v-1.307z"/>
    </g>
  </g>
  <path d="M94.491 241.528h-2.8v-1.378H87.53v-1.392h-2.799v-1.392H80.57v-1.392h-4.175v11.134h-.003V234.567h-5.565v8.378l-.003-.011v-9.744h-4.175v-1.392H62.475v-1.392h-4.176v-1.391h-9.743v1.391H44.38v1.392h-4.162v1.392h-4.176v1.377h-2.784v1.407h-1.392v11.135h1.392v9.73h1.392v8.34h1.392v9.756h1.378V281.882h1.406v1.389h1.392v1.406h20.865v.004H43.002v1.375h2.784v1.391h16.689v.002H48.556v1.391h2.783v1.393h2.785v1.406h2.798v1.379h2.769v1.393h2.784v1.389h2.784v1.394h5.565l.003-.007v.007h1.393V295.8h2.768v-1.389h2.8v-1.393h2.782v-1.379h1.379v-1.406h2.782v-1.393h1.393v-1.391l-.011-.002h.011v-2.766l-.009-.004h1.415v-6.957h1.379v-5.582h1.39v-1.379l-.007-.002h.007v-4.174h1.392v-6.959h1.39v-4.177l.003-.008v.008h1.407v-4.176h1.376v-9.743h-1.376zm-18.096 50.115l-.003-.006v-1.415l.003.009v1.412zm-5.555-6.967l-.013.004v.016l-.003-.016H68.028v-.004H70.824V274.934h.003V284.676h.013zm-6.959 2.772v-.002h1.378v.002h-1.378zm-6.959-16.69h-5.583v-.002h5.583v.002zm8.336 6.961v-1.406h.001l-.001 1.406zm1.391-6.961h-1.39v-.002h2.769v.002h-1.379zm-25.039-.002H45.786v.002H41.61v-.002zm29.214-5.578V249.891h.003v16.716l-.003-.025v-1.404zm5.568-12.515v-1.392h.003v4.217l-.003-.041v-2.784zm-4.172 18.095v-.002h1.389v.002H72.22zm4.172-5.58l.003-.053v4.242h-.003v-4.189zm0 5.578h1.396l-1.393.002v1.398l-.003-.021v-1.379zM63.881 284.68v-.004h2.768v.004h-2.768zm5.554 2.768v-.002l.007.006-.007-.004zm8.353 0l-.014-.002h.017l-.003.002zm1.357-2.772H79.173l-.009.004-.019-.004zm5.582-13.92h1.397l.002.002h-1.395l-.004-.002zm8.357-22.259l-.003-.01h.003v.01zm0-1.388h-.003v-1.405h.003v1.405zm-22.257-1.419v1.419h-.003v-1.405l.003-.014zm0 50.113l-.003-.006.003-1.389v1.395zm5.565-2.787l.003-.006v.006h-.003zm2.768-5.57h.024l-.021.002-.003-.002zm1.41-2.766l-.009-.004h1.388l.004.004H80.57zm8.339-13.922H87.53l-.004-.002h1.39l-.007.002zm4.175-16.679l-.003-.009v-4.178l.003-.009v4.196z"/>
  <g>
    <path fill="#4D4E4E" d="M92.491 240.934v2.77h-1.407v1.405h-2.785v2.784h1.392v-1.406h2.8v1.406h-1.407v4.186l-.003-.009h-1.39v4.161h-2.782v6.947H85.53v2.796h-1.406v2.782l.002.002h-1.395v2.784h-1.376v2.771h-1.406v2.782H78.57v4.175h-1.406v1.406h.009l-.009.004v1.375h-1.376v1.391h.003l-.003.002v2.783h-1.393v1.412l-.003-.006h-2.783v1.379H70.22v1.393h-1.393v1.394l-.003-.006h-1.389v1.394h1.389l.003-.007v.007h1.393v-1.394h1.389v-1.388h1.379v-1.393h1.404l.003-.006v.006h1.393v-1.379h1.376v-4.189l-.004-.002h1.41v-2.766l-.009-.004h1.388v-4.174h4.175v-4.189h1.406v-5.555l-.004-.002h1.383v-4.173h1.39v-6.959h2.782v-4.177l.003-.008v.008h1.407v-4.176h1.376v-8.337z"/>
    <path fill="#555" d="M91.084 246.487v.01l-.003-.01h-1.39v1.406h-2.782v2.77H85.53v2.784h-1.406v2.784h-2.769v4.176h-1.406v1.39H78.57v2.786h-1.406v2.785h-1.376v1.388l-1.393.002v1.399l-.003-.022h-1.404v4.178h-1.379v4.189H70.22v1.379h-1.393v2.795h.013l-.013.004v.016l-.003-.016h-1.389v2.766l.007.006-.007-.004v2.783h-2.786v6.96h2.786v-1.394h1.389l.003-1.388h1.393v-1.393h1.389v-1.379h2.783v-1.415l.003.009h1.393v-2.783l-.014-.002h.014v-1.391h1.376v-1.375l-.019-.004h.019v-1.406h1.406v-4.175h1.379v-2.782h1.406v-2.771h1.376v-2.784l-.004-.002h1.397v-2.782h1.406v-2.796h1.379v-6.947h2.782v-4.161h1.39v-4.178l.003-.009v.01h1.407v-1.406z"/>
    <path fill="#669766" d="M61.881 264.583h1.378v1.391h-1.378z"/>
    <path fill="#D5D5D5" d="M60.475 279.881V284.055h1.406v-4.174z"/>
    <path fill="#669766" d="M60.475 271.542h1.406v1.392h-1.406zM59.083 272.934h1.392v1.379h-1.392zM57.691 277.095h1.392v1.407h-1.392zM57.691 254.838h1.392v1.393h-1.392zM56.299 279.881h1.392v1.389h-1.392zM56.299 260.407h1.392v1.39h-1.392zM56.299 253.447h1.392v1.391h-1.392zM54.922 278.502h1.377v1.379h-1.377zM56.516 274.313h-1.594v1.406h2.769v-1.406zM54.922 252.07h1.377v1.377h-1.377zM53.515 270.135h1.407v1.407h-1.407zM53.515 257.624h1.407v1.406h-1.407zM52.124 271.542h1.391v1.392h-1.391zM52.124 253.447h1.391v1.391h-1.391zM52.124 250.663h1.391v1.407h-1.391zM50.746 272.934h1.378v1.379h-1.378zM50.746 252.07h1.378v1.377h-1.378zM50.746 249.271h1.378v1.392h-1.378z"/>
    <g fill="#292929">
      <path d="M88.299 257.624v6.959h1.392v-6.959zM88.299 264.583h-1.39v4.173h.007l-.007.002H85.53v5.555h-1.406v4.189h-4.175v4.174l.004.004H78.57v2.633l-1.406.135v4.189h-1.376v1.379h2.782v-1.379h1.379v-1.406h2.782v-1.393h1.393v-1.39l-.011-.002h.011v-2.766l-.009-.004h1.415v-6.957h1.379v-5.582h1.39v-1.379l-.007-.002h.007z"/>
      <path d="M74.651 291.016h-1.663v1.393h2.8v-1.393zM71.609 293.797h1.379v-1.388h-1.379zM63.259 245.109h1.39v-1.405h-1.39zM61.881 242.326v-1.392h-1.406v2.77h2.784v-1.378zM59.083 239.528v1.406h1.392v-1.406zM57.691 238.15v-1.392h-1.392v2.77h2.784v-1.378zM54.922 235.366v1.392h1.377v-1.392zM53.515 233.974v-1.407h-1.391v2.799h2.798v-1.392zM50.746 231.19v1.377h1.378v-1.377z"/>
    </g>
    <g fill="#797979">
      <path d="M85.53 245.109h-1.406v1.378h-2.769v1.406h-4.191v1.378h-2.769v4.217l-.003-.041h-1.404v5.583h-1.379v4.148h1.379v2.796h-1.379v5.568H70.22v1.392h2.768V267.368h1.404v-4.19l.003-.053v.053h1.393v-2.771h1.376v-2.783h1.406v-2.786h1.379v-2.768h1.406v-2.799h1.376v-1.378h2.799v-1.406h1.379v-1.378zM68.827 274.313v2.782h1.393v-4.161h-1.393zM67.435 278.502v1.379h1.389v-2.786h-1.389zM74.392 246.487h-1.404v-1.378h-4.164v-1.405h-1.389v-1.378h-1.407v-1.392h-1.379v-1.406h-1.39v-1.378h-1.378v-1.392h-1.406v-1.392h-1.392v-1.392h-1.392v-1.407h-1.392v-1.377h-1.377v-1.392h-1.407v-1.392h-2.769v1.392h1.378v1.392h1.391v1.377h1.407v1.407h1.377v1.392h1.392v1.392h1.392v1.392h1.392v1.378h1.406v1.406h1.378v1.392h1.39v1.378h1.379v1.405h1.407v1.378h4.174v1.406h4.179v-1.406z"/>
    </g>
    <path fill="#669766" d="M49.339 274.313h1.407v1.406h-1.407zM49.339 250.663h1.407v1.407h-1.407z"/>
    <g fill="#676767">
      <path d="M92.491 239.528h-2.8v-1.378H85.53v-1.392h-2.799v-1.392H78.57v-1.392h-4.175v1.392h2.769v1.392h4.191v1.392h2.769v1.378h4.175v1.406h5.568v-1.406zM92.491 242.326h-2.8v1.378h-2.782v2.783H85.53v1.406h-2.799v1.378h-1.376v2.799h-1.406v2.768H78.57v2.786h-1.406v2.783h-1.376v2.771h-1.393v4.19h-1.407v2.769h1.404v-1.381h1.396v-1.388h1.376v-2.785h1.406v-2.786h1.379v-1.39h1.406v-4.176h2.769v-2.784h1.406v-2.784h1.379v-2.77h1.39v-2.784h2.782v-1.405h1.41zM70.22 272.934v4.161h-1.393v2.786h1.393v-1.379h1.389v-4.189h1.379v-1.379zM71.724 232.567H68.827v1.407H72.988v1.392h1.404v-2.799zM67.435 281.27v1.406h1.389v-2.795h-1.389zM66.028 282.68V288.231h1.407v-5.551zM66.028 231.19h-1.379v1.377h4.175v-1.377zM66.028 245.109v-1.405h-1.379v1.405zM63.259 242.326v1.378h1.39v-1.378zM63.259 229.798h-2.784v1.392h4.174v-1.392zM61.881 240.934v1.392h1.378v-1.392zM60.475 239.528v1.406h1.406v-1.406zM59.083 238.15v1.378h1.392v-1.378zM59.083 228.406h-2.784v1.392h4.176v-1.392zM57.691 236.758v1.392h1.392v-1.392zM56.299 235.366v1.392h1.392v-1.392zM54.922 233.974v1.392h1.377v-1.392zM53.515 232.567v1.407h1.407v-1.407zM52.124 231.19v1.377h1.391v-1.377zM50.746 229.798v1.392h1.378v-1.392zM49.339 228.406v1.392h1.407v-1.392z"/>
    </g>
    <path fill="#669766" d="M45.178 249.271h1.378v1.392h-1.378zM43.786 271.542h1.392v1.392h-1.392zM43.786 250.663h1.392v1.407h-1.392zM42.38 270.135h1.406v1.407H42.38z"/>
    <g fill="#166835">
      <path d="M61.881 265.974V274.313h1.378v-8.339zM60.475 275.719h1.406v-1.406h-1.406zM59.083 277.095h1.392v-1.376h-1.392zM57.691 263.178h2.784v-2.771h-1.392v-1.377h-2.784v-2.799h-1.377v2.799h-2.798v1.377h5.567zM56.299 282.676h1.392v-1.406h-1.392zM54.922 279.881v1.389h1.377v-1.389zM53.515 278.502v1.379h1.407v-1.379zM53.515 254.838v1.393h1.407v-1.393zM52.124 277.095v1.407h1.391v-1.407zM50.746 275.719v1.376h1.378v-1.376zM46.556 274.313h1.405v-1.379h-1.405zM45.178 271.542v1.392h1.378v-1.392zM46.556 259.03h-1.378v2.767h2.783v-1.39h-1.405zM43.786 270.135v-1.377H42.38v1.379h1.406v1.405h1.392v-1.407zM43.786 267.368H42.38v1.388h1.406z"/>
    </g>
    <path fill="#669766" d="M42.38 265.974h1.406v1.394H42.38z"/>
    <path fill="#669766" d="M42.38 264.583h1.406v1.391H42.38zM42.38 263.178h1.406v1.405H42.38zM42.38 261.797h1.406v1.381H42.38zM42.38 260.407h1.406v1.39H42.38zM42.38 259.03h1.406v1.377H42.38zM41.002 268.758h1.378v1.379h-1.378zM39.61 265.974h1.392v1.394H39.61z"/>
    <path fill="#669766" d="M39.61 264.583h1.392v1.391H39.61zM39.61 263.178h1.392v1.405H39.61zM39.61 261.797h1.392v1.381H39.61zM39.61 260.407h1.392v1.39H39.61zM39.61 259.03h1.392v1.377H39.61z"/>
    <path fill="#669766" d="M39.61 257.624h1.392v1.406H39.61z"/>
    <g fill="#0B8040">
      <path d="M60.475 272.934v1.379h1.406v-1.379z"/>
      <path d="M57.691 274.313v1.406h-2.769v-4.177h-1.407v1.392h-1.391v1.379h-1.378v1.406h1.378v1.376h1.391v1.407h4.176v-1.407h1.392v-1.376h1.392v-1.406zM53.515 253.447v1.391h1.407v1.393h1.377v2.799h2.784v1.377h1.392v-8.337h-1.392v4.161h-1.392v-1.393h-1.392v-1.391h-1.377v-1.377h-2.798v1.377zM52.124 252.07v-1.407h-1.378v1.407zM50.746 249.271h-4.19v1.392h4.19zM43.786 254.838v-1.391H42.38v-1.377h-1.378v1.377H39.61v1.391h-1.392v1.393h-1.392v1.393h4.176v11.132h1.378v-9.726h1.406v1.377h1.392v-4.176h-1.392z"/>
    </g>
    <g fill="#848384">
      <path d="M63.259 293.797v1.394h1.39v-1.394zM61.881 292.409h-1.406v1.388h2.784v-1.388zM59.083 291.016h-1.392v1.393h2.784v-1.393zM56.299 289.637h-1.377v1.379h2.769v-1.379zM53.515 288.231h-1.391v1.406h2.798v-1.406zM50.746 286.838h-1.407v1.393h2.785v-1.393zM47.961 285.448h-1.405v1.39h2.783v-1.39zM46.556 284.055h-2.77v1.391h2.77zM42.38 282.68h-1.378v1.375h2.784v-1.375zM41.002 281.27h-2.784v1.406h2.784zM36.826 279.881v1.389h1.392v-1.389zM35.42 278.502v1.379h1.406v-1.379z"/>
    </g>
    <g fill="#97C997">
      <path d="M63.259 270.135v2.799h1.39v-4.176h-1.39zM63.259 265.974v2.782h1.39v-2.782zM56.299 279.881h1.392v-1.379h-1.392zM54.922 282.676h1.377v-1.406h-1.377zM54.922 261.797h1.377v-1.39h-1.377zM53.515 279.881v1.389h1.407v-1.389zM54.922 250.663h-1.407v1.407h1.407zM52.124 278.502v1.379h1.391v-1.379zM50.746 277.095v1.407h1.378v-1.407zM49.339 275.719v1.376h1.407v-1.376zM49.339 250.663h-4.161v1.407h4.161zM46.556 275.719h1.405v-1.406h-1.405zM45.178 272.934v1.379h1.378v-1.379zM43.786 249.271v1.392h1.392v-1.392zM42.38 253.447h1.406v-1.377H42.38zM41.002 250.663v1.407h1.378v-1.407zM39.61 268.756h1.392v-1.388H39.61zM39.61 253.447h1.392v-1.377H39.61zM39.61 257.624h-1.392v1.406h1.392zM38.218 254.838h1.392v-1.391h-1.392zM36.826 256.231h1.392v-1.393h-1.392zM35.42 257.624h1.406v-1.393H35.42z"/>
    </g>
    <path fill="#1B1C1C" d="M59.083 240.934v-1.406h-2.784v-2.77h-1.377v-1.392h-2.798v-2.799h-1.378v-2.769h-1.407v-1.392h-2.783v1.392H42.38v1.392h-4.162v1.377h-4.176v2.799h4.176v1.392h4.162v1.392h4.176v1.378h4.19v1.406h4.176v1.392h4.161v1.378h1.392v-2.77z"/>
    <g fill="#ACA790">
      <path d="M85.53 240.934v1.392h1.379v-1.392zM84.124 243.704h1.406v-1.378h-1.406zM85.53 240.934v-1.406h-1.406v1.406zM82.731 240.934v1.392h1.393v-1.392zM84.124 238.15h-1.393v1.378h1.393zM81.355 243.704h1.376v-1.378h-1.376zM82.731 240.934v-1.406h-1.376v1.406zM79.949 245.109h1.406v-1.405h-1.406zM79.949 242.326h1.406v-1.392h-1.406zM81.355 239.528v-1.378h-1.406v1.378zM78.57 246.487h1.379v-1.378H78.57zM78.57 243.704h1.379v-1.378H78.57zM79.949 240.934v-1.406H78.57v1.406zM79.949 236.758H78.57v1.392h1.379zM77.164 243.704v1.405h1.406v-1.405zM78.57 240.934h-1.406v1.392h1.406zM78.57 239.528v-1.378h-1.406v1.378zM75.788 246.487h1.376v-1.378h-1.376zM77.164 242.326h-1.376v1.378h1.376zM77.164 239.528h-1.376v1.406h1.376zM77.164 236.758h-1.376v1.392h1.376zM74.395 243.704v1.405h1.393v-1.405zM74.395 240.934v1.392h1.393v-1.392zM74.395 238.15v1.378h1.393v-1.378zM74.395 235.366v1.392h1.393v-1.392zM72.988 252.07v1.377h1.404v-2.784h-1.404zM74.392 243.704v-1.378h-1.404v1.378zM74.392 240.934v-1.406h-1.404v1.406zM72.988 238.15h1.404v-1.392h-1.404zM71.609 264.583v1.391h1.379v-2.796h-1.379zM71.609 257.624v1.406h1.379v-2.799h-1.379zM71.609 242.326h1.379v-1.392h-1.379zM71.609 239.528h1.379v-1.378h-1.379zM72.988 236.758v-1.392h-1.379v1.392zM70.22 270.135v1.407h1.389v-2.784H70.22zM70.22 239.528v1.406h1.389v-1.406zM71.609 236.758H70.22v1.392h1.389zM71.609 233.974H70.22v1.392h1.389zM68.827 238.15v1.378h1.393v-1.378zM68.827 235.366v1.392h1.393v-1.392zM67.435 274.313v2.782h1.389v-4.161h-1.389zM68.824 238.15v-1.392h-1.389v1.392zM67.435 235.366h1.389v-1.392h-1.389zM66.028 281.27v1.406h1.407v-2.795h-1.407zM66.028 236.758h1.407v-1.392h-1.407zM67.435 232.567h-1.407v1.407h1.407zM64.649 284.055v4.176h1.379v-4.176zM64.649 233.974v1.392h1.379v-1.392zM63.259 293.797h1.39v-1.388h-1.39zM63.259 232.567v1.407h1.39v-1.407zM61.881 291.016h-1.406v1.393h2.784v-1.393zM61.881 231.19v1.377h1.378v-1.377zM59.083 289.637h-1.392v1.379h2.784v-1.379zM56.299 288.231h-1.377v1.406h2.769v-1.406zM53.515 286.838h-1.391v1.393h2.798v-1.393zM50.746 285.448h-1.407v1.39h2.785v-1.39zM49.339 284.055h-2.783v1.391h2.783zM45.178 282.68h-1.392v1.375h2.77v-1.375zM43.786 281.27h-2.784v1.406h2.784zM39.61 279.881h-1.392v1.389h2.784v-1.389z"/>
      <path d="M36.826 278.502v1.379h1.392v-1.379zM36.826 272.934H35.42v1.379h1.406zM35.42 263.178h-1.378v1.405h1.378zM34.042 254.838H32.65v1.393h1.392zM32.65 245.109h-1.392v1.378h1.392z"/>
    </g>
    <g fill="#CBCACA">
      <path d="M70.22 252.07v1.377h1.389v-1.377zM68.827 260.407h1.393v-1.377h-1.393zM68.827 257.624h1.393v-1.393h-1.393zM68.827 254.838h1.393v-1.391h-1.393zM68.827 250.663v1.407h1.393v-1.407zM68.824 264.583v-1.405h-1.389v1.405zM68.824 261.797v-1.39h-1.389v1.39zM68.824 259.03v-1.406h-1.389v1.406zM68.824 256.231v-1.393h-1.389v1.393zM68.824 253.447v-1.377h-1.389v1.377zM67.435 250.663h1.389v-1.392h-1.389zM66.028 263.178h1.407v-1.381h-1.407zM66.028 260.407h1.407v-1.377h-1.407zM66.028 257.624h1.407v-1.393h-1.407zM66.028 254.838h1.407v-1.391h-1.407zM66.028 252.07h1.407v-1.407h-1.407zM67.435 247.893h-1.407v1.378h1.407zM64.649 261.797h1.379v-1.39h-1.379zM64.649 259.03h1.379v-1.406h-1.379zM64.649 256.231h1.379v-1.393h-1.379zM64.649 253.447h1.379v-1.377h-1.379zM66.028 250.663v-1.392h-1.379v1.392zM64.649 282.676v-1.406h-1.39v1.406zM64.649 279.881v-1.379h-1.39v1.379zM63.259 289.637v-1.406h-1.378v1.406zM61.881 284.055h1.378v-1.375h-1.378zM61.881 281.27h1.378v-1.389h-1.378zM60.475 291.016h1.406v-1.379h-1.406zM61.881 285.448v-1.393h-1.406v1.393h-1.392v1.39h1.392v1.393h1.406v-1.393h1.378v-1.39z"/>
      <path d="M64.649 272.934v1.379h-1.39v1.406h-1.378v1.376h-1.406v1.407h-1.392v5.553h1.392V279.881h1.406v-1.379h1.378v-1.407h2.769v-4.161zM60.475 247.893v-1.406h-1.392v1.406zM57.691 288.231h1.392v-1.393h-1.392zM57.691 285.446h1.392v-1.391h-1.392zM57.691 247.893v1.378h1.392v-1.378zM59.083 245.109h-1.392v1.378h1.392zM56.299 285.448v1.39h1.392v-1.39zM56.299 282.68v1.375h1.392v-1.375z"/>
      <path d="M64.649 263.178v-1.381h-1.39v-1.39h1.39v-1.377h-1.39v-1.406h1.39v-1.393h-1.39v-1.393h1.39v-1.391h-1.39v-1.377h1.39v-1.407h-2.768v-1.392h2.768v-1.378h-1.39v-1.406h-1.378v1.406h-1.406v1.378h-1.392v1.392h-1.392v2.784h1.392v-1.377h2.798v11.108h-4.19v-1.381h-2.769v1.381h1.377v1.405h-1.377v1.391h1.377v1.394h-1.377v1.39h-1.407v1.379h2.784v4.176h2.784v-1.379h1.392v-1.392h1.406v-6.959h1.378v1.391h1.39v-1.391h1.379v-1.405zM56.299 249.271v1.392h1.392v-1.392zM57.691 247.893v-1.406h-1.392v1.406zM54.922 288.231h1.377v-1.393h-1.377zM54.922 285.446h1.377v-1.391h-1.377zM54.922 247.893v1.378h1.377v-1.378zM56.299 246.487v-1.378h-1.377v1.378zM53.515 285.448v1.39h1.407v-1.39zM53.515 282.68v1.375h1.407v-1.375z"/>
      <path d="M53.515 265.974v1.394h1.407v-1.394zM53.515 264.583h1.407v-1.405h-1.407zM54.922 260.407h-1.407v1.39h1.407zM53.515 246.487v1.406h1.407v-1.406zM54.922 243.704h-1.407v1.405h1.407zM52.124 285.446h1.391v-1.391h-1.391zM53.515 282.676v-1.406h-1.391v1.406zM52.124 268.756h1.391v-1.388h-1.391zM52.124 264.583v1.391h1.391v-1.391zM53.515 263.178v-1.381h-1.391v1.381zM53.515 257.624v-1.393h-1.391v1.393zM52.124 249.271h1.391v-1.378h-1.391zM53.515 246.487v-1.378h-1.391v1.378zM50.746 282.68v1.375h1.378v-1.375zM52.124 279.881h-1.378v1.389h1.378zM52.124 268.758h-1.378v1.379h1.378zM50.746 265.974v1.394h1.378v-1.394zM52.124 263.178h-1.378v1.405h1.378zM52.124 260.407h-1.378v1.39h1.378zM52.124 257.624h-1.378v1.406h1.378zM52.124 254.838h-1.378v1.393h1.378zM50.746 246.487v1.406h1.378v-1.406zM52.124 245.109v-1.405h-1.378v1.405zM49.339 285.446h1.407v-1.391h-1.407zM50.746 282.676v-1.406h-1.407v1.406zM49.339 268.756h1.407v-1.388h-1.407zM50.746 264.583h-1.407v1.391h1.407zM49.339 261.797v1.381h1.407v-1.381zM49.339 259.03v1.377h1.407v-1.377zM49.339 256.231v1.393h1.407v-1.393zM49.339 245.109v1.378h1.407v-1.378zM50.746 242.326h-1.407v1.378h1.407zM47.961 282.68v1.375h1.378v-1.375zM49.339 279.881h-1.378v1.389h1.378zM47.961 265.974v1.394h1.378v-1.394zM47.961 243.704v1.405h1.378v-1.405zM47.961 281.27h-1.405v1.406h1.405zM46.556 242.326v1.378h1.405v-1.378zM35.42 271.542v1.392h1.406v-2.799H35.42zM35.42 261.797v-1.39h-1.378v2.771h1.378zM34.042 253.447v-2.784H32.65v4.175h1.392zM32.65 243.704v-1.378h-1.392v2.783h1.392z"/>
    </g>
    <g fill="#E5E5D4">
      <path d="M61.881 249.271v1.392h1.378v-1.392zM61.881 246.487h-1.406v1.406h1.406zM59.083 288.231h1.392v-1.393h-1.392zM59.083 285.446h1.392v-1.391h-1.392zM59.083 249.271h1.392v-1.378h-1.392zM57.691 289.637h1.392v-1.406h-1.392zM59.083 285.448h-1.392v1.39h1.392zM57.691 282.68v1.375h1.392v-1.375zM57.691 250.663h1.392v-1.392h-1.392zM59.083 247.893v-1.406h-1.392v1.406zM56.299 286.838v1.393h1.392v-1.393zM56.299 285.446h1.392v-1.391h-1.392zM56.299 252.07h1.392v-1.407h-1.392zM56.299 249.271h1.392v-1.378h-1.392zM57.691 245.109h-1.392v1.378h1.392zM54.922 285.448v1.39h1.377v-1.39zM54.922 282.68v1.375h1.377v-1.375zM56.299 267.368v-1.394h-1.377v1.394zM56.299 264.583v-1.405h-1.377v1.405zM54.922 249.271v1.392h1.377v-1.392zM56.299 247.893v-1.406h-1.377v1.406zM53.515 285.446h1.407v-1.391h-1.407zM54.922 282.676v-1.406h-1.407v1.406zM53.515 268.756h1.407v-1.388h-1.407zM53.515 265.974h1.407v-1.391h-1.407zM54.922 263.178v-1.381h-1.407v1.381zM54.922 257.624v-1.393h-1.407v1.393zM53.515 247.893v1.378h1.407v-1.378zM54.922 246.487v-1.378h-1.407v1.378zM52.124 286.838h1.391v-1.39h-1.391zM52.124 282.68v1.375h1.391v-1.375zM53.515 281.27v-1.389h-1.391v1.389zM52.124 265.974v1.394h1.391v-1.394zM53.515 264.583v-1.405h-1.391v1.405zM53.515 261.797v-1.39h-1.391v1.39zM52.124 259.03h1.391v-1.406h-1.391zM53.515 256.231v-1.393h-1.391v1.393zM52.124 250.663h1.391v-1.392h-1.391zM52.124 246.487v1.406h1.391v-1.406zM53.515 243.704h-1.391v1.405h1.391zM50.746 285.446h1.378v-1.391h-1.378zM50.746 282.676h1.378v-1.406h-1.378zM50.746 268.756h1.378v-1.388h-1.378zM50.746 264.583v1.391h1.378v-1.391zM52.124 263.178v-1.381h-1.378v1.381zM52.124 260.407v-1.377h-1.378v1.377zM50.746 256.231v1.393h1.378v-1.393zM52.124 246.487v-1.378h-1.378v1.378zM49.339 282.68v1.375h1.407v-1.375zM49.339 265.974v1.394h1.407v-1.394zM50.746 260.407h-1.407v1.39h1.407z"/>
      <path d="M49.339 257.624v-1.393h1.407v-1.393h1.378v-1.391h-1.378v-1.377h-5.568v2.768h2.783v1.393h-1.405v1.393h1.405v1.406h2.785v-1.406zM50.746 245.109v-1.405h-1.407v1.405zM49.339 282.676v-1.406h-1.378v1.406z"/>
      <path d="M43.786 252.07v-2.799h8.338v-1.378h-1.378v-1.406h-1.407v-1.378h-1.378v-1.405h-1.405v-2.77H42.38v-1.406h-4.162v-1.378h-4.176v-1.392h-2.784v5.568h1.392v8.337h1.392v9.744h1.378V270.137h1.406v8.365h1.392v1.379h2.784v1.389h2.784v1.406h2.77v-1.406h1.405v-1.389h1.378v1.389h1.407v-1.389h1.378v-1.379h-1.378v-1.407h-1.407v-1.376h-2.783v-1.406h-1.378v-1.379h-1.392v-1.392H42.38v-1.407h-1.378v-1.377H39.61v-9.728h-1.392v-1.406H35.42v-1.393h1.406v-1.393h1.392v-1.391h1.392v-1.377h1.392v-1.407h1.378v1.407z"/>
      <path d="M49.339 242.326h-1.378v1.378h1.378zM46.556 284.055h1.405v-1.375h-1.405zM52.124 268.758v1.377h-1.378v-1.377h-1.407v-1.39h-1.378v-1.394h1.378v-1.391h1.407v-1.405h-1.407v-1.381h-4.161v8.34h1.378v1.405h2.783v2.771h1.407v-1.379h1.378v-1.392h1.391v-2.784z"/>
    </g>
    <g fill="#BFBEBE">
      <path d="M88.299 240.934v-1.406H85.53v1.406h1.379v1.392h2.782v-1.392zM85.53 243.704h1.379v-1.378H85.53zM84.124 240.934v1.392h1.406v-1.392zM82.731 243.704h1.393v-1.378h-1.393zM84.124 240.934v-1.406h-1.393v1.406zM81.355 245.109h1.376v-1.405h-1.376zM81.355 242.326h1.376v-1.392h-1.376zM82.731 239.528v-1.378h-1.376v1.378zM79.949 242.326v1.378h1.406v-1.378zM81.355 240.934v-1.406h-1.406v1.406zM81.355 236.758h-1.406v1.392h1.406zM78.57 245.109h1.379v-1.405H78.57zM78.57 240.934v1.392h1.379v-1.392zM79.949 239.528v-1.378H78.57v1.378zM77.164 246.487h1.406v-1.378h-1.406zM77.164 243.704h1.406v-1.378h-1.406zM78.57 239.528h-1.406v1.406h1.406zM78.57 238.15v-1.392h-1.406v1.392zM75.788 247.893h1.376v-1.406h-1.376zM75.788 243.704v1.405h1.376v-1.405zM77.164 240.934h-1.376v1.392h1.376zM77.164 238.15h-1.376v1.378h1.376zM77.164 235.366h-1.376v1.392h1.376zM74.395 242.326v1.378h1.393v-1.378zM74.395 239.528v1.406h1.393v-1.406zM74.395 236.758v1.392h1.393v-1.392zM74.392 245.109v-1.405h-1.404v1.405zM74.392 242.326v-1.392h-1.404v1.392zM74.392 239.528v-1.378h-1.404v1.378zM72.988 236.758h1.404v-1.392h-1.404zM71.609 243.704h1.379v-1.378h-1.379zM71.609 240.934h1.379v-1.406h-1.379zM71.609 238.15h1.379v-1.392h-1.379zM72.988 233.974h-1.379v1.392h1.379zM70.22 240.934v1.392h1.389v-1.392zM71.609 238.15H70.22v1.378h1.389zM71.609 235.366H70.22v1.392h1.389zM68.827 252.07v1.377h1.393v-1.377zM68.827 239.528v1.406h1.393v-1.406zM68.827 236.758v1.392h1.393v-1.392zM68.827 233.974v1.392h1.393v-1.392zM68.824 263.178v-1.381h-1.389v1.381zM68.824 260.407v-1.377h-1.389v1.377zM68.824 257.624v-1.393h-1.389v1.393zM68.824 254.838v-1.391h-1.389v1.391zM68.824 252.07v-1.407h-1.389v1.407zM67.435 249.271h1.389v-1.378h-1.389zM68.824 239.528v-1.378h-1.389v1.378zM68.824 236.758v-1.392h-1.389v1.392zM67.435 233.974h1.389v-1.407h-1.389zM66.028 261.797h1.407v-1.39h-1.407zM66.028 259.03h1.407v-1.406h-1.407zM66.028 256.231h1.407v-1.393h-1.407zM66.028 253.447h1.407v-1.377h-1.407zM66.028 250.663h1.407v-1.392h-1.407zM66.028 238.15h1.407v-1.392h-1.407zM66.028 235.366h1.407v-1.392h-1.407zM64.649 261.797v1.381h1.379v-1.381zM66.028 259.03h-1.379v1.377h1.379zM66.028 256.231h-1.379v1.393h1.379zM66.028 253.447h-1.379v1.391h1.379zM66.028 250.663h-1.379v1.407h1.379zM66.028 247.893h1.407v-1.406h-4.176v1.406h1.39v1.378h1.379zM64.649 235.366v1.392h1.379v-1.392zM66.028 233.974v-1.407h-1.379v1.407z"/>
      <path d="M71.609 249.271v-1.378h-2.782v2.77h1.393v1.407h1.389v1.377H70.22v1.391h-1.393v1.393h1.393v1.393h-1.393v1.406h1.393v1.377h-1.393v4.201l-.003-.025h-1.389v-1.405h-1.407v1.405h-1.379v1.391h1.379v11.121h-2.769v1.407h1.39v1.379h-1.39v1.389h1.39v1.41h-1.39v1.375h-1.378v1.391h1.378v1.392h-1.378v1.393h1.378v1.406h-1.378v1.379h1.378v1.393h1.39V284.055h1.379V279.881h1.407v-6.947h2.785v-4.178h1.389v-12.525h1.379v-5.568h1.404v-1.392zM63.259 260.407v1.39h1.39v-1.39zM63.259 257.624v1.406h1.39v-1.406zM63.259 254.838v1.393h1.39v-1.393zM63.259 252.07v1.377h1.39v-1.377zM63.259 249.271v1.392h1.39v-1.392zM63.259 233.974v1.392h1.39v-1.392zM64.649 231.19h-1.39v1.377h1.39z"/>
      <path d="M61.881 282.676h1.378v-1.406h-1.378zM61.881 278.502v1.379h1.378v-1.379zM61.881 245.109h-2.798v1.378h4.176v-1.378zM61.881 232.567v1.407h1.378v-1.407zM60.475 288.231h-1.392v1.406h2.798v-1.406zM60.475 231.19v1.377h1.406v-1.377zM59.083 229.798v1.392h1.392v-1.392zM57.691 243.704h-2.769v1.405h4.161v-1.405zM53.515 242.326h-2.769v1.378h4.176v-1.378zM49.339 240.934h-2.783v1.392h4.19v-1.392zM45.178 239.528H42.38v1.406h4.176v-1.406zM41.002 238.15h-2.784v1.378h4.162v-1.378zM36.826 236.758h-2.784v1.392h4.176v-1.392zM32.65 235.366h-1.392v1.392h2.784v-1.392z"/>
    </g>
    <g fill="#F5F6F7">
      <path d="M91.276 240.934h-1.585v1.392h2.8v-1.392zM86.909 242.326v1.378h2.782v-1.378h-1.392zM84.124 243.704h-1.393v1.405h-2.782v1.378h-2.785v1.406h4.191v-1.406h2.769v-1.378h2.785v-1.405H85.53zM75.788 247.893h-4.179v1.378h5.555v-1.378zM70.22 246.487h-2.785v1.406h4.174v-1.406zM66.028 245.109h-2.769v1.378h4.176v-1.378zM64.649 270.135v2.799h1.379V268.758h-1.379zM64.649 267.368v1.388h1.379v-2.782h-1.379zM63.259 272.934h1.391v1.379h-1.391zM61.881 274.313h1.377v1.406h-1.377zM61.881 243.704h-2.798v1.405h4.176v-1.405zM60.475 275.719h1.406v1.376h-1.406zM61.881 261.797v-9.727h-1.406v11.108h1.406zM59.083 277.095h1.392v1.407h-1.392zM57.691 279.881v2.795h1.392V278.502h-1.392zM57.691 253.447h1.392v1.392h-1.392zM57.691 242.326h-2.769v1.378h4.161v-1.378zM56.299 252.07h1.392v1.377h-1.392zM54.922 271.542v2.771h1.377v-4.178h-1.377zM54.922 250.663h1.377v1.407h-1.377zM53.515 249.271h1.407v1.392h-1.407zM53.515 240.934h-2.769v1.392h4.176v-1.392zM49.339 239.528h-2.783v1.406H50.746v-1.406zM46.556 271.542v1.392h1.405v2.785h1.378v-4.177h-1.378zM47.961 257.624h-1.405v-1.393h1.405v-1.393h-2.783v-2.768h-1.392v4.161h1.392v2.799h1.378v1.377h1.405v1.39h1.378v-2.767h-1.378zM45.178 238.15H42.38v1.378h4.176v-1.378zM45.178 270.135v-9.728h-1.392v9.73h1.392v1.405h1.378v-1.407zM41.002 236.758h-2.784v1.392h4.162v-1.392zM36.826 235.366h-2.784v1.392h4.176v-1.392zM32.65 233.974h-1.392v1.392h2.784v-1.392z"/>
    </g>
    <g fill="#969595">
      <path d="M74.395 245.109h-1.407v1.378h2.8v-1.378zM71.609 243.704v-1.378H70.22v-1.392h-1.393v.011l-.003-.011v-1.406h-1.389v-1.378h-1.407v-1.392h-1.379v-1.392h-1.39v-1.392h-1.378v-1.407h-1.406v-1.377h-1.392v-1.392h-2.784v-2.783h-9.743v1.391h6.959v1.392h1.407v1.392h1.377v1.377h1.392v1.407h1.392v1.392h1.392v1.392h1.406v1.392h1.378v1.378h1.39v1.406h1.379v1.392h1.407v1.378h1.389l.003-.014v1.419h4.161v-1.405z"/>
      <path d="M43.786 228.406H42.38v1.392h4.176v-1.392zM39.61 229.798h-1.392v1.392h4.162v-1.392zM35.42 275.719v2.783h1.406v-4.189H35.42zM35.42 231.19h-1.378v1.377h4.176v-1.377zM34.042 264.583V272.934h1.378V264.583zM34.042 261.797v-5.566H32.65v6.947h1.392zM32.65 253.447v-6.96h-1.392v8.351h1.392zM31.258 232.567v1.407h2.784v-1.407zM29.866 235.366v9.743h1.392v-11.135h-1.392z"/>
    </g>
  </g>
  <g>
    <path d="M41.013 403.959h1.306v1.307h-1.306z"/>
    <path d="M94.559 350.415V347.8h-1.306v-1.305h-1.307v-1.308H80.2v-.001h9.133v-1.307H78.2v1.308h-3.227v1.308h-2.626v1.307h-2.6v1.294H57.986v1.319h-3.92v1.307h-1.307v-.001h-2.613v1.307h-2.613v1.306h-1.294v1.295h-1.306v1.319h-1.32v1.306h-1.294v1.295h-1.306v1.32h-1.307v1.293h-1.307v2.613H37.08v3.92h-1.294v9.133h-1.307v2.627h-1.306v3.907h-1.307v13.065h1.307v3.92h1.306v2.613h1.307v1.307h1.292v.002h.002v1.305h2.624v.002h11.76v-1.307h2.6v-1.309h2.613v-2.688h-4.692v1.895h-2.613v1.309h-8.36v-.516h.002v-1.293h-1.307v1.293h-.002v-1.293h.002v-6.533h-.002v-5.239h.002v5.239h1.307v-5.24h-.002V389.6h.002v1.293h1.306v2.613h1.294v1.308h1.32v1.319h1.306v1.293h2.614v1.307h1.293v1.309h3.92v1.305h2.613v1.32h15.667v-1.32h.001v1.32h5.239v-1.32h3.907v-1.305h-.001v-1.309h.001v1.309H82.8v-1.309h2.613v-1.307h1.306v-1.293h1.307v-1.319h1.307v-1.308h-.001v-2.613h.001v2.613h1.32v-2.613h-.001v-2.613h.001v2.613h1.293v-2.613h-.001v-2.6h.001v2.6h1.307v-3.919H77.586v1.319h-1.321v2.6h-1.293v1.32h-11.76v-1.32h-2.613v-1.293h-1.307v-2.626h-1.306v-2.601h-1.307v-1.307H94.559v-9.146h-1.306v-5.227h-1.307v-1.307h1.307v-2.613h1.306v-3.908h1.307v-7.838h-1.307zm-20.893-1.323h1.307v.002h-1.307v-.002zm-2.613 13.069v1.32h-.001v2.6h2.614v1.32h1.307v-1.32h.001v1.32h-.001v5.213H57.986v-3.92h1.306v-1.293h1.307v-1.32h2.613v-1.307H64.52v-1.293h6.532v-1.32h.001zm-9.134-6.532v-.002h2.601v.002h-2.601zm-2.627 2.625v-.002h1.307v.002h-1.307zm2.627-1.307l-1.32.001v-.001h1.32zm-2.627 2.6v.002h-1.306v-.002h1.306zm-3.907 3.935h-1.319v-.001l1.319.001zm-3.92 3.919v.002h-1.319v-.002h1.319zm-1.32 1.293v.002h-1.292v-.002h1.292zm2.613-2.611h-1.292v-.002h1.292v.002zm-6.519 5.224v1.307-1.307zm6.52-6.533h1.306v.001l-1.306-.001zm3.92-3.906h1.306v.002h-1.306v-.002zm-10.441 18.279l.001 2.613h-.001v-2.613zm9.148-16.986h1.292v.002h-1.292v-.002zm-3.92-9.134h1.293v.001l-1.293-.001zm-1.32 1.306h1.32v.002h-1.32v-.002zm-1.293 1.294h1.293v.002h-1.293v-.002zm-1.32 1.32h1.32v.001l-1.32-.001zm-1.294 2.6h1.294v.002H46.24v2.611h-.001v-2.613zm-6.533 7.854h1.307v-1.32h1.306v-1.307h1.294v1.307h-1.294v1.32h-1.306v1.293h-1.307v-1.293zm-1.309 35.266v-6.531h.002V402.667h-.002zm3.922-13.067l-.001-2.613h.001v2.613zm1.294-2.613h-.002v-2.626h.002v2.626zm1.32-2.626h-.002v-2.601h.002v2.601zm11.745 13.065v-2.612h.001l-.001 2.612zm19.589-23.492l-.001-6.533h.001v6.533zm15.679-17.682v3.908h-1.293v-.613h-1.32v-1.295h-1.307v-1.306H86.72v-.001h-.001v-1.318H85.413v-1.295H82.8v-1.306h-1.307v-1.307h-2.614v-1.306h-2.613v-1.32h1.32v-1.295H80.2v-1.305h-3.933v-.002H80.2v.002H90.653v1.305h1.293v2.615h1.307v5.838h-1.307z"/>
  </g>
  <g>
    <path fill="teal" d="M62.52 352.333v1.294h-1.308v-1.294z"/>
    <path fill="gray" d="M58.599 354.947v1.305h-1.307v-1.305z"/>
    <path fill="teal" d="M58.599 352.333h-1.307v1.294h2.627v-1.294z"/>
    <path fill="gray" d="M57.292 356.252v1.295h-1.306v-1.295zM55.986 357.547v1.321h-1.307v-1.321z"/>
    <path fill="teal" d="M55.986 353.627v1.32h-1.307v-1.32z"/>
    <path fill="gray" d="M54.679 358.868v1.293h-1.293v-1.293zM53.386 360.161v1.32h-1.32v-1.32z"/>
    <path fill="teal" d="M53.386 354.947v1.305h-1.32v-1.305z"/>
    <path fill="gray" d="M52.066 361.481v1.293h-1.307v-1.293z"/>
    <path fill="teal" d="M52.066 356.252v1.295h-1.307v-1.295z"/>
    <path fill="gray" d="M50.759 362.774v1.307h-1.293v-1.307zM49.466 364.081v1.32h-1.32v-1.32z"/>
    <path fill="teal" d="M49.466 357.547v1.321h-1.32v-1.321z"/>
    <path fill="gray" d="M48.146 365.401v1.293h-1.293v-1.293z"/>
    <path fill="teal" d="M46.853 358.868v1.293h-1.32v-1.293zM45.533 360.161v1.32h-1.294v-1.32zM44.239 361.481v1.293h-1.306v-1.293z"/>
    <path fill="gray" d="M40.319 375.827v1.32h-1.306v-1.32z"/>
    <path fill="teal" d="M37.706 379.76v1.307h-1.307v-1.307z"/>
    <g fill="#F5EA14">
      <path d="M58.599 353.627h-2.613v1.32h-2.6v2.6h-2.627v1.321h3.92v-1.321h1.307v-1.295h1.306v-1.305h2.627v-1.32z"/>
      <path d="M48.146 358.868v1.293h-1.293v1.32h-1.32v1.293h-1.294v1.307h-1.306v1.32h-1.32v1.293h-1.294V368h-1.306v1.307h-1.307v1.307h-1.307v5.213h1.307v-1.293h1.307v-3.92h1.306v-1.307h1.294V368h1.32v-1.306h1.306v-1.293h1.294v-1.32h1.32v-1.307h1.293v-1.293h1.32v-1.32h1.293v-1.293z"/>
    </g>
    <path fill="teal" d="M36.399 381.067v1.294H35.08v-1.294zM35.08 400.667v1.292h-1.294v-1.292zM35.08 384.987v1.293h-1.294v-1.293z"/>
    <g fill="#282A73">
      <path d="M91.253 371.934v6.52h1.306v-9.147h-1.306zM91.253 348.415v7.837h1.306v-7.837zM89.946 366.694v2.613h1.307v-5.226h-1.307zM89.946 357.547v2.614h1.307v-3.909h-1.307zM91.253 345.799h-1.307v2.616h1.307zM88.653 387.6v1.293h1.293v-2.613h-1.293zM88.653 382.361H75.586v1.319h14.36v2.6h1.307v-3.919zM88.653 361.481v2.6h1.293v-3.92h-1.293zM88.653 344.495v1.304h1.293v-1.304zM87.333 390.213v1.293h1.32v-2.613h-1.32zM88.653 357.547h-1.32v2.614h1.32zM86.026 392.814h1.307v-1.308h-1.307zM86.026 356.252v1.295h1.307v-1.295zM84.719 394.133h1.307v-1.319h-1.307zM84.719 354.947v1.305h1.307v-1.305zM83.413 395.426h1.306v-1.293h-1.306zM83.413 353.627v1.32h1.306v-1.32zM82.12 352.333H80.8v1.294h2.613v-1.294zM80.8 395.426v1.307h2.613v-1.307zM79.493 398.042H80.8v-1.309h-1.307zM79.493 351.027v1.306H80.8v-1.306zM80.8 344.495h6.533v-1.308H78.2v1.308zM78.2 349.72h-1.321v-1.305h-2.613v-1.321h1.32v-1.295H78.2v-1.304h-3.934v1.304h-1.293v1.295h-1.307v2.626h3.92v1.307h3.907v-1.307zM76.879 398.042h-1.293v1.304h3.907v-1.304zM72.973 399.346h-2.626v1.321h5.239v-1.321zM72.973 365.401v-1.32h-1.307v1.32zM70.347 387.6h-9.135v1.293h9.135zM69.052 364.081h2.614v-1.307h-1.319v-1.293h-1.295zM66.439 399.346v-1.304h-1.306v1.304h-1.32v-1.304H62.52v-1.309h-1.308v1.309h-1.293v-1.309h-1.32v-1.307h-1.307v-1.293h-1.306v-1.319h-1.307v2.612h1.307v1.307h-1.307v-1.307h-1.293v-2.612h-1.32v1.319h-1.307v-1.319h-1.293v-1.308h-1.32v-1.293h-1.293v-1.32h-1.32V387.6h1.32v-1.32h-1.32v-1.293h-1.294v-1.307h1.294v1.307h1.32v-2.626h-2.614v-1.294h1.294v-3.92h-1.294v2.613h-1.306v2.601h-1.32v2.626h-1.294v2.613h-1.306v1.293h1.306v2.613h1.294v1.308h1.32v1.319h1.306v1.293h2.614v1.307h1.293v1.309h3.92v1.304h2.613v1.321h14.373v-1.321zM65.133 361.481h3.919v-1.32H62.52v1.32zM62.52 361.481h-1.308v1.293h1.308zM59.919 386.28h-1.32v1.32h2.613v-1.32zM61.212 364.081v-1.307h-2.613v1.307z"/>
      <path d="M57.292 384.987v-2.626h-1.306v-2.601h-1.307v3.92h1.307v2.6h2.613v-1.293zM58.599 364.081h-1.307v1.32h1.307zM57.292 371.934h16.974v-6.533h-1.293v5.213H55.986v-3.92h-1.307v5.24z"/>
      <path d="M57.292 365.401h-1.306v1.293h1.306zM52.066 392.814v-1.308h-1.307v1.308zM50.759 391.506v-1.293h-1.293v1.293zM49.466 390.213v-1.32h-1.32v1.32zM49.466 387.6v-1.32h-1.32v1.32zM46.853 388.893h1.293V387.6h-1.293zM48.146 386.28v-1.293h-1.293v1.293zM40.319 403.266v-1.307h-1.306v1.307zM39.013 401.959v-1.292h-1.307v1.292zM37.706 390.213v3.92h1.307v-5.24h-1.307zM36.399 395.426v5.241h1.307v-6.534h-1.307zM35.08 403.266v1.307h2.626v-1.307zM33.786 401.959v1.307h1.294v-1.307zM35.08 370.614h1.319v-1.307h1.307v-3.906h1.307v-1.32h1.306v-1.307h2.614v-2.613h1.306v-2.614h1.294v-2.6h1.32v-1.32h1.293v-1.294h1.32v-1.306h1.293v-1.307h-2.613v1.307h-2.613v1.306h-1.294v1.294h-1.306v1.32h-1.32v1.305h-1.294v1.295h-1.306v1.321h-1.307v1.293h-1.307v2.613H35.08v3.92h-1.294v5.24h1.294zM33.786 399.346h-1.307v2.613h1.307z"/>
    </g>
    <path fill="teal" d="M33.786 398.042v1.304h-1.307v-1.304z"/>
    <g fill="#3953A3">
      <path d="M92.559 348.415v7.837h1.307v-7.837zM91.253 357.547v2.614h1.306v-3.909h-1.306zM92.559 345.799h-1.306v2.616h1.306zM89.946 361.481v1.293h1.307v-2.613h-1.307zM89.946 344.495v1.304h1.307v-1.304zM88.653 343.187h-1.32v1.308h2.613v-1.308z"/>
      <path d="M86.026 341.879h-9.147v1.308h-3.906v1.308h-2.626v1.307h-2.6v1.294H55.986v1.319h-3.92v1.307h-1.307v1.307h-1.293v1.307h-1.32v1.295h-1.293v1.318h-1.32v2.602H44.24v2.613h1.293v-1.293h2.613v-1.32h2.613v-1.295h1.307v-1.307h2.613v-1.318h2.613v-1.295h5.228v1.295h-2.601v1.318h-1.32v1.307h-1.307v1.295h-1.307v1.32h-1.307v1.293h-1.293v1.319h-1.32v1.293h-1.307v1.308h-1.293v1.32h-1.32v1.293h-1.293V368h-1.32v1.307h-1.293v1.307h-1.307v1.32h-1.32v2.6h-1.293v2.613h-1.307v1.307h-1.307v2.613h-1.307v1.294h-1.32v3.919h-1.293v3.934h-1.307v7.828h1.307v2.625h1.293v2.602h2.626v1.307h11.76v-1.307h2.6v-1.309h2.613v-1.293h-3.92v1.293h-2.613v1.309h-9.133v-1.309h-1.307v-1.293h-1.307v-6.531h1.307v-5.241h1.307V387.6h1.307v-2.613h1.293v-2.626h1.32v-2.601h1.307v-2.613h1.293v3.92h-1.293v1.294h2.614v2.626h1.293v1.293h1.32v1.32h-1.32v1.293h1.32v1.32h1.293v1.293h1.307v1.308h1.32v2.613h1.293v-2.613h1.307v1.319h1.307v1.294h1.307v1.306h1.32v1.309h1.293v-1.309h1.308v1.309h1.293v1.305h1.32v-1.305h1.306v1.305h2.613v1.32h1.294v-1.32h5.24v-1.305h3.906v-1.309H80.8v-1.306h2.613v-1.294h1.306v-1.319h1.307v-1.308h1.306v-2.613h1.32v-2.613h1.293v-2.6h-15.68v2.6h-1.293v1.32h-2.626v1.293h-9.134V387.6h-2.613v-1.32h-2.613v-2.6h-1.307v-5.227h36.574v-9.146h-1.307v-5.227h-1.293v-3.92h-1.32v-2.613h-1.306v-1.295H84.72v-1.307h-1.306v-1.318H80.8v-1.295h-1.307v-1.307h-3.906v-1.307h-3.921v-2.627h1.308v-1.293h1.293v-1.307H78.2v-1.307h9.133v-1.307h-1.307v.002zm-30.04 24.815v-1.293h1.307v-1.32H58.6v-1.307h2.613v-1.293h1.308v-1.32h6.532v1.32h1.294v1.293h1.319v1.307h1.308v1.32h1.293v6.533H54.679v-5.24h1.307z"/>
      <path d="M55.986 396.733v-1.307h-1.307v1.307zM50.759 394.133h1.307v-1.319h-1.307zM49.466 391.506v1.308h1.293v-1.308zM48.146 390.213v1.293h1.32v-1.293zM46.853 388.893v1.32h1.293v-1.32zM48.146 386.28h-1.293v1.32h1.293zM45.533 387.6v1.293h1.32V387.6zM45.533 384.987v1.293h1.32v-1.293zM44.239 383.68v1.307h1.294v-1.307zM42.933 361.481h1.306v-1.32h-1.306z"/>
    </g>
    <path fill="teal" d="M33.786 388.893v1.32h-1.307v-1.32z"/>
    <g fill="#BFBFBF">
      <path d="M59.919 352.333v1.294h1.293v-1.294zM52.066 357.547h1.32v-1.295h-1.32zM50.759 358.868v1.293h-1.293v1.32h-1.32v1.293h-1.293v1.307h-1.32v1.32h-1.294v1.293h-1.306V368h-1.32v1.307h-1.294v1.307h-1.306v3.92h1.306v-2.6h1.294v-1.32h1.32v-1.307h1.306V368h1.294v-1.306h1.32v-1.293h1.293v-1.32h1.32v-1.307h1.293v-1.293h1.307v-1.32h1.32v-1.293z"/>
      <path d="M49.466 357.547v1.321h1.293v-1.321zM48.146 358.868h-1.293v1.293h1.293zM46.853 360.161h-1.32v1.32h1.32zM45.533 361.481h-1.294v1.293h1.294zM44.239 362.774h-1.306v1.307h1.306zM42.933 364.081h-1.32v1.32h1.32zM41.613 365.401h-1.294v1.293h1.294zM40.319 366.694h-1.306V368h1.306zM36.399 378.454h1.307v-1.307h-1.307zM35.08 379.76h1.319v-1.306H35.08zM36.399 375.827H35.08v1.32h1.319zM36.399 373.227v-1.293H35.08v2.6h1.319zM33.786 381.067h1.294v-1.307h-1.294zM35.08 377.147h-1.294v1.307h1.294zM32.479 382.361h1.307v-1.294h-1.307zM32.479 378.454v1.306h1.307v-1.306z"/>
    </g>
    <g fill="#7F8033">
      <path d="M45.533 366.694V368h1.32v-1.306zM44.239 369.307h1.294V368h-1.294zM42.933 370.614h1.306v-1.307h-1.306zM41.613 371.934h1.32v-1.32h-1.32zM42.933 362.774h-1.32v1.307h1.32zM40.319 373.227v1.307h1.294v-2.6h-1.294zM41.613 364.081h-1.294v1.32h1.294zM40.319 365.401h-1.306v1.293h1.306zM37.706 374.534v1.293h-1.307v1.32h1.307v1.307h1.307v-2.627h1.306v-1.293zM39.013 368v-1.306h-1.307v2.613h1.307zM36.399 379.76h1.307v-1.306h-1.307zM37.706 369.307h-1.307v1.307h1.307zM35.08 381.067h1.319v-1.307H35.08zM35.08 378.454h1.319v-1.307H35.08zM36.399 370.614H35.08v1.32h1.319zM33.786 382.361h-1.307v-1.294h1.307v-1.307h-1.307v-1.306h-1.306v3.907h-1.307v13.065h1.307v3.92h1.306v-10.453h1.307v-3.906h1.294v-3.92h-1.294zM33.786 379.76h1.294v-1.306h-1.294z"/>
      <path d="M33.786 377.147h1.294v-1.32h1.319v-1.293H35.08v-2.6h-1.294v3.893h-1.307v2.627h1.307z"/>
    </g>
  </g>
</svg>
