<svg xmlns="http://www.w3.org/2000/svg" width="1920" height="489.7"><defs><path id="a" d="M1096.529 224.828h105.709v83.62h-105.709z"/></defs><path fill="#AD1F2C" d="M796.091 126.666h250.293v3.25H796.091v-3.25z"/><path fill="#BBDB92" d="M1046.384 126.666h242.833v3.25h-242.833v-3.25z"/><path fill="#53BA65" d="M1289.217 126.666h320.836v3.25h-320.836v-3.25z"/><path fill="#263E8D" d="M1610.053 126.666H1920v3.25h-309.947v-3.25z"/><g fill="#fff"><path d="M796.532 212.904v-74.677h28.886c12.546 0 21.938 3.722 28.175 11.161 6.236 7.44 9.354 16.048 9.354 25.822 0 11.16-3.35 20.233-10.039 27.217-6.692 6.985-15.382 10.477-26.067 10.477zm22.923-17.177h5.963c3.793 0 6.993-1.841 9.602-5.523 2.606-3.684 3.911-8.698 3.911-15.044 0-5.436-1.155-10.121-3.474-14.062-2.316-3.939-5.662-5.908-10.039-5.908h-5.963zm73.997 18.327c-9.229 0-16.562-2.872-21.992-8.616-5.435-5.743-8.151-12.48-8.151-20.215 0-8.313 2.836-15.244 8.51-20.789 5.671-5.543 13.048-8.313 22.129-8.313 9.151 0 16.513 2.733 22.072 8.205 5.563 5.472 8.346 12.328 8.346 20.569 0 8.315-2.817 15.257-8.452 20.816-5.639 5.562-13.125 8.343-22.462 8.343zm.328-13.24c3.393 0 5.462-1.759 6.21-5.277.747-3.521 1.121-7.194 1.121-11.023 0-5.215-.529-8.972-1.586-11.271-1.062-2.297-2.955-3.445-5.69-3.445-2.517 0-4.358 1.186-5.525 3.557-1.167 2.37-1.75 6.272-1.75 11.707 0 6.384.604 10.604 1.808 12.664 1.2 2.059 3.006 3.088 5.412 3.088z"/><path d="M954.428 214.054c-9.227 0-16.558-2.872-21.992-8.616-5.435-5.743-8.148-12.48-8.148-20.215 0-8.313 2.835-15.244 8.507-20.789 5.671-5.543 13.048-8.313 22.128-8.313 9.154 0 16.514 2.733 22.076 8.205 5.561 5.472 8.342 12.328 8.342 20.569 0 8.315-2.814 15.257-8.451 20.816-5.638 5.562-13.124 8.343-22.462 8.343zm.328-13.24c3.396 0 5.463-1.759 6.211-5.277.746-3.521 1.121-7.194 1.121-11.023 0-5.215-.529-8.972-1.586-11.271-1.059-2.297-2.955-3.445-5.691-3.445-2.516 0-4.354 1.186-5.521 3.557-1.167 2.37-1.75 6.272-1.75 11.707 0 6.384.603 10.604 1.805 12.664 1.2 2.059 3.005 3.088 5.411 3.088zm54.36 12.09h-20.897v-55.638h18.161v11.488c2.08-8.352 6.912-12.527 14.498-12.527.769 0 1.822.072 3.175.22v19.421c-1.531-.364-2.897-.548-4.104-.548-7.225 0-10.832 4.03-10.832 12.091z"/><path d="M1020.854 197.151l17.234-2.354c.984 4.014 4.887 6.018 11.707 6.018 5.652 0 8.479-1.094 8.479-3.28 0-.948-.548-1.688-1.644-2.217-1.094-.527-3.684-1.066-7.768-1.614-11.309-1.568-18.365-4.021-21.172-7.358-2.812-3.337-4.213-7.048-4.213-11.133 0-5.689 2.369-10.293 7.107-13.813 4.74-3.521 10.959-5.278 18.656-5.278 13.494 0 22.104 4.869 25.822 14.606l-16.523 3.117c-1.529-3.283-4.758-4.924-9.682-4.924-2.336 0-4.076.32-5.229.958-1.146.639-1.725 1.269-1.725 1.887 0 1.824 1.752 2.936 5.254 3.33 9.119 1.009 15.301 2.043 18.547 3.102 3.244 1.06 6.019 2.993 8.314 5.804 2.297 2.812 3.443 6.205 3.443 10.183 0 6.097-2.546 10.933-7.633 14.508-5.088 3.577-12.102 5.365-21.033 5.365-15.048-.004-24.367-5.638-27.941-16.907z"/></g><path fill="#fff" d="M1161.279 26.743c-4.566 30.32-9.133 60.642-13.702 90.963-.015.101-.071.196-.11.293-.097-.067-.188-.136-.289-.2-1.468-.984-2.905-2.01-4.405-2.941-1.507-.936-3.033-1.84-4.61-2.645-1.479-.754-3.021-1.383-4.563-2.021-.815-.341-1.678-.591-2.521-.867-.818-.271-1.637-.543-2.465-.778-1.017-.291-2.051-.521-3.063-.819-1.419-.419-2.837-.843-4.229-1.329-1.255-.438-2.509-.9-3.71-1.464a47.744 47.744 0 01-4.203-2.211c-1.378-.817-2.688-1.755-4.018-2.65-1.513-1.016-2.996-2.064-4.522-3.055a84.78 84.78 0 00-3.854-2.347c-.777-.445-1.604-.805-2.418-1.182a15.788 15.788 0 00-1.599-.663 88.867 88.867 0 00-5.665-1.686c-.505-.136-1.019-.238-1.521-.377a74.536 74.536 0 01-2.309-.664c-.643-.2-1.271-.433-1.906-.65 3.93-26.086 7.854-52.171 11.785-78.258 1.442.149 2.893.305 4.338.444.479.046.959.059 1.438.077.756.029 1.516.026 2.271.083.745.056 1.486.169 2.231.252.046.005.099-.029.146-.045.627.095 1.258.188 1.887.284.031.026.059.071.093.079.497.103.997.19 1.492.301.521.118 1.055.226 1.563.392.889.288 1.766.604 2.639.933.769.289 1.532.588 2.282.923 1.063.474 2.104.985 3.156 1.477.813.378 1.625.757 2.446 1.119.616.272 1.246.521 1.871.774.42.171.838.347 1.264.5.544.195 1.092.39 1.646.552.632.187 1.271.342 1.914.504.305.078.609.143.92.207.748.156 1.498.321 2.25.456.398.072.813.083 1.222.136.61.08 1.22.196 1.832.254.682.065 1.366.073 2.047.123.994.072 1.987.159 2.981.24l1.123.096c1.063.095 2.136.169 3.197.292.604.07 1.203.215 1.807.329.521.1 1.049.176 1.563.31 1.125.29 2.25.581 3.358.922 1.063.327 2.108.697 3.146 1.088.858.325 1.695.707 2.543 1.066 1.075.458 2.153.921 3.231 1.383zm-21.299 43.808l6.008-39.884c-.151-.007-.286 0-.416-.021-1.096-.181-2.188-.386-3.284-.546-.586-.086-1.187-.089-1.774-.146-.985-.096-1.978-.204-2.965-.307-.465-.048-.929-.093-1.393-.139-.75-.073-1.502-.13-2.25-.223-.743-.092-1.482-.22-2.227-.331-1.933 12.826-3.865 25.683-5.806 38.542.416.118.828.256 1.251.353 1.029.235 2.063.469 3.098.67 1.469.285 2.938.537 4.407.812.708.132 1.413.284 2.119.424.359.071.726.119 1.079.208.717.183 1.424.388 2.153.588zm-25.948-8.476c.03-.146.048-.21.058-.277.572-3.644 1.165-7.283 1.711-10.931 1.017-6.771 1.997-13.545 2.997-20.318.255-1.729.521-3.459.779-5.188.036-.235.144-.508.063-.698-.064-.158-.357-.222-.554-.327-.066-.038-.133-.083-.203-.116-1.123-.525-2.243-1.058-3.376-1.573a29.517 29.517 0 00-1.687-.706 47.36 47.36 0 00-2.191-.791c-.604-.195-1.229-.34-1.841-.509-.313-.086-.619-.194-.937-.257-.455-.088-.916-.143-1.354-.209l-5.467 36.299c4.349 1.081 8.173 3.288 12.002 5.601zm24.212 20.058c-.332-.094-.661-.188-.991-.278-1.155-.313-2.304-.646-3.466-.927-1.119-.271-2.253-.479-3.38-.725a282.64 282.64 0 01-3.813-.852c-.778-.182-1.559-.394-2.389-.604-1.016 6.736-2.031 13.486-3.05 20.245.644.215 1.301.461 1.972.654 1.188.341 2.377.651 3.566.972 1.537.413 3.076.819 4.613 1.234.563.153 1.129.304 1.684.486.701.231 1.395.495 2.098.749 1.054-6.983 2.101-13.945 3.156-20.954zm-40.66 3.963c4.322 1.438 8.098 3.936 11.877 6.563.992-6.591 1.979-13.13 2.979-19.756-1.881-1.082-3.806-2.205-5.741-3.303-1.958-1.106-4.035-1.93-6.238-2.575-.96 6.342-1.913 12.671-2.877 19.071zm50.674-5.732c.012-.19.051-.386.027-.571a4.479 4.479 0 00-.67-1.901c-.899-1.417-2.092-2.376-3.822-2.486-.652-.042-1.27.148-1.729.646-.539.588-.688 1.281-.539 2.074.172.917.649 1.644 1.289 2.274.931.923 2.021 1.53 3.368 1.613 1.065.068 2.024-.599 2.076-1.649zm-55.367-51.054l-6.676-1.005 2.75-18.262 6.676 1.005zm-2.924 19.603l-6.674-1.005 2.75-18.261 6.674 1.006zm-3.055 20.285l-6.674-1.005 2.75-18.261 6.674 1.005zm-2.95 19.58l-6.674-1.006 2.75-18.261 6.674 1.005zm.744-65.354l-4.944-.745 2.487-16.518 4.944.745zm-2.668 17.711l-4.944-.744 2.487-16.517 4.944.745zm-2.763 18.327l-4.943-.745 2.489-16.517 4.94.745zm-2.67 17.734l-4.944-.745 2.487-16.518 4.941.744zm.898-59.384l-3.297-.496 2.183-14.483 3.297.496zm-2.34 15.53l-3.296-.497 2.181-14.482 3.298.496zm-2.424 16.09l-3.298-.497 2.182-14.483 3.297.497zm-2.341 15.532l-3.299-.497 2.183-14.484 3.297.496zm2.263-52.973l-1.564-.236L1072.865 0l1.563.235zm-1.896 12.601l-1.564-.236 1.771-11.755 1.565.236zm-1.969 13.055l-1.563-.235 1.77-11.754 1.566.235zm-1.898 12.604l-1.566-.236 1.771-11.755 1.565.236zm-263.184 73.185h-5.34V87.247l-12.132 36.188h-5.05L769.06 87.247v36.188h-5.34V80.891h8.445l11.521 35.465 11.58-35.465h8.445v42.545zm28.296-3.163c-2.786 2.593-6.376 3.89-10.768 3.89-3.06 0-5.572-.828-7.545-2.482-1.977-1.653-2.961-3.787-2.961-6.397 0-7.197 6.201-10.796 18.604-10.796h2.67c0-2.205-.116-3.807-.349-4.804-.232-.996-.881-1.822-1.944-2.48-1.063-.657-2.757-.986-5.079-.986-4.875 0-7.391 1.741-7.545 5.224h-5.456c.406-6.326 4.836-9.489 13.291-9.489 3.947 0 7.023.782 9.229 2.351 2.205 1.567 3.309 4.645 3.309 9.229v19.906h-5.456zm0-4.933v-6.82h-3.744c-7.933 0-11.896 2.156-11.896 6.472 0 1.567.58 2.771 1.741 3.612 1.158.843 2.728 1.265 4.699 1.265 1.802 0 3.541-.406 5.226-1.222 1.681-.813 3.006-1.915 3.974-3.307zm26.032 8.822c-4.372 0-7.869-1.408-10.491-4.224-2.622-2.815-3.933-6.776-3.933-11.885 0-5.126 1.311-9.093 3.933-11.897 2.622-2.806 6.119-4.208 10.491-4.208 3.367 0 6.177.852 8.432 2.554 2.253 1.703 3.584 4.16 3.99 7.372h-5.631c-.077-1.838-.769-3.241-2.074-4.209-1.307-.967-2.879-1.45-4.717-1.45-2.611 0-4.729.991-6.354 2.975s-2.438 4.938-2.438 8.865c0 3.908.813 6.854 2.438 8.838 1.625 1.982 3.741 2.976 6.354 2.976 1.838 0 3.41-.484 4.717-1.451 1.309-.969 1.997-2.361 2.074-4.18h5.631c-.406 3.211-1.737 5.67-3.99 7.37-2.255 1.703-5.065 2.554-8.432 2.554zm33.229-26.525c-.773-.231-1.889-.349-3.34-.349-2.783 0-5.176 1.461-7.169 4.383v21.765h-5.481V92.645h5.481v4.296c2.306-3.327 4.976-4.991 8.014-4.991.771 0 1.604.077 2.495.231zm16.282-5.689c4.396 0 7.898 1.402 10.521 4.208 2.622 2.806 3.933 6.771 3.933 11.897 0 5.107-1.311 9.068-3.933 11.885-2.622 2.814-6.128 4.224-10.521 4.224-4.372 0-7.869-1.408-10.491-4.224-2.622-2.816-3.933-6.776-3.933-11.885 0-5.126 1.311-9.093 3.933-11.897 2.622-2.804 6.119-4.208 10.491-4.208zm0 27.919c2.612 0 4.73-.992 6.356-2.976 1.625-1.983 2.438-4.93 2.438-8.838 0-3.927-.813-6.882-2.438-8.865-1.626-1.982-3.744-2.975-6.356-2.975-2.608 0-4.729.991-6.354 2.975s-2.438 4.938-2.438 8.865c0 3.908.813 6.854 2.438 8.838 1.623 1.984 3.742 2.976 6.354 2.976zm26.061-23.304c2.729-3.075 5.795-4.613 9.2-4.613 6.941 0 10.418 3.782 10.418 11.348v20.14h-5.484V103.53c0-2.517-.45-4.324-1.35-5.429-.899-1.103-2.375-1.653-4.429-1.653-2.784 0-5.569 1.646-8.355 4.934v22.056h-5.484V80.891h5.484zm47.074 23.71c-2.784 2.593-6.375 3.89-10.768 3.89-3.058 0-5.572-.828-7.546-2.482-1.974-1.653-2.96-3.787-2.96-6.397 0-7.197 6.2-10.796 18.604-10.796h2.67c0-2.205-.113-3.807-.349-4.804-.231-.996-.881-1.822-1.944-2.48-1.063-.657-2.758-.986-5.075-.986-4.88 0-7.396 1.741-7.55 5.224h-5.455c.406-6.326 4.839-9.489 13.291-9.489 3.947 0 7.023.782 9.229 2.351 2.206 1.567 3.31 4.645 3.31 9.229v19.906h-5.457zm0-4.933v-6.82h-3.74c-7.938 0-11.899 2.156-11.899 6.472 0 1.567.58 2.771 1.741 3.612 1.161.843 2.729 1.265 4.702 1.265 1.799 0 3.54-.406 5.224-1.222 1.68-.813 3.005-1.915 3.972-3.307zm29.542-17.703c-.772-.231-1.888-.349-3.339-.349-2.784 0-5.177 1.461-7.17 4.383v21.765h-5.48V92.645h5.48v4.296c2.306-3.327 4.977-4.991 8.015-4.991.771 0 1.604.077 2.494.231zm23.306 22.113c-2.438 2.94-5.369 4.412-8.793 4.412-4.024 0-7.14-1.433-9.347-4.295-2.205-2.863-3.312-6.726-3.312-11.58 0-5.03 1.233-9.011 3.701-11.942 2.467-2.931 5.563-4.396 9.301-4.396 3.328 0 6.146 1.024 8.445 3.075V80.891h5.456v42.545h-5.456zm0-5.166V99.958c-2.36-2.496-5.063-3.743-8.097-3.743-2.345 0-4.216 1.011-5.616 3.032-1.402 2.021-2.104 5.035-2.104 9.04 0 3.791.662 6.67 1.987 8.633 1.325 1.965 3.159 2.947 5.5 2.947 3.058 0 5.834-1.762 8.33-5.283z"/><path d="M94.556 53.875h-1.301v-10.44h.002v-1.31h-3.922V6.855H48.846v1.311h-1.31v1.299h-1.29v1.31h-1.32v1.3h1.32v.001h-2.63v35.259h-1.301v1.321h-1.31v7.819h-1.299v1.32h-1.31v6.531h-.001v-5.22h-1.31v1.3h-1.299v1.309h-1.31v1.3h-1.3v1.311h-1.31v5.219h41.8v1.311h13.06v-1.311h3.92v-1.299h1.3v-1.311h1.309v-1.3h1.301v-2.62h1.311v-9.14h-1.311zm-50.941 5.231l.001 1.3v1.309h-.001v-2.609zm26.132-5.231h-.003v-1.3h13.061v.001H69.747v1.299zm-2.611 7.841v2.61h-.001v-2.611l.001.001zm11.75-44.41v22.21h-.001v-23.52h.001v1.31zm-26.13-.001v5.22h-.001v-3.92l.001-1.3-1.3.001v-.001h1.3zm28.732-1.31v26.13h-.003v-27.43h.003v1.3zM55.385 59.106h.001v1.3h-.001v-1.3zm3.9 1.3v-1.3h.001l-.001 1.3.001 1.309h-.001v-1.309zm28.74-11.751v.001h-1.299v-.001h1.299zm-40.489 3.92h1.31v.001l-1.31-.001-1.29.001h-1.32v-.001h2.61zm7.849 10.44h.001v1.311h-.001v-1.311zm20.889-5.22l.001 1.311h-.001v-1.311zm2.611-2.61h.001v1.29h-.001v-1.29zm-7.831 0v-1.31h.002v1.31h-.002zm19.592-10.449v1.309h-.001l.001-1.309zm0 19.59l-.001-1.311h.001v1.311z"/><path fill="#6FCBDC" d="M49.456 15.306v5.219h1.299v-5.219z"/><path fill="#282A73" d="M76.886 12.695v24.821h-28.74v1.289h30.05v-26.11z"/><path fill="#3953A3" d="M75.585 13.996H48.143v23.52h28.742v-23.52h-1.3zm-26.129 5.239v-3.93h1.3v5.22h-1.3v-1.29z"/><path fill="#0B8040" d="M45.536 50.576v1.299h-2.61v1.31h3.92v-2.609z"/><path fill="#69BC45" d="M44.246 50.576h-1.32v1.299h2.61v-1.299z"/><path d="M86.025 40.125h1.311v1.31h-1.311zm-1.299 1.31h1.3v1.301h-1.3zm-1.31 1.301h1.31v1.31h-1.31zm-2.61 1.309h-39.19v1.29h41.8v-1.29h-1.299zm-3.92 7.83h-7.83v1.31h7.83v1.29h2.599v-2.6h-1.289zm-9.139 5.231h1.31v1.3h-1.31zm-1.301 1.3h1.301v1.31h-1.301zm-1.31 1.309h1.31v1.3h-1.31zm-1.321 1.3h1.32v1.311h-1.32zm-1.29-3.909h1.29v1.3h-1.29zm-1.319 1.3h1.32v1.31h-1.32zm-1.29 1.309h1.29v1.3h-1.29zm-1.32 1.3h1.32v1.311h-1.32zm-1.31-3.909h1.31v1.3h-1.31zm-1.301 1.3h1.3v1.31h-1.3z"/><path d="M54.676 59.715h1.31v1.3h-1.31zm-1.29 1.3h1.29v1.311h-1.29zm-1.321-3.909h1.32v1.3h-1.32zm-1.31 1.3h1.31v1.31h-1.31z"/><path d="M49.456 59.715h1.3v1.3h-1.3zm-1.31 1.3h1.31v1.311h-1.31zm-1.3-3.909h1.3v1.3h-1.3zm1.3-19.59v-23.52h28.74v-1.301h-30.04v26.11h1.3zm-2.61 20.89h1.31v1.31h-1.31zm-1.29 1.309h1.29v1.3h-1.29zm-1.32 1.3h1.32v1.311h-1.32zm-1.31-3.909h1.31v1.3h-1.31zm-1.301 1.3h1.3v1.31h-1.3z"/><path d="M39.005 59.715h1.31v1.3h-1.31zm-1.299 1.3h1.3v1.311h-1.3z"/><g fill="#FFF"><path d="M89.946 54.475h-2.611v1.32h-1.31v1.311h5.23v-2.631zm-2.611 3.931h-13.06v1.309h-1.299v2.611h-1.31v1.309h1.31v1.3h10.44v-1.3h2.609v-1.309h1.31v-1.311h1.311v-1.3h1.3v-1.309h-1.3zm-5.218-3.931h-2.632v1.32h-2.599v1.311h6.53v-1.311h1.31v-1.32h-1.31zm-3.921-40.479v24.809h-31.35v1.32h32.639v-27.43h-1.289zm-5.22 43.11h-3.92v1.3h-1.309v1.309h-1.301v1.3h-1.31v1.311h5.21v-1.311h1.32v-1.3h1.31v-1.309zm-6.53 6.529h-33.97v-1.309h-1.3v3.92h1.3v-1.311h36.58v-1.3h-1.309zm-3.921-1.309v-1.311h1.29v-1.3h1.321v-1.309h1.31v-1.3h-2.631v1.3h-1.29v1.309h-1.319v1.3h-1.29v1.311h1.29zm-5.239 0v-1.311h1.31v-1.3h1.32v-1.309h1.29v-1.3h-2.61v1.3h-1.31v1.309h-1.301v1.3h-1.309v1.311h1.309zm-5.221 0v-1.311h1.321v-1.3h1.29v-1.309h1.309v-1.3h-2.599v1.3h-1.321v1.309h-1.31v1.3h-1.299v1.311h1.299zm-5.219 0v-1.311h1.3v-1.3h1.31v-1.309h1.299v-1.3h-2.609v1.3h-1.3v1.309h-1.31v1.3h-1.29v1.311h1.29zm0-52.25h35.271V8.775H44.246v1.301h1.29zm-2.6 48.33h1.29v-1.3h-2.61v1.3h-1.31v1.309h-1.301v1.3h-1.31v1.311h2.611v-1.311h1.31v-1.3h1.32zm0-16.971V10.076h-1.32v32.66h1.32zm-2.63 11.75v-5.22h43.11v-1.309H40.315v7.819h1.301zm-2.611 3.921h1.31v1.3h-1.31z"/><path d="M39.005 54.475h1.31v1.32h-1.31zm-1.299 3.931h1.3v1.31h-1.3zm0-2.611h1.3v1.311h-1.3zm-1.31 3.92h1.31v1.3h-1.31zm0-2.609h1.31v1.3h-1.31zm-1.311 3.909h1.31v1.311h-1.31zm0-2.609h1.31v1.31h-1.31z"/><path d="M33.786 59.715h1.3v1.3h-1.3zm-1.31 1.3h1.31v1.311h-1.31z"/></g><g fill="#BFBFBF"><path d="M91.255 54.475v2.631h1.301v-2.631zm-1.309 3.931v1.309h1.309v-2.609h-1.309zm0-18.281h1.311v1.31h-1.311zm-1.3 19.59h1.3v1.3h-1.3zm0-18.28h1.3v1.301h-1.3zm-1.311 19.58h1.31v1.311h-1.31zm0-18.279h1.31v1.31h-1.31zm-1.31 19.59h1.311v1.31h-1.311z"/><path d="M86.025 44.045h1.311v1.29h-1.311zm-1.299 10.43v1.32h-1.31v1.311h2.609v-1.311h1.31v-1.32h-1.31zm0-9.14h1.3v1.32h-1.3zm-1.31 18.3v1.3h2.609v-1.3h-1.299zm1.31-11.76v-3.911H41.613v6.511h-1.3v1.32h-1.31v1.311h35.271v-1.311h1.311v-1.32h1.3v-1.29h-7.831v-1.31h-1.31v-1.3h13.061v1.3h3.921zm-41.8 0v-1.3h3.92v2.61h-3.92v-1.31zm36.559 13.06h-5.21v1.311h7.842v-1.311h-1.311zm-7.819-1.3h1.31v1.3h-1.31zm0-2.62h1.31v1.311h-1.31zm-5.22 3.92h-33.97v1.311h36.58v-1.311h-1.309zm-18.3-56.16h35.27v-1.31h1.31V6.166h-37.88v1.299h-1.31v1.31h1.31zm-1.3 33.961h35.273V10.075H44.246v32.661h2.6zm0-3.931v-26.11h32.642v27.43H46.846v-1.32zm-9.14 18.301h1.3v1.3h-1.3z"/><path d="M37.706 54.475h1.3v1.32h-1.3zm-1.31 3.931h1.31v1.31h-1.31zm0-2.611h1.31v1.311h-1.31zm-1.311 3.92h1.31v1.3h-1.31zm0-2.609h1.31v1.3h-1.31zm-1.299 5.22h-1.31v1.309h36.58v-1.309H35.085v-1.311h-1.299z"/><path d="M33.786 58.406h1.3v1.31h-1.3zm-1.31 1.309h1.31v1.3h-1.31zm-1.3 1.3h1.3v1.311h-1.3z"/></g><g fill="gray"><path d="M92.556 51.875h-1.301v-10.44h-1.309v1.301h-1.3v1.309h-1.311v1.29h-1.31v1.321h-1.299v5.219h-3.92v-1.299H67.747v1.299h11.738v2.6h13.071v2.631h-1.301v2.609h-1.309v1.3h-1.3v1.311h-1.311v1.309h-1.31v1.3h-3.908v1.311h-7.842v-1.311h-2.609v-3.92h-1.32v1.311h-1.29v3.92h-37.88v-3.92h-1.31v5.219h41.8v1.311h13.06v-1.311h3.92v-1.299h1.3v-1.311h1.309v-1.3h1.301v-2.62h1.311v-9.14z"/><path d="M86.025 45.335v-1.29h1.31v-1.309h1.311v-1.301h1.3v-1.31h-2.611v1.31h-1.31v1.301h-1.299v1.309h-1.31v1.29H40.315v1.321h44.411v-1.321z"/><path d="M84.726 42.736v-1.301h1.299v-1.31h1.31V4.855H46.846v1.311h37.88v1.299h-1.31v1.31h-1.299v33.961H42.926v-32.66h-1.31v33.969h41.8v-1.309zm-10.451 15.67h15.671v-1.3h-13.06v-1.311h2.599v-1.32h-3.9v1.32h-1.31v1.311h-1.299v2.609h1.299zm-2.609 1.309h1.31v1.3h-1.31zm-5.22-2.609h1.301v1.3h-1.301zm-1.31 1.3h1.31v1.31h-1.31zm-1.321 1.309h1.32v1.3h-1.32zm-1.29 1.3h1.29v1.311h-1.29zm-1.319-3.909h1.32v1.3h-1.32zm-1.29 1.3h1.29v1.31h-1.29zm-1.32 1.309h1.32v1.3h-1.32zm-1.31 1.3h1.31v1.311h-1.31zm-1.301-3.909h1.3v1.3h-1.3zm-1.309 1.3h1.31v1.31h-1.31zm-1.29 1.309h1.29v1.3h-1.29zm-1.321 1.3h1.32v1.311h-1.32zm-1.31-3.909h1.31v1.3h-1.31zm-1.299 1.3h1.3v1.31h-1.3zm-1.31 1.309h1.31v1.3h-1.31zm-1.3 1.3h1.3v1.311h-1.3zm-1.31-3.909h1.31v1.3h-1.31z"/><path d="M45.536 6.166h1.31v1.3h-1.31zm-1.29 52.24h1.29v1.31h-1.29zm0-50.941h1.29v1.31h-1.29zm-1.32 52.25h1.32v1.3h-1.32zm0-50.94h1.32v1.3h-1.32zm-1.31 52.24h1.31v1.311h-1.31zm-1.301-3.909h1.3v1.3h-1.3zm-1.31 1.3h1.31v1.31h-1.31zm0-10.441v6.51h1.31v-7.819h-1.31z"/><path d="M37.706 59.715h1.3v1.3h-1.3zm-1.31 1.3h1.31v1.311h-1.31z"/></g><path d="M94.559 166.646h-2.613v-26.121h-22.2v-20.893H41.012v1.307h-1.306v1.307h-1.307v1.306h-1.32v1.294h-1.293v23.519h-2.613v1.322h-1.307v11.746h7.84v11.745h-7.84v3.922h6.533v1.319h6.533V177.1h9.134v5.226h37.88v-1.307h1.307v-1.307h1.306v-1.293h1.307v-11.773h-1.307zm-31.347 11.773l-3.92.001v-.001h3.92zm-22.2-20.907l-3.933.001v-.001h3.933zm23.508-5.225v-.002h1.293v.002H64.52zm0 14.359h22.199v.001h-24.8v-.001h2.601zm-5.228-24.813h-18.28v-.001h20.907v.001h-2.627zm-5.226 31.345H43.613v-11.745h14.373v9.132h-2.6v1.32h-1.32v1.293zm36.587 7.841H56.679v-.001l33.974.001z"/><path fill="teal" d="M80.8 147.687H61.212v14.347H82.12v-14.347H80.8zm-18.28 5.211v-2.613h1.293v3.92H62.52v-1.307z"/><path d="M62.52 150.287v3.92h1.293v-3.92zm-22.201-20.908v2.626h1.294v-3.92h-1.294z" fill="#6FCBDC"/><path fill="#F5EA14" d="M40.319 172.485h-1.307v3.934h2.601v-3.934z"/><path d="M59.919 126.778v13.055h1.293v-13.055zm-2.627 13.055h-18.28v1.319h20.907v-1.319z" fill="#282A73"/><path fill="#3953A3" d="M58.599 126.778H39.012v13.054h20.907v-13.054h-1.32zm-18.28 3.92v-2.613h1.293v3.92h-1.293v-1.307z"/><path fill="#7F8033" d="M41.613 171.178h-5.214v5.241h1.307v-3.934h3.907v3.934h1.319v-5.241z"/><path d="M59.919 175.1h-2.627v1.319h3.92V175.1zm-23.52-20.893h-1.32v1.305h3.933v-1.305z" fill="#0B8040"/><path d="M59.919 173.792h-2.627v1.308h3.92v-1.308zm-23.52-20.894h-1.32v1.309h3.933v-1.309z" fill="#69BC45"/><path d="M88.653 164.646v1.32h1.293v-1.32zm-1.321 2.613h1.321v-1.293h-1.321zm-2.613 0H55.986v1.306h31.346v-1.306zm-1.306 6.533H71.665v1.308h14.361v-1.308zm-23.494-27.427v15.667h1.293v-14.345H82.12v-1.322zm-3.933 6.533h-5.227v1.309h5.227zm-3.92-6.533h3.92v-1.305h-22.2v1.305zm-13.054-6.532v-13.055h22.2v-1.305H37.706v15.679h1.306z"/><g fill="#BFBFBF"><path d="M91.253 165.966v1.293h1.306v-1.293zm-1.307 2.599h1.307v-1.306h-1.307zm-1.293 1.32h1.293v-1.32h-1.293zm-2.627 1.293H54.679v7.84h33.974v-7.84h-2.627zm-13.053 1.307h13.053v2.613H82.12v1.32H80.8v-1.32h-9.134v-2.613h1.307zM57.292 175.1v-1.307h3.92v2.627h-3.92v-1.32zm6.521-35.267h-2.601v1.319h-1.293v1.293h26.107v-1.293h1.306v-1.319zm-6.521 6.532v19.601h28.734v-22.214H57.292v2.613zm3.92-1.305h23.507v19.587h-24.8V145.06h1.293zm-5.226 13.052v-3.906h-5.227v-2.626h5.227v-2.601H32.479v9.133h23.507zm-20.907-3.905V152.9h3.933v2.613h-3.933v-1.306zm14.387 19.585h-6.534v1.308h9.134v-1.308zm-9.147-13.054v10.44h1.294v-11.745h-1.294zm0-39.186h23.494v-1.306h1.32v-1.307H39.012v1.307h-1.306v1.306z"/><path d="M39.012 143.752h18.28v-1.307H37.706v-18.279h23.506v14.359h2.601v-15.679H36.399v20.906zm-5.226 30.04h-3.92v1.308h6.533v-1.308z"/></g><path d="M87.332 139.833v1.319h1.321v-1.319zm-1.306 30.052h-32.64v9.134h1.293v-7.841h33.974v-1.293zm0-27.44h1.306v-1.293h-1.306zm-2.613 0H58.599v1.307h27.427v-1.307zm-16.974-23.506h-1.306v1.307h1.306zm-1.306 1.307h-1.32v1.306h1.32zm-2.613 44.4h22.199V145.06h-1.306v18.293H59.919v1.293zm-5.228-23.494H37.706v1.293h20.893v-1.293zm-2.613 7.827h1.307v-1.292H31.173v10.425h1.306v-9.133zm-5.213 23.506h-6.534v1.307h9.134v-1.307zm-10.454-11.747v10.44h1.307v-11.745h-1.307zm-1.306 13.054v2.627h1.306v-3.934h-1.306zm1.306-50.946h24.801v-1.294H36.399v1.294zm-2.613 19.599v-19.599h-1.32v20.906h1.32zm-2.613 30.04h-3.92v1.307h6.533v-1.307z" fill="#FFF"/><g fill="#807F7F"><path d="M92.559 164.646h-2.613v1.32h-1.293v1.293h-1.321v1.306H53.386v1.32h35.267v-1.32h1.293v-1.306h1.307v-1.293h1.306v1.293h-1.306v1.306h-1.307v1.32h-1.293v9.134H53.386v-9.134h-1.32v1.293h-9.134v1.307h9.134v7.841h37.88v-1.307h1.307v-1.307h1.306v-1.293h1.307v-11.773z"/><path d="M88.653 165.966v-1.32h1.293v-26.121h-22.2v-20.893H39.012v1.307h27.427v1.307h-1.306v1.306h-1.32v16.973h-2.601v1.308h27.441v1.319h-1.321v1.293h-1.306v23.521H57.292v-22.214H35.079v-20.906h-1.293v22.214h22.2v1.305H31.173v1.322h24.813v3.893h-5.227v1.318h5.227v5.214H31.173v-10.425h-1.307v11.746h7.84v11.745h1.306v-11.745h16.974v7.826h31.346v-1.293zM80.8 176.419h1.32V175.1H80.8zm-6.534-2.627h11.76v-1.307H71.665v1.307z"/><path d="M59.919 145.06v1.305H82.12v15.667H59.919v1.321h23.494V145.06zm0-3.908h1.293v-1.319h-1.293zm0 0h-1.32v1.293h1.32zm-1.32 1.293h-1.307v1.307h1.307zm-18.28-16.972h20.893v-1.307H37.706v1.307zm-1.307-6.534h-1.306v1.307h1.306zm-1.306 1.307h-1.307v1.306h1.307zm-1.307 1.306h-1.32v1.294h1.32zm-2.613 49.626h-3.92v1.307h6.533v-1.307z"/></g><path d="M94.491 241.528h-2.8v-1.378H87.53v-1.392h-2.799v-1.392H80.57v-1.392h-4.175v11.134h-.003v-12.541h-5.565v8.378l-.003-.011v-9.744h-4.175v-1.392h-4.174v-1.392h-4.176v-1.391h-9.743v1.391H44.38v1.392h-4.162v1.392h-4.176v1.377h-2.784v1.407h-1.392v11.135h1.392v9.73h1.392v8.34h1.392v9.756h1.378v6.947h1.406v1.389h1.392v1.406h20.865v.004H43.002v1.375h2.784v1.391h16.689v.002H48.556v1.391h2.783v1.393h2.785v1.406h2.798v1.379h2.769v1.393h2.784v1.389h2.784v1.394h5.565l.003-.007v.007h1.393V295.8h2.768v-1.389h2.8v-1.393h2.782v-1.379h1.379v-1.406h2.782v-1.393h1.393v-1.391l-.011-.002h.011v-2.766l-.009-.004h1.415v-6.957h1.379v-5.582h1.39v-1.379l-.007-.002h.007v-4.174h1.392v-6.959h1.39v-4.177l.003-.008v.008h1.407v-4.176h1.376v-9.743h-1.376zm-18.096 50.115l-.003-.006v-1.415l.003.009v1.412zm-5.555-6.967l-.013.004v.016l-.003-.016h-2.796v-.004h2.796v-9.742h.003v9.742h.013zm-6.959 2.772v-.002h1.378v.002h-1.378zm-6.959-16.69h-5.583v-.002h5.583v.002zm8.336 6.961v-1.406h.001l-.001 1.406zm1.391-6.961h-1.39v-.002h2.769v.002h-1.379zm-25.039-.002h4.176v.002H41.61v-.002zm29.214-5.578v-15.287h.003v16.716l-.003-.025v-1.404zm5.568-12.515v-1.392h.003v4.217l-.003-.041v-2.784zm-4.172 18.095v-.002h1.389v.002H72.22zm4.172-5.58l.003-.053v4.242h-.003v-4.189zm0 5.578h1.396l-1.393.002v1.398l-.003-.021v-1.379zM63.881 284.68v-.004h2.768v.004h-2.768zm5.554 2.768v-.002l.007.006-.007-.004zm8.353 0l-.014-.002h.017l-.003.002zm1.357-2.772h.028l-.009.004-.019-.004zm5.582-13.92h1.397l.002.002h-1.395l-.004-.002zm8.357-22.259l-.003-.01h.003v.01zm0-1.388h-.003v-1.405h.003v1.405zm-22.257-1.419v1.419h-.003v-1.405l.003-.014zm0 50.113l-.003-.006.003-1.389v1.395zm5.565-2.787l.003-.006v.006h-.003zm2.768-5.57h.024l-.021.002-.003-.002zm1.41-2.766l-.009-.004h1.388l.004.004H80.57zm8.339-13.922H87.53l-.004-.002h1.39l-.007.002zm4.175-16.679l-.003-.009v-4.178l.003-.009v4.196z"/><g><path fill="#4D4E4E" d="M92.491 240.934v2.77h-1.407v1.405h-2.785v2.784h1.392v-1.406h2.8v1.406h-1.407v4.186l-.003-.009h-1.39v4.161h-2.782v6.947H85.53v2.796h-1.406v2.782l.002.002h-1.395v2.784h-1.376v2.771h-1.406v2.782H78.57v4.175h-1.406v1.406h.009l-.009.004v1.375h-1.376v1.391h.003l-.003.002v2.783h-1.393v1.412l-.003-.006h-2.783v1.379H70.22v1.393h-1.393v1.394l-.003-.006h-1.389v1.394h1.389l.003-.007v.007h1.393v-1.394h1.389v-1.388h1.379v-1.393h1.404l.003-.006v.006h1.393v-1.379h1.376v-4.189l-.004-.002h1.41v-2.766l-.009-.004h1.388v-4.174h4.175v-4.189h1.406v-5.555l-.004-.002h1.383v-4.173h1.39v-6.959h2.782v-4.177l.003-.008v.008h1.407v-4.176h1.376v-8.337z"/><path fill="#555" d="M91.084 246.487v.01l-.003-.01h-1.39v1.406h-2.782v2.77H85.53v2.784h-1.406v2.784h-2.769v4.176h-1.406v1.39H78.57v2.786h-1.406v2.785h-1.376v1.388l-1.393.002v1.399l-.003-.022h-1.404v4.178h-1.379v4.189H70.22v1.379h-1.393v2.795h.013l-.013.004v.016l-.003-.016h-1.389v2.766l.007.006-.007-.004v2.783h-2.786v6.96h2.786v-1.394h1.389l.003-1.388h1.393v-1.393h1.389v-1.379h2.783v-1.415l.003.009h1.393v-2.783l-.014-.002h.014v-1.391h1.376v-1.375l-.019-.004h.019v-1.406h1.406v-4.175h1.379v-2.782h1.406v-2.771h1.376v-2.784l-.004-.002h1.397v-2.782h1.406v-2.796h1.379v-6.947h2.782v-4.161h1.39v-4.178l.003-.009v.01h1.407v-1.406z"/><path fill="#669766" d="M61.881 264.583h1.378v1.391h-1.378z"/><path fill="#D5D5D5" d="M60.475 279.881v4.174h1.406v-4.174z"/><path fill="#669766" d="M60.475 271.542h1.406v1.392h-1.406zm-1.392 1.392h1.392v1.379h-1.392zm-1.392 4.161h1.392v1.407h-1.392zm0-22.257h1.392v1.393h-1.392zm-1.392 25.043h1.392v1.389h-1.392zm0-19.474h1.392v1.39h-1.392zm0-6.96h1.392v1.391h-1.392zm-1.377 25.055h1.377v1.379h-1.377zm1.594-4.189h-1.594v1.406h2.769v-1.406zm-1.594-22.243h1.377v1.377h-1.377zm-1.407 18.065h1.407v1.407h-1.407zm0-12.511h1.407v1.406h-1.407zm-1.391 13.918h1.391v1.392h-1.391zm0-18.095h1.391v1.391h-1.391zm0-2.784h1.391v1.407h-1.391zm-1.378 22.271h1.378v1.379h-1.378zm0-20.864h1.378v1.377h-1.378zm0-2.799h1.378v1.392h-1.378z"/><g fill="#292929"><path d="M88.299 257.624v6.959h1.392v-6.959zm0 6.959h-1.39v4.173h.007l-.007.002H85.53v5.555h-1.406v4.189h-4.175v4.174l.004.004H78.57v2.633l-1.406.135v4.189h-1.376v1.379h2.782v-1.379h1.379v-1.406h2.782v-1.393h1.393v-1.39l-.011-.002h.011v-2.766l-.009-.004h1.415v-6.957h1.379v-5.582h1.39v-1.379l-.007-.002h.007z"/><path d="M74.651 291.016h-1.663v1.393h2.8v-1.393zm-3.042 2.781h1.379v-1.388h-1.379zm-8.35-48.688h1.39v-1.405h-1.39zm-1.378-2.783v-1.392h-1.406v2.77h2.784v-1.378zm-2.798-2.798v1.406h1.392v-1.406zm-1.392-1.378v-1.392h-1.392v2.77h2.784v-1.378zm-2.769-2.784v1.392h1.377v-1.392zm-1.407-1.392v-1.407h-1.391v2.799h2.798v-1.392zm-2.769-2.784v1.377h1.378v-1.377z"/></g><path d="M85.53 245.109h-1.406v1.378h-2.769v1.406h-4.191v1.378h-2.769v4.217l-.003-.041h-1.404v5.583h-1.379v4.148h1.379v2.796h-1.379v5.568H70.22v1.392h2.768v-5.566h1.404v-4.19l.003-.053v.053h1.393v-2.771h1.376v-2.783h1.406v-2.786h1.379v-2.768h1.406v-2.799h1.376v-1.378h2.799v-1.406h1.379v-1.378zm-16.703 29.204v2.782h1.393v-4.161h-1.393zm-1.392 4.189v1.379h1.389v-2.786h-1.389zm6.957-32.015h-1.404v-1.378h-4.164v-1.405h-1.389v-1.378h-1.407v-1.392h-1.379v-1.406h-1.39v-1.378h-1.378v-1.392h-1.406v-1.392h-1.392v-1.392h-1.392v-1.407h-1.392v-1.377h-1.377v-1.392h-1.407v-1.392h-2.769v1.392h1.378v1.392h1.391v1.377h1.407v1.407h1.377v1.392h1.392v1.392h1.392v1.392h1.392v1.378h1.406v1.406h1.378v1.392h1.39v1.378h1.379v1.405h1.407v1.378h4.174v1.406h4.179v-1.406z" fill="#797979"/><path fill="#669766" d="M49.339 274.313h1.407v1.406h-1.407zm0-23.65h1.407v1.407h-1.407z"/><path d="M92.491 239.528h-2.8v-1.378H85.53v-1.392h-2.799v-1.392H78.57v-1.392h-4.175v1.392h2.769v1.392h4.191v1.392h2.769v1.378h4.175v1.406h5.568v-1.406zm0 2.798h-2.8v1.378h-2.782v2.783H85.53v1.406h-2.799v1.378h-1.376v2.799h-1.406v2.768H78.57v2.786h-1.406v2.783h-1.376v2.771h-1.393v4.19h-1.407v2.769h1.404v-1.381h1.396v-1.388h1.376v-2.785h1.406v-2.786h1.379v-1.39h1.406v-4.176h2.769v-2.784h1.406v-2.784h1.379v-2.77h1.39v-2.784h2.782v-1.405h1.41zM70.22 272.934v4.161h-1.393v2.786h1.393v-1.379h1.389v-4.189h1.379v-1.379zm1.504-40.367h-2.897v1.407h4.161v1.392h1.404v-2.799zm-4.289 48.703v1.406h1.389v-2.795h-1.389zm-1.407 1.41v5.551h1.407v-5.551zm0-51.49h-1.379v1.377h4.175v-1.377zm0 13.919v-1.405h-1.379v1.405zm-2.769-2.783v1.378h1.39v-1.378zm0-12.528h-2.784v1.392h4.174v-1.392zm-1.378 11.136v1.392h1.378v-1.392zm-1.406-1.406v1.406h1.406v-1.406zm-1.392-1.378v1.378h1.392v-1.378zm0-9.744h-2.784v1.392h4.176v-1.392zm-1.392 8.352v1.392h1.392v-1.392zm-1.392-1.392v1.392h1.392v-1.392zm-1.377-1.392v1.392h1.377v-1.392zm-1.407-1.407v1.407h1.407v-1.407zm-1.391-1.377v1.377h1.391v-1.377zm-1.378-1.392v1.392h1.378v-1.392zm-1.407-1.392v1.392h1.407v-1.392z" fill="#676767"/><path fill="#669766" d="M45.178 249.271h1.378v1.392h-1.378zm-1.392 22.271h1.392v1.392h-1.392zm0-20.879h1.392v1.407h-1.392zm-1.406 19.472h1.406v1.407H42.38z"/><path d="M61.881 265.974v8.339h1.378v-8.339zm-1.406 9.745h1.406v-1.406h-1.406zm-1.392 1.376h1.392v-1.376h-1.392zm-1.392-13.917h2.784v-2.771h-1.392v-1.377h-2.784v-2.799h-1.377v2.799h-2.798v1.377h5.567zm-1.392 19.498h1.392v-1.406h-1.392zm-1.377-2.795v1.389h1.377v-1.389zm-1.407-1.379v1.379h1.407v-1.379zm0-23.664v1.393h1.407v-1.393zm-1.391 22.257v1.407h1.391v-1.407zm-1.378-1.376v1.376h1.378v-1.376zm-4.19-1.406h1.405v-1.379h-1.405zm-1.378-2.771v1.392h1.378v-1.392zm1.378-12.512h-1.378v2.767h2.783v-1.39h-1.405zm-2.77 11.105v-1.377H42.38v1.379h1.406v1.405h1.392v-1.407zm0-2.767H42.38v1.388h1.406z" fill="#166835"/><path fill="#669766" d="M42.38 265.974h1.406v1.394H42.38z"/><path fill="#669766" d="M42.38 264.583h1.406v1.391H42.38zm0-1.405h1.406v1.405H42.38zm0-1.381h1.406v1.381H42.38zm0-1.39h1.406v1.39H42.38zm0-1.377h1.406v1.377H42.38zm-1.378 9.728h1.378v1.379h-1.378zm-1.392-2.784h1.392v1.394H39.61zM39.61 264.583h1.392v1.391H39.61zm0-1.405h1.392v1.405H39.61zm0-1.381h1.392v1.381H39.61zm0-1.39h1.392v1.39H39.61zm0-1.377h1.392v1.377H39.61zM39.61 257.624h1.392v1.406H39.61z"/><g fill="#0B8040"><path d="M60.475 272.934v1.379h1.406v-1.379z"/><path d="M57.691 274.313v1.406h-2.769v-4.177h-1.407v1.392h-1.391v1.379h-1.378v1.406h1.378v1.376h1.391v1.407h4.176v-1.407h1.392v-1.376h1.392v-1.406zm-4.176-20.866v1.391h1.407v1.393h1.377v2.799h2.784v1.377h1.392v-8.337h-1.392v4.161h-1.392v-1.393h-1.392v-1.391h-1.377v-1.377h-2.798v1.377zm-1.391-1.377v-1.407h-1.378v1.407zm-1.378-2.799h-4.19v1.392h4.19zm-6.96 5.567v-1.391H42.38v-1.377h-1.378v1.377H39.61v1.391h-1.392v1.393h-1.392v1.393h4.176v11.132h1.378v-9.726h1.406v1.377h1.392v-4.176h-1.392z"/></g><path d="M63.259 293.797v1.394h1.39v-1.394zm-1.378-1.388h-1.406v1.388h2.784v-1.388zm-2.798-1.393h-1.392v1.393h2.784v-1.393zm-2.784-1.379h-1.377v1.379h2.769v-1.379zm-2.784-1.406h-1.391v1.406h2.798v-1.406zm-2.769-1.393h-1.407v1.393h2.785v-1.393zm-2.785-1.39h-1.405v1.39h2.783v-1.39zm-1.405-1.393h-2.77v1.391h2.77zm-4.176-1.375h-1.378v1.375h2.784v-1.375zm-1.378-1.41h-2.784v1.406h2.784zm-4.176-1.389v1.389h1.392v-1.389zm-1.406-1.379v1.379h1.406v-1.379z" fill="#848384"/><path d="M63.259 270.135v2.799h1.39v-4.176h-1.39zm0-4.161v2.782h1.39v-2.782zm-6.96 13.907h1.392v-1.379h-1.392zm-1.377 2.795h1.377v-1.406h-1.377zm0-20.879h1.377v-1.39h-1.377zm-1.407 18.084v1.389h1.407v-1.389zm1.407-29.218h-1.407v1.407h1.407zm-2.798 27.839v1.379h1.391v-1.379zm-1.378-1.407v1.407h1.378v-1.407zm-1.407-1.376v1.376h1.407v-1.376zm0-25.056h-4.161v1.407h4.161zm-2.783 25.056h1.405v-1.406h-1.405zm-1.378-2.785v1.379h1.378v-1.379zm-1.392-23.663v1.392h1.392v-1.392zm-1.406 4.176h1.406v-1.377H42.38zm-1.378-2.784v1.407h1.378v-1.407zm-1.392 18.093h1.392v-1.388H39.61zm0-15.309h1.392v-1.377H39.61zm0 4.177h-1.392v1.406h1.392zm-1.392-2.786h1.392v-1.391h-1.392zm-1.392 1.393h1.392v-1.393h-1.392zm-1.406 1.393h1.406v-1.393H35.42z" fill="#97C997"/><path fill="#1B1C1C" d="M59.083 240.934v-1.406h-2.784v-2.77h-1.377v-1.392h-2.798v-2.799h-1.378v-2.769h-1.407v-1.392h-2.783v1.392H42.38v1.392h-4.162v1.377h-4.176v2.799h4.176v1.392h4.162v1.392h4.176v1.378h4.19v1.406h4.176v1.392h4.161v1.378h1.392v-2.77z"/><g fill="#ACA790"><path d="M85.53 240.934v1.392h1.379v-1.392zm-1.406 2.77h1.406v-1.378h-1.406zm1.406-2.77v-1.406h-1.406v1.406zm-2.799 0v1.392h1.393v-1.392zm1.393-2.784h-1.393v1.378h1.393zm-2.769 5.554h1.376v-1.378h-1.376zm1.376-2.77v-1.406h-1.376v1.406zm-2.782 4.175h1.406v-1.405h-1.406zm0-2.783h1.406v-1.392h-1.406zm1.406-2.798v-1.378h-1.406v1.378zm-2.785 6.959h1.379v-1.378H78.57zm0-2.783h1.379v-1.378H78.57zm1.379-2.77v-1.406H78.57v1.406zm0-4.176H78.57v1.392h1.379zm-2.785 6.946v1.405h1.406v-1.405zm1.406-2.77h-1.406v1.392h1.406zm0-1.406v-1.378h-1.406v1.378zm-2.782 6.959h1.376v-1.378h-1.376zm1.376-4.161h-1.376v1.378h1.376zm0-2.798h-1.376v1.406h1.376zm0-2.77h-1.376v1.392h1.376zm-2.769 6.946v1.405h1.393v-1.405zm0-2.77v1.392h1.393v-1.392zm0-2.784v1.378h1.393v-1.378zm0-2.784v1.392h1.393v-1.392zm-1.407 16.704v1.377h1.404v-2.784h-1.404zm1.404-8.366v-1.378h-1.404v1.378zm0-2.77v-1.406h-1.404v1.406zm-1.404-2.784h1.404v-1.392h-1.404zm-1.379 26.433v1.391h1.379v-2.796h-1.379zm0-6.959v1.406h1.379v-2.799h-1.379zm0-15.298h1.379v-1.392h-1.379zm0-2.798h1.379v-1.378h-1.379zm1.379-2.77v-1.392h-1.379v1.392zm-2.768 33.377v1.407h1.389v-2.784H70.22zm0-30.607v1.406h1.389v-1.406zm1.389-2.77H70.22v1.392h1.389zm0-2.784H70.22v1.392h1.389zm-2.782 4.176v1.378h1.393v-1.378zm0-2.784v1.392h1.393v-1.392zm-1.392 38.947v2.782h1.389v-4.161h-1.389zm1.389-36.163v-1.392h-1.389v1.392zm-1.389-2.784h1.389v-1.392h-1.389zm-1.407 45.904v1.406h1.407v-2.795h-1.407zm0-44.512h1.407v-1.392h-1.407zm1.407-4.191h-1.407v1.407h1.407zm-2.786 51.488v4.176h1.379v-4.176zm0-50.081v1.392h1.379v-1.392zm-1.39 59.823h1.39v-1.388h-1.39zm0-61.23v1.407h1.39v-1.407zm-1.378 58.449h-1.406v1.393h2.784v-1.393zm0-59.826v1.377h1.378v-1.377zm-2.798 58.447h-1.392v1.379h2.784v-1.379zm-2.784-1.406h-1.377v1.406h2.769v-1.406zm-2.784-1.393h-1.391v1.393h2.798v-1.393zm-2.769-1.39h-1.407v1.39h2.785v-1.39zm-1.407-1.393h-2.783v1.391h2.783zm-4.161-1.375h-1.392v1.375h2.77v-1.375zm-1.392-1.41h-2.784v1.406h2.784zm-4.176-1.389h-1.392v1.389h2.784v-1.389zM36.826 278.502v1.379h1.392v-1.379zm0-5.568H35.42v1.379h1.406zm-1.406-9.756h-1.378v1.405h1.378zm-1.378-8.34H32.65v1.393h1.392zm-1.392-9.729h-1.392v1.378h1.392z"/></g><g fill="#CBCACA"><path d="M70.22 252.07v1.377h1.389v-1.377zm-1.393 8.337h1.393v-1.377h-1.393zm0-2.783h1.393v-1.393h-1.393zm0-2.786h1.393v-1.391h-1.393zm0-4.175v1.407h1.393v-1.407zm-.003 13.92v-1.405h-1.389v1.405zm0-2.786v-1.39h-1.389v1.39zm0-2.767v-1.406h-1.389v1.406zm0-2.799v-1.393h-1.389v1.393zm0-2.784v-1.377h-1.389v1.377zm-1.389-2.784h1.389v-1.392h-1.389zm-1.407 12.515h1.407v-1.381h-1.407zm0-2.771h1.407v-1.377h-1.407zm0-2.783h1.407v-1.393h-1.407zm0-2.786h1.407v-1.391h-1.407zm0-2.768h1.407v-1.407h-1.407zm1.407-4.177h-1.407v1.378h1.407zm-2.786 13.904h1.379v-1.39h-1.379zm0-2.767h1.379v-1.406h-1.379zm0-2.799h1.379v-1.393h-1.379zm0-2.784h1.379v-1.377h-1.379zm1.379-2.784v-1.392h-1.379v1.392zm-1.379 32.013v-1.406h-1.39v1.406zm0-2.795v-1.379h-1.39v1.379zm-1.39 9.756v-1.406h-1.378v1.406zm-1.378-5.582h1.378v-1.375h-1.378zm0-2.785h1.378v-1.389h-1.378zm-1.406 9.746h1.406v-1.379h-1.406zm1.406-5.568v-1.393h-1.406v1.393h-1.392v1.39h1.392v1.393h1.406v-1.393h1.378v-1.39z"/><path d="M64.649 272.934v1.379h-1.39v1.406h-1.378v1.376h-1.406v1.407h-1.392v5.553h1.392v-4.174h1.406v-1.379h1.378v-1.407h2.769v-4.161zm-4.174-25.041v-1.406h-1.392v1.406zm-2.784 40.338h1.392v-1.393h-1.392zm0-2.785h1.392v-1.391h-1.392zm0-37.553v1.378h1.392v-1.378zm1.392-2.784h-1.392v1.378h1.392zm-2.784 40.339v1.39h1.392v-1.39zm0-2.768v1.375h1.392v-1.375z"/><path d="M64.649 263.178v-1.381h-1.39v-1.39h1.39v-1.377h-1.39v-1.406h1.39v-1.393h-1.39v-1.393h1.39v-1.391h-1.39v-1.377h1.39v-1.407h-2.768v-1.392h2.768v-1.378h-1.39v-1.406h-1.378v1.406h-1.406v1.378h-1.392v1.392h-1.392v2.784h1.392v-1.377h2.798v11.108h-4.19v-1.381h-2.769v1.381h1.377v1.405h-1.377v1.391h1.377v1.394h-1.377v1.39h-1.407v1.379h2.784v4.176h2.784v-1.379h1.392v-1.392h1.406v-6.959h1.378v1.391h1.39v-1.391h1.379v-1.405zm-8.35-13.907v1.392h1.392v-1.392zm1.392-1.378v-1.406h-1.392v1.406zm-2.769 40.338h1.377v-1.393h-1.377zm0-2.785h1.377v-1.391h-1.377zm0-37.553v1.378h1.377v-1.378zm1.377-1.406v-1.378h-1.377v1.378zm-2.784 38.961v1.39h1.407v-1.39zm0-2.768v1.375h1.407v-1.375z"/><path d="M53.515 265.974v1.394h1.407v-1.394zm0-1.391h1.407v-1.405h-1.407zm1.407-4.176h-1.407v1.39h1.407zm-1.407-13.92v1.406h1.407v-1.406zm1.407-2.783h-1.407v1.405h1.407zm-2.798 41.742h1.391v-1.391h-1.391zm1.391-2.77v-1.406h-1.391v1.406zm-1.391-13.92h1.391v-1.388h-1.391zm0-4.173v1.391h1.391v-1.391zm1.391-1.405v-1.381h-1.391v1.381zm0-5.554v-1.393h-1.391v1.393zm-1.391-8.353h1.391v-1.378h-1.391zm1.391-2.784v-1.378h-1.391v1.378zm-2.769 36.193v1.375h1.378v-1.375zm1.378-2.799h-1.378v1.389h1.378zm0-11.123h-1.378v1.379h1.378zm-1.378-2.784v1.394h1.378v-1.394zm1.378-2.796h-1.378v1.405h1.378zm0-2.771h-1.378v1.39h1.378zm0-2.783h-1.378v1.406h1.378zm0-2.786h-1.378v1.393h1.378zm-1.378-8.351v1.406h1.378v-1.406zm1.378-1.378v-1.405h-1.378v1.405zm-2.785 40.337h1.407v-1.391h-1.407zm1.407-2.77v-1.406h-1.407v1.406zm-1.407-13.92h1.407v-1.388h-1.407zm1.407-4.173h-1.407v1.391h1.407zm-1.407-2.786v1.381h1.407v-1.381zm0-2.767v1.377h1.407v-1.377zm0-2.799v1.393h1.407v-1.393zm0-11.122v1.378h1.407v-1.378zm1.407-2.783h-1.407v1.378h1.407zm-2.785 40.354v1.375h1.378v-1.375zm1.378-2.799h-1.378v1.389h1.378zm-1.378-13.907v1.394h1.378v-1.394zm0-22.27v1.405h1.378v-1.405zm0 37.566h-1.405v1.406h1.405zm-1.405-38.944v1.378h1.405v-1.378zM35.42 271.542v1.392h1.406v-2.799H35.42zm0-9.745v-1.39h-1.378v2.771h1.378zm-1.378-8.35v-2.784H32.65v4.175h1.392zm-1.392-9.743v-1.378h-1.392v2.783h1.392z"/></g><g fill="#E5E5D4"><path d="M61.881 249.271v1.392h1.378v-1.392zm0-2.784h-1.406v1.406h1.406zm-2.798 41.744h1.392v-1.393h-1.392zm0-2.785h1.392v-1.391h-1.392zm0-36.175h1.392v-1.378h-1.392zm-1.392 40.366h1.392v-1.406h-1.392zm1.392-4.189h-1.392v1.39h1.392zm-1.392-2.768v1.375h1.392v-1.375zm0-32.017h1.392v-1.392h-1.392zm1.392-2.77v-1.406h-1.392v1.406zm-2.784 38.945v1.393h1.392v-1.393zm0-1.392h1.392v-1.391h-1.392zm0-33.376h1.392v-1.407h-1.392zm0-2.799h1.392v-1.378h-1.392zm1.392-4.162h-1.392v1.378h1.392zm-2.769 40.339v1.39h1.377v-1.39zm0-2.768v1.375h1.377v-1.375zm1.377-15.312v-1.394h-1.377v1.394zm0-2.785v-1.405h-1.377v1.405zm-1.377-15.312v1.392h1.377v-1.392zm1.377-1.378v-1.406h-1.377v1.406zm-2.784 37.553h1.407v-1.391h-1.407zm1.407-2.77v-1.406h-1.407v1.406zm-1.407-13.92h1.407v-1.388h-1.407zm0-2.782h1.407v-1.391h-1.407zm1.407-2.796v-1.381h-1.407v1.381zm0-5.554v-1.393h-1.407v1.393zm-1.407-9.731v1.378h1.407v-1.378zm1.407-1.406v-1.378h-1.407v1.378zm-2.798 40.351h1.391v-1.39h-1.391zm0-4.158v1.375h1.391v-1.375zm1.391-1.41v-1.389h-1.391v1.389zm-1.391-15.296v1.394h1.391v-1.394zm1.391-1.391v-1.405h-1.391v1.405zm0-2.786v-1.39h-1.391v1.39zm-1.391-2.767h1.391v-1.406h-1.391zm1.391-2.799v-1.393h-1.391v1.393zm-1.391-5.568h1.391v-1.392h-1.391zm0-4.176v1.406h1.391v-1.406zm1.391-2.783h-1.391v1.405h1.391zm-2.769 41.742h1.378v-1.391h-1.378zm0-2.77h1.378v-1.406h-1.378zm0-13.92h1.378v-1.388h-1.378zm0-4.173v1.391h1.378v-1.391zm1.378-1.405v-1.381h-1.378v1.381zm0-2.771v-1.377h-1.378v1.377zm-1.378-4.176v1.393h1.378v-1.393zm1.378-9.744v-1.378h-1.378v1.378zm-2.785 36.193v1.375h1.407v-1.375zm0-16.706v1.394h1.407v-1.394zm1.407-5.567h-1.407v1.39h1.407z"/><path d="M49.339 257.624v-1.393h1.407v-1.393h1.378v-1.391h-1.378v-1.377h-5.568v2.768h2.783v1.393h-1.405v1.393h1.405v1.406h2.785v-1.406zm1.407-12.515v-1.405h-1.407v1.405zm-1.407 37.567v-1.406h-1.378v1.406z"/><path d="M43.786 252.07v-2.799h8.338v-1.378h-1.378v-1.406h-1.407v-1.378h-1.378v-1.405h-1.405v-2.77H42.38v-1.406h-4.162v-1.378h-4.176v-1.392h-2.784v5.568h1.392v8.337h1.392v9.744h1.378v9.73h1.406v8.365h1.392v1.379h2.784v1.389h2.784v1.406h2.77v-1.406h1.405v-1.389h1.378v1.389h1.407v-1.389h1.378v-1.379h-1.378v-1.407h-1.407v-1.376h-2.783v-1.406h-1.378v-1.379h-1.392v-1.392H42.38v-1.407h-1.378v-1.377H39.61v-9.728h-1.392v-1.406H35.42v-1.393h1.406v-1.393h1.392v-1.391h1.392v-1.377h1.392v-1.407h1.378v1.407z"/><path d="M49.339 242.326h-1.378v1.378h1.378zm-2.783 41.729h1.405v-1.375h-1.405zm5.568-15.297v1.377h-1.378v-1.377h-1.407v-1.39h-1.378v-1.394h1.378v-1.391h1.407v-1.405h-1.407v-1.381h-4.161v8.34h1.378v1.405h2.783v2.771h1.407v-1.379h1.378v-1.392h1.391v-2.784z"/></g><g fill="#BFBEBE"><path d="M88.299 240.934v-1.406H85.53v1.406h1.379v1.392h2.782v-1.392zm-2.769 2.77h1.379v-1.378H85.53zm-1.406-2.77v1.392h1.406v-1.392zm-1.393 2.77h1.393v-1.378h-1.393zm1.393-2.77v-1.406h-1.393v1.406zm-2.769 4.175h1.376v-1.405h-1.376zm0-2.783h1.376v-1.392h-1.376zm1.376-2.798v-1.378h-1.376v1.378zm-2.782 2.798v1.378h1.406v-1.378zm1.406-1.392v-1.406h-1.406v1.406zm0-4.176h-1.406v1.392h1.406zm-2.785 8.351h1.379v-1.405H78.57zm0-4.175v1.392h1.379v-1.392zm1.379-1.406v-1.378H78.57v1.378zm-2.785 6.959h1.406v-1.378h-1.406zm0-2.783h1.406v-1.378h-1.406zm1.406-4.176h-1.406v1.406h1.406zm0-1.378v-1.392h-1.406v1.392zm-2.782 9.743h1.376v-1.406h-1.376zm0-4.189v1.405h1.376v-1.405zm1.376-2.77h-1.376v1.392h1.376zm0-2.784h-1.376v1.378h1.376zm0-2.784h-1.376v1.392h1.376zm-2.769 6.96v1.378h1.393v-1.378zm0-2.798v1.406h1.393v-1.406zm0-2.77v1.392h1.393v-1.392zm-.003 8.351v-1.405h-1.404v1.405zm0-2.783v-1.392h-1.404v1.392zm0-2.798v-1.378h-1.404v1.378zm-1.404-2.77h1.404v-1.392h-1.404zm-1.379 6.946h1.379v-1.378h-1.379zm0-2.77h1.379v-1.406h-1.379zm0-2.784h1.379v-1.392h-1.379zm1.379-4.176h-1.379v1.392h1.379zm-2.768 6.96v1.392h1.389v-1.392zm1.389-2.784H70.22v1.378h1.389zm0-2.784H70.22v1.392h1.389zm-2.782 16.704v1.377h1.393v-1.377zm0-12.542v1.406h1.393v-1.406zm0-2.77v1.392h1.393v-1.392zm0-2.784v1.392h1.393v-1.392zm-.003 29.204v-1.381h-1.389v1.381zm0-2.771v-1.377h-1.389v1.377zm0-2.783v-1.393h-1.389v1.393zm0-2.786v-1.391h-1.389v1.391zm0-2.768v-1.407h-1.389v1.407zm-1.389-2.799h1.389v-1.378h-1.389zm1.389-9.743v-1.378h-1.389v1.378zm0-2.77v-1.392h-1.389v1.392zm-1.389-2.784h1.389v-1.407h-1.389zm-1.407 27.823h1.407v-1.39h-1.407zm0-2.767h1.407v-1.406h-1.407zm0-2.799h1.407v-1.393h-1.407zm0-2.784h1.407v-1.377h-1.407zm0-2.784h1.407v-1.392h-1.407zm0-12.513h1.407v-1.392h-1.407zm0-2.784h1.407v-1.392h-1.407zm-1.379 26.431v1.381h1.379v-1.381zm1.379-2.767h-1.379v1.377h1.379zm0-2.799h-1.379v1.393h1.379zm0-2.784h-1.379v1.391h1.379zm0-2.784h-1.379v1.407h1.379zm0-2.77h1.407v-1.406h-4.176v1.406h1.39v1.378h1.379zm-1.379-12.527v1.392h1.379v-1.392zm1.379-1.392v-1.407h-1.379v1.407z"/><path d="M71.609 249.271v-1.378h-2.782v2.77h1.393v1.407h1.389v1.377H70.22v1.391h-1.393v1.393h1.393v1.393h-1.393v1.406h1.393v1.377h-1.393v4.201l-.003-.025h-1.389v-1.405h-1.407v1.405h-1.379v1.391h1.379v11.121h-2.769v1.407h1.39v1.379h-1.39v1.389h1.39v1.41h-1.39v1.375h-1.378v1.391h1.378v1.392h-1.378v1.393h1.378v1.406h-1.378v1.379h1.378v1.393h1.39v-8.354h1.379v-4.174h1.407v-6.947h2.785v-4.178h1.389v-12.525h1.379v-5.568h1.404v-1.392zm-8.35 11.136v1.39h1.39v-1.39zm0-2.783v1.406h1.39v-1.406zm0-2.786v1.393h1.39v-1.393zm0-2.768v1.377h1.39v-1.377zm0-2.799v1.392h1.39v-1.392zm0-15.297v1.392h1.39v-1.392zm1.39-2.784h-1.39v1.377h1.39z"/><path d="M61.881 282.676h1.378v-1.406h-1.378zm0-4.174v1.379h1.378v-1.379zm0-33.393h-2.798v1.378h4.176v-1.378zm0-12.542v1.407h1.378v-1.407zm-1.406 55.664h-1.392v1.406h2.798v-1.406zm0-57.041v1.377h1.406v-1.377zm-1.392-1.392v1.392h1.392v-1.392zm-1.392 13.906h-2.769v1.405h4.161v-1.405zm-4.176-1.378h-2.769v1.378h4.176v-1.378zm-4.176-1.392h-2.783v1.392h4.19v-1.392zm-4.161-1.406H42.38v1.406h4.176v-1.406zm-4.176-1.378h-2.784v1.378h4.162v-1.378zm-4.176-1.392h-2.784v1.392h4.176v-1.392zm-4.176-1.392h-1.392v1.392h2.784v-1.392z"/></g><path d="M91.276 240.934h-1.585v1.392h2.8v-1.392zm-4.367 1.392v1.378h2.782v-1.378h-1.392zm-2.785 1.378h-1.393v1.405h-2.782v1.378h-2.785v1.406h4.191v-1.406h2.769v-1.378h2.785v-1.405H85.53zm-8.336 4.189h-4.179v1.378h5.555v-1.378zm-5.568-1.406h-2.785v1.406h4.174v-1.406zm-4.192-1.378h-2.769v1.378h4.176v-1.378zm-1.379 25.026v2.799h1.379v-4.176h-1.379zm0-2.767v1.388h1.379v-2.782h-1.379zm-1.39 5.566h1.391v1.379h-1.391zm-1.378 1.379h1.377v1.406h-1.377zm0-30.609h-2.798v1.405h4.176v-1.405zm-1.406 32.015h1.406v1.376h-1.406zm1.406-13.922v-9.727h-1.406v11.108h1.406zm-2.798 15.298h1.392v1.407h-1.392zm-1.392 2.786v2.795h1.392v-4.174h-1.392zm0-26.434h1.392v1.392h-1.392zm0-11.121h-2.769v1.378h4.161v-1.378zm-1.392 9.744h1.392v1.377h-1.392zm-1.377 19.472v2.771h1.377v-4.178h-1.377zm0-20.879h1.377v1.407h-1.377zm-1.407-1.392h1.407v1.392h-1.407zm0-8.337h-2.769v1.392h4.176v-1.392zm-4.176-1.406h-2.783v1.406h4.19v-1.406zm-2.783 32.014v1.392h1.405v2.785h1.378v-4.177h-1.378zm1.405-13.918h-1.405v-1.393h1.405v-1.393h-2.783v-2.768h-1.392v4.161h1.392v2.799h1.378v1.377h1.405v1.39h1.378v-2.767h-1.378zm-2.783-19.474H42.38v1.378h4.176v-1.378zm0 31.985v-9.728h-1.392v9.73h1.392v1.405h1.378v-1.407zm-4.176-33.377h-2.784v1.392h4.162v-1.392zm-4.176-1.392h-2.784v1.392h4.176v-1.392zm-4.176-1.392h-1.392v1.392h2.784v-1.392z" fill="#F5F6F7"/><g fill="#969595"><path d="M74.395 245.109h-1.407v1.378h2.8v-1.378zm-2.786-1.405v-1.378H70.22v-1.392h-1.393v.011l-.003-.011v-1.406h-1.389v-1.378h-1.407v-1.392h-1.379v-1.392h-1.39v-1.392h-1.378v-1.407h-1.406v-1.377h-1.392v-1.392h-2.784v-2.783h-9.743v1.391h6.959v1.392h1.407v1.392h1.377v1.377h1.392v1.407h1.392v1.392h1.392v1.392h1.406v1.392h1.378v1.378h1.39v1.406h1.379v1.392h1.407v1.378h1.389l.003-.014v1.419h4.161v-1.405z"/><path d="M43.786 228.406H42.38v1.392h4.176v-1.392zm-4.176 1.392h-1.392v1.392h4.162v-1.392zm-4.19 45.921v2.783h1.406v-4.189H35.42zm0-44.529h-1.378v1.377h4.176v-1.377zm-1.378 33.393v8.351h1.378v-8.351zm0-2.786v-5.566H32.65v6.947h1.392zm-1.392-8.35v-6.96h-1.392v8.351h1.392zm-1.392-20.88v1.407h2.784v-1.407zm-1.392 2.799v9.743h1.392v-11.135h-1.392z"/></g></g><g><path d="M41.013 403.959h1.306v1.307h-1.306z"/><path d="M94.559 350.415V347.8h-1.306v-1.305h-1.307v-1.308H80.2v-.001h9.133v-1.307H78.2v1.308h-3.227v1.308h-2.626v1.307h-2.6v1.294H57.986v1.319h-3.92v1.307h-1.307v-.001h-2.613v1.307h-2.613v1.306h-1.294v1.295h-1.306v1.319h-1.32v1.306h-1.294v1.295h-1.306v1.32h-1.307v1.293h-1.307v2.613H37.08v3.92h-1.294v9.133h-1.307v2.627h-1.306v3.907h-1.307v13.065h1.307v3.92h1.306v2.613h1.307v1.307h1.292v.002h.002v1.305h2.624v.002h11.76v-1.307h2.6v-1.309h2.613v-2.688h-4.692v1.895h-2.613v1.309h-8.36v-.516h.002v-1.293h-1.307v1.293h-.002v-1.293h.002v-6.533h-.002v-5.239h.002v5.239h1.307v-5.24h-.002V389.6h.002v1.293h1.306v2.613h1.294v1.308h1.32v1.319h1.306v1.293h2.614v1.307h1.293v1.309h3.92v1.305h2.613v1.32h15.667v-1.32h.001v1.32h5.239v-1.32h3.907v-1.305h-.001v-1.309h.001v1.309H82.8v-1.309h2.613v-1.307h1.306v-1.293h1.307v-1.319h1.307v-1.308h-.001v-2.613h.001v2.613h1.32v-2.613h-.001v-2.613h.001v2.613h1.293v-2.613h-.001v-2.6h.001v2.6h1.307v-3.919H77.586v1.319h-1.321v2.6h-1.293v1.32h-11.76v-1.32h-2.613v-1.293h-1.307v-2.626h-1.306v-2.601h-1.307v-1.307h37.88v-9.146h-1.306v-5.227h-1.307v-1.307h1.307v-2.613h1.306v-3.908h1.307v-7.838h-1.307zm-20.893-1.323h1.307v.002h-1.307v-.002zm-2.613 13.069v1.32h-.001v2.6h2.614v1.32h1.307v-1.32h.001v1.32h-.001v5.213H57.986v-3.92h1.306v-1.293h1.307v-1.32h2.613v-1.307h1.308v-1.293h6.532v-1.32h.001zm-9.134-6.532v-.002h2.601v.002h-2.601zm-2.627 2.625v-.002h1.307v.002h-1.307zm2.627-1.307l-1.32.001v-.001h1.32zm-2.627 2.6v.002h-1.306v-.002h1.306zm-3.907 3.935h-1.319v-.001l1.319.001zm-3.92 3.919v.002h-1.319v-.002h1.319zm-1.32 1.293v.002h-1.292v-.002h1.292zm2.613-2.611h-1.292v-.002h1.292v.002zm-6.519 5.224v1.307-1.307zm6.52-6.533h1.306v.001l-1.306-.001zm3.92-3.906h1.306v.002h-1.306v-.002zm-10.441 18.279l.001 2.613h-.001v-2.613zm9.148-16.986h1.292v.002h-1.292v-.002zm-3.92-9.134h1.293v.001l-1.293-.001zm-1.32 1.306h1.32v.002h-1.32v-.002zm-1.293 1.294h1.293v.002h-1.293v-.002zm-1.32 1.32h1.32v.001l-1.32-.001zm-1.294 2.6h1.294v.002H46.24v2.611h-.001v-2.613zm-6.533 7.854h1.307v-1.32h1.306v-1.307h1.294v1.307h-1.294v1.32h-1.306v1.293h-1.307v-1.293zm-1.309 35.266v-6.531h.002v6.531h-.002zm3.922-13.067l-.001-2.613h.001v2.613zm1.294-2.613h-.002v-2.626h.002v2.626zm1.32-2.626h-.002v-2.601h.002v2.601zm11.745 13.065v-2.612h.001l-.001 2.612zm19.589-23.492l-.001-6.533h.001v6.533zm15.679-17.682v3.908h-1.293v-.613h-1.32v-1.295h-1.307v-1.306H86.72v-.001h-.001v-1.318h-1.306v-1.295H82.8v-1.306h-1.307v-1.307h-2.614v-1.306h-2.613v-1.32h1.32v-1.295H80.2v-1.305h-3.933v-.002H80.2v.002h10.453v1.305h1.293v2.615h1.307v5.838h-1.307z"/></g><g><path fill="teal" d="M62.52 352.333v1.294h-1.308v-1.294z"/><path fill="gray" d="M58.599 354.947v1.305h-1.307v-1.305z"/><path fill="teal" d="M58.599 352.333h-1.307v1.294h2.627v-1.294z"/><path fill="gray" d="M57.292 356.252v1.295h-1.306v-1.295zm-1.306 1.295v1.321h-1.307v-1.321z"/><path fill="teal" d="M55.986 353.627v1.32h-1.307v-1.32z"/><path fill="gray" d="M54.679 358.868v1.293h-1.293v-1.293zm-1.293 1.293v1.32h-1.32v-1.32z"/><path fill="teal" d="M53.386 354.947v1.305h-1.32v-1.305z"/><path fill="gray" d="M52.066 361.481v1.293h-1.307v-1.293z"/><path fill="teal" d="M52.066 356.252v1.295h-1.307v-1.295z"/><path fill="gray" d="M50.759 362.774v1.307h-1.293v-1.307zm-1.293 1.307v1.32h-1.32v-1.32z"/><path fill="teal" d="M49.466 357.547v1.321h-1.32v-1.321z"/><path fill="gray" d="M48.146 365.401v1.293h-1.293v-1.293z"/><path fill="teal" d="M46.853 358.868v1.293h-1.32v-1.293zm-1.32 1.293v1.32h-1.294v-1.32zm-1.294 1.32v1.293h-1.306v-1.293z"/><path fill="gray" d="M40.319 375.827v1.32h-1.306v-1.32z"/><path fill="teal" d="M37.706 379.76v1.307h-1.307v-1.307z"/><g fill="#F5EA14"><path d="M58.599 353.627h-2.613v1.32h-2.6v2.6h-2.627v1.321h3.92v-1.321h1.307v-1.295h1.306v-1.305h2.627v-1.32z"/><path d="M48.146 358.868v1.293h-1.293v1.32h-1.32v1.293h-1.294v1.307h-1.306v1.32h-1.32v1.293h-1.294V368h-1.306v1.307h-1.307v1.307h-1.307v5.213h1.307v-1.293h1.307v-3.92h1.306v-1.307h1.294V368h1.32v-1.306h1.306v-1.293h1.294v-1.32h1.32v-1.307h1.293v-1.293h1.32v-1.32h1.293v-1.293z"/></g><path fill="teal" d="M36.399 381.067v1.294H35.08v-1.294zm-1.319 19.6v1.292h-1.294v-1.292zm0-15.68v1.293h-1.294v-1.293z"/><g fill="#282A73"><path d="M91.253 371.934v6.52h1.306v-9.147h-1.306zm0-23.519v7.837h1.306v-7.837zm-1.307 18.279v2.613h1.307v-5.226h-1.307zm0-9.147v2.614h1.307v-3.909h-1.307zm1.307-11.748h-1.307v2.616h1.307zm-2.6 41.801v1.293h1.293v-2.613h-1.293zm0-5.239H75.586v1.319h14.36v2.6h1.307v-3.919zm0-20.88v2.6h1.293v-3.92h-1.293zm0-16.986v1.304h1.293v-1.304zm-1.32 45.718v1.293h1.32v-2.613h-1.32zm1.32-32.666h-1.32v2.614h1.32zm-2.627 35.267h1.307v-1.308h-1.307zm0-36.562v1.295h1.307v-1.295zm-1.307 37.881h1.307v-1.319h-1.307zm0-39.186v1.305h1.307v-1.305zm-1.306 40.479h1.306v-1.293h-1.306zm0-41.799v1.32h1.306v-1.32zm-1.293-1.294H80.8v1.294h2.613v-1.294zm-1.32 43.093v1.307h2.613v-1.307zm-1.307 2.616H80.8v-1.309h-1.307zm0-47.015v1.306H80.8v-1.306zm1.307-6.532h6.533v-1.308H78.2v1.308zm-2.6 5.225h-1.321v-1.305h-2.613v-1.321h1.32v-1.295H78.2v-1.304h-3.934v1.304h-1.293v1.295h-1.307v2.626h3.92v1.307h3.907v-1.307zm-1.321 48.322h-1.293v1.304h3.907v-1.304zm-3.906 1.304h-2.626v1.321h5.239v-1.321zm0-33.945v-1.32h-1.307v1.32zM70.347 387.6h-9.135v1.293h9.135zm-1.295-23.519h2.614v-1.307h-1.319v-1.293h-1.295zm-2.613 35.265v-1.304h-1.306v1.304h-1.32v-1.304H62.52v-1.309h-1.308v1.309h-1.293v-1.309h-1.32v-1.307h-1.307v-1.293h-1.306v-1.319h-1.307v2.612h1.307v1.307h-1.307v-1.307h-1.293v-2.612h-1.32v1.319h-1.307v-1.319h-1.293v-1.308h-1.32v-1.293h-1.293v-1.32h-1.32V387.6h1.32v-1.32h-1.32v-1.293h-1.294v-1.307h1.294v1.307h1.32v-2.626h-2.614v-1.294h1.294v-3.92h-1.294v2.613h-1.306v2.601h-1.32v2.626h-1.294v2.613h-1.306v1.293h1.306v2.613h1.294v1.308h1.32v1.319h1.306v1.293h2.614v1.307h1.293v1.309h3.92v1.304h2.613v1.321h14.373v-1.321zm-1.306-37.865h3.919v-1.32H62.52v1.32zm-2.613 0h-1.308v1.293h1.308zm-2.601 24.799h-1.32v1.32h2.613v-1.32zm1.293-22.199v-1.307h-2.613v1.307z"/><path d="M57.292 384.987v-2.626h-1.306v-2.601h-1.307v3.92h1.307v2.6h2.613v-1.293zm1.307-20.906h-1.307v1.32h1.307zm-1.307 7.853h16.974v-6.533h-1.293v5.213H55.986v-3.92h-1.307v5.24z"/><path d="M57.292 365.401h-1.306v1.293h1.306zm-5.226 27.413v-1.308h-1.307v1.308zm-1.307-1.308v-1.293h-1.293v1.293zm-1.293-1.293v-1.32h-1.32v1.32zm0-2.613v-1.32h-1.32v1.32zm-2.613 1.293h1.293V387.6h-1.293zm1.293-2.613v-1.293h-1.293v1.293zm-7.827 16.986v-1.307h-1.306v1.307zm-1.306-1.307v-1.292h-1.307v1.292zm-1.307-11.746v3.92h1.307v-5.24h-1.307zm-1.307 5.213v5.241h1.307v-6.534h-1.307zm-1.319 7.84v1.307h2.626v-1.307zm-1.294-1.307v1.307h1.294v-1.307zm1.294-31.345h1.319v-1.307h1.307v-3.906h1.307v-1.32h1.306v-1.307h2.614v-2.613h1.306v-2.614h1.294v-2.6h1.32v-1.32h1.293v-1.294h1.32v-1.306h1.293v-1.307h-2.613v1.307h-2.613v1.306h-1.294v1.294h-1.306v1.32h-1.32v1.305h-1.294v1.295h-1.306v1.321h-1.307v1.293h-1.307v2.613H35.08v3.92h-1.294v5.24h1.294zm-1.294 28.732h-1.307v2.613h1.307z"/></g><path fill="teal" d="M33.786 398.042v1.304h-1.307v-1.304z"/><g fill="#3953A3"><path d="M92.559 348.415v7.837h1.307v-7.837zm-1.306 9.132v2.614h1.306v-3.909h-1.306zm1.306-11.748h-1.306v2.616h1.306zm-2.613 15.682v1.293h1.307v-2.613h-1.307zm0-16.986v1.304h1.307v-1.304zm-1.293-1.308h-1.32v1.308h2.613v-1.308z"/><path d="M86.026 341.879h-9.147v1.308h-3.906v1.308h-2.626v1.307h-2.6v1.294H55.986v1.319h-3.92v1.307h-1.307v1.307h-1.293v1.307h-1.32v1.295h-1.293v1.318h-1.32v2.602H44.24v2.613h1.293v-1.293h2.613v-1.32h2.613v-1.295h1.307v-1.307h2.613v-1.318h2.613v-1.295h5.228v1.295h-2.601v1.318h-1.32v1.307h-1.307v1.295h-1.307v1.32h-1.307v1.293h-1.293v1.319h-1.32v1.293h-1.307v1.308h-1.293v1.32h-1.32v1.293h-1.293V368h-1.32v1.307h-1.293v1.307h-1.307v1.32h-1.32v2.6h-1.293v2.613h-1.307v1.307h-1.307v2.613h-1.307v1.294h-1.32v3.919h-1.293v3.934h-1.307v7.828h1.307v2.625h1.293v2.602h2.626v1.307h11.76v-1.307h2.6v-1.309h2.613v-1.293h-3.92v1.293h-2.613v1.309h-9.133v-1.309h-1.307v-1.293h-1.307v-6.531h1.307v-5.241h1.307V387.6h1.307v-2.613h1.293v-2.626h1.32v-2.601h1.307v-2.613h1.293v3.92h-1.293v1.294h2.614v2.626h1.293v1.293h1.32v1.32h-1.32v1.293h1.32v1.32h1.293v1.293h1.307v1.308h1.32v2.613h1.293v-2.613h1.307v1.319h1.307v1.294h1.307v1.306h1.32v1.309h1.293v-1.309h1.308v1.309h1.293v1.305h1.32v-1.305h1.306v1.305h2.613v1.32h1.294v-1.32h5.24v-1.305h3.906v-1.309H80.8v-1.306h2.613v-1.294h1.306v-1.319h1.307v-1.308h1.306v-2.613h1.32v-2.613h1.293v-2.6h-15.68v2.6h-1.293v1.32h-2.626v1.293h-9.134V387.6h-2.613v-1.32h-2.613v-2.6h-1.307v-5.227h36.574v-9.146h-1.307v-5.227h-1.293v-3.92h-1.32v-2.613h-1.306v-1.295H84.72v-1.307h-1.306v-1.318H80.8v-1.295h-1.307v-1.307h-3.906v-1.307h-3.921v-2.627h1.308v-1.293h1.293v-1.307H78.2v-1.307h9.133v-1.307h-1.307v.002zm-30.04 24.815v-1.293h1.307v-1.32H58.6v-1.307h2.613v-1.293h1.308v-1.32h6.532v1.32h1.294v1.293h1.319v1.307h1.308v1.32h1.293v6.533H54.679v-5.24h1.307z"/><path d="M55.986 396.733v-1.307h-1.307v1.307zm-5.227-2.6h1.307v-1.319h-1.307zm-1.293-2.627v1.308h1.293v-1.308zm-1.32-1.293v1.293h1.32v-1.293zm-1.293-1.32v1.32h1.293v-1.32zm1.293-2.613h-1.293v1.32h1.293zm-2.613 1.32v1.293h1.32V387.6zm0-2.613v1.293h1.32v-1.293zm-1.294-1.307v1.307h1.294v-1.307zm-1.306-22.199h1.306v-1.32h-1.306z"/></g><path fill="teal" d="M33.786 388.893v1.32h-1.307v-1.32z"/><g fill="#BFBFBF"><path d="M59.919 352.333v1.294h1.293v-1.294zm-7.853 5.214h1.32v-1.295h-1.32zm-1.307 1.321v1.293h-1.293v1.32h-1.32v1.293h-1.293v1.307h-1.32v1.32h-1.294v1.293h-1.306V368h-1.32v1.307h-1.294v1.307h-1.306v3.92h1.306v-2.6h1.294v-1.32h1.32v-1.307h1.306V368h1.294v-1.306h1.32v-1.293h1.293v-1.32h1.32v-1.307h1.293v-1.293h1.307v-1.32h1.32v-1.293z"/><path d="M49.466 357.547v1.321h1.293v-1.321zm-1.32 1.321h-1.293v1.293h1.293zm-1.293 1.293h-1.32v1.32h1.32zm-1.32 1.32h-1.294v1.293h1.294zm-1.294 1.293h-1.306v1.307h1.306zm-1.306 1.307h-1.32v1.32h1.32zm-1.32 1.32h-1.294v1.293h1.294zm-1.294 1.293h-1.306V368h1.306zm-3.92 11.76h1.307v-1.307h-1.307zm-1.319 1.306h1.319v-1.306H35.08zm1.319-3.933H35.08v1.32h1.319zm0-2.6v-1.293H35.08v2.6h1.319zm-2.613 7.84h1.294v-1.307h-1.294zm1.294-3.92h-1.294v1.307h1.294zm-2.601 5.214h1.307v-1.294h-1.307zm0-3.907v1.306h1.307v-1.306z"/></g><g fill="#7F8033"><path d="M45.533 366.694V368h1.32v-1.306zm-1.294 2.613h1.294V368h-1.294zm-1.306 1.307h1.306v-1.307h-1.306zm-1.32 1.32h1.32v-1.32h-1.32zm1.32-9.16h-1.32v1.307h1.32zm-2.614 10.453v1.307h1.294v-2.6h-1.294zm1.294-9.146h-1.294v1.32h1.294zm-1.294 1.32h-1.306v1.293h1.306zm-2.613 9.133v1.293h-1.307v1.32h1.307v1.307h1.307v-2.627h1.306v-1.293zM39.013 368v-1.306h-1.307v2.613h1.307zm-2.614 11.76h1.307v-1.306h-1.307zm1.307-10.453h-1.307v1.307h1.307zm-2.626 11.76h1.319v-1.307H35.08zm0-2.613h1.319v-1.307H35.08zm1.319-7.84H35.08v1.32h1.319zm-2.613 11.747h-1.307v-1.294h1.307v-1.307h-1.307v-1.306h-1.306v3.907h-1.307v13.065h1.307v3.92h1.306v-10.453h1.307v-3.906h1.294v-3.92h-1.294zm0-2.601h1.294v-1.306h-1.294z"/><path d="M33.786 377.147h1.294v-1.32h1.319v-1.293H35.08v-2.6h-1.294v3.893h-1.307v2.627h1.307z"/></g></g><g aria-label="95" style="line-height:1.25;-inkscape-font-specification:'Microsoft Sans Serif'" font-weight="400" font-size="105.286" font-family="Microsoft Sans Serif" fill="#fff" stroke-width="1.234"><path d="M1130.679 178.723q-7.587 8.082-17.476 8.082-9.575 0-16.22-6.718-6.592-6.769-6.592-17.175 0-10.557 6.54-17.931 6.593-7.426 17.476-7.426 12.452 0 19.359 9.244 6.906 9.244 6.906 26.67 0 40.663-27.155 40.663-8.58 0-14.598-4.647-5.964-4.647-7.22-13.79h10.15q1.256 10.961 12.244 10.961 7.063 0 11.406-7.172 4.343-7.224 5.18-20.761zm.104-7.324q-.209-12.78-4.552-19.549-4.342-6.819-11.615-6.819-6.383 0-10.203 4.95-3.82 4.95-3.82 12.325 0 7.476 3.873 12.275 3.924 4.748 10.464 4.748 8.11 0 15.853-7.93zM1162.752 168.166q5.703-4.445 14.231-4.445 9.575 0 16.691 6.566 7.116 6.516 7.116 17.427 0 11.416-7.168 18.942-7.116 7.476-18.993 7.476-9.732 0-16.638-5.203-6.907-5.202-8.006-15.507h10.203q.837 6.718 4.814 10.002 4.028 3.232 9.627 3.232 7.116 0 11.51-5.202 4.448-5.203 4.448-12.881 0-7.78-4.5-12.275t-11.667-4.495q-8.215 0-13.918 6.112h-7.744l3.244-39.097h41.125v8.79h-32.7z" style="-inkscape-font-specification:'Microsoft Sans Serif'"/></g></svg>