<svg xmlns="http://www.w3.org/2000/svg" width="128" height="128">
  <g fill-rule="evenodd" clip-rule="evenodd">
    <path fill="#432F5F" d="M127.959 80.079c0 15.623-.01 31.245.022 46.868.002.88-.217 1.054-1.066 1.053-18.756-.027-37.513-.021-56.27-.021-.479-.604-.203-1.124.195-1.613.512-.627 1.171-1.028 1.955-1.229.939-.238 1.891-.415 2.846-.574.817-.135 1.66-.204 2.422-.541.79-.352 1.764-.686 1.761-1.726-.003-1.048-.955-1.358-1.783-1.676-2.793-1.074-5.736-1.698-8.47-2.974-4.569-2.134-5.557-5.361-2.567-9.408 1.317-1.782 2.663-3.655 4.858-4.559.295.01.529.153.723.356 4.314 4.537 9.547 8.082 13.761 12.728.092.103.192.199.284.302 1.085 1.535 2.287 3.008 2.669 4.924 1.98 4.163 2.487 3.524 5.208 1.325 2.707-2.187 4.703-5.054 6.689-7.88 3.259-4.639 6.168-9.506 9.229-14.276 4.505-7.021 9.064-14.013 15.146-19.829.651-.622 1.195-1.6 2.388-1.25z"/>
    <path fill="#E4C8B9" d="M19.7 127.979c.261-1.946.591-3.887.769-5.841.307-3.378.932-6.724.913-10.137-.017-2.937-.698-5.622-2.353-8.065-.771-1.138-1.484-2.35-1.686-3.725-.388-2.655-1.833-4.951-2.411-7.552-1.289-5.797 1.322-9.401 5.742-11.964 3.219-1.868 6.586-3.448 9.921-5.09 1.404-.69 2.594-1.524 2.694-3.333.065-1.171 1.048-1.899 1.69-2.782.685-1.015 1.762-1.11 2.82-1.118 3.845-.028 6.937 1.868 9.923 3.992.551.393.784.984.851 1.666.246 2.484-.612 3.732-3.09 4.445-.5.056-1.002.043-1.502.016-.81-.211-1.373-.105-1.208.94.012.426.013.849.013 1.273-.031 1.594.26 3.159.396 4.738.06.213.097.43.124.649.288 2.025 1.064 3.876 2.053 5.647.292.521.625 1.017.693 1.63.024 2.492-.697 3.329-3.059 3.367-.761.012-.99.348-1.247.972-.747 1.813-2.232 2.614-4.063 2.344-1.103-.164-1.81-.862-2.382-1.723-.665-.999-1.223-2.124-2.76-1.361-.186.093-.446-.053-.637-.196-.318-.055.414-.723-.329-.551-.923.215-1.46-.358-1.946-1.012-1.104-1.486-2.083-3.045-2.667-4.815-.398-1.206-.911-2.303-2.092-2.971-.568-.32-.923-.888-1.245-1.455-.412-.726-1.037-.899-1.557-.263-.956 1.174-1.772 2.271-2.04 4.016-.524 3.405.961 5.875 2.639 8.425.38.579.676 1.201.957 1.834 1.007 2.275 2.003 4.549 3.805 6.364 2.5 2.522 2.28 5.737 1.928 8.852-.407 3.611-.895 7.216-1.317 10.828-.079.675-.114 1.386-.588 1.954-2.583.002-5.167.002-7.752.002z"/>
    <path fill="#DCBDAB" d="M27.453 127.979c.41-3.494.736-7.002 1.262-10.479.36-2.379.465-4.751.379-7.136-.055-1.506-.946-2.748-1.91-3.738-1.523-1.563-2.502-3.408-3.357-5.339-.749-1.689-1.737-3.223-2.661-4.808-1.144-1.965-1.747-3.969-1.514-6.494.17-1.851.986-2.961 1.828-4.241.87-1.327 1.775-1.224 2.511.163.289.546.625 1.065 1.175 1.316 1.213.554 1.7 1.604 2.024 2.771.425 1.533 1.284 2.847 2.088 4.18.789 1.31 1.704 2.482 3.539 1.355-.083.75-.705.771-.934 1.162-.551.458-1.053.11-1.533-.13-1.806-.9-3.087-2.294-3.843-4.175-.607-1.513-.86-3.378-3.018-3.075 1.487 1.294 2.558 3.158 3.357 5.197.864 2.205 2.569 3.23 4.85 3.189 1.421-.025 2.366.387 3.249 1.575 1.873 2.525 5.705 2.05 7.038-.789.284-.602.628-1.015 1.277-1.11 1.458-.216 2.604-.868 3.297-2.219.083-.162.286-.222.471-.263.308-.012.527.157.704.373 1.184 1.442 2.72 2.456 4.239 3.489.337.229.737.404.784.891-.971 3.642-2.887 6.608-6.006 8.814-2.798 1.979-3.563 5.046-3.949 8.202-.42 3.418-.833 6.845-.872 10.299-.003.376-.084.731-.354 1.018-4.707.002-9.413.002-14.121.002z"/>
    <path fill="#574282" d="M50.434 127.979c.742-2.599 1.78-4.993 4.167-6.567.428-.283.743-.831.964-1.322 3.097-6.892 8.49-11.772 14.251-16.332.36-.285.743-.542 1.114-.812.717-.107 1.122.142 1.064.926-2.829 1.912-5.148 4.278-6.206 7.599-.711 2.235.868 4.442 3.618 5.734 2.923 1.374 6.082 2.025 9.069 3.188.48.188.909.393 1.286.756.867.831.737 1.593-.08 2.354-1.11 1.038-2.551 1.16-3.939 1.426-1.033.197-2.1.289-3.09.615-1.117.368-2.107.992-2.008 2.435h-20.21zM127.959 80.079c-2.042.761-3.259 2.521-4.637 4.014-3.928 4.255-7.286 8.96-10.39 13.847-3.021 4.755-5.987 9.545-9.092 14.245-2.399 3.633-4.883 7.221-7.955 10.347-1.006 1.022-2.156 1.835-3.363 2.605-.816.521-1.341.351-1.903-.292-.702-.804-1.196-1.729-1.644-2.686 3.416-2.273 5.847-5.433 8.03-8.834 3.239-5.045 6.294-10.205 9.44-15.307 3.513-5.477 7.085-10.912 11.274-15.906 1.214-1.446 2.508-2.825 3.791-4.213.471-.509.989-.976 1.716-1.1 1.683.149 2.985.945 3.98 2.299.199.271.298.688.751.704.002.094.002.185.002.277z"/>
    <path fill="#CEAC98" d="M57.093 100.528c-1.572-.27-2.32.813-3.033 1.896-.708 1.072-1.321 2.207-2.033 3.274-1.029 1.546-2.304 2.885-3.901 3.841-1.991 1.191-3.162 2.825-3.379 5.183-.409 4.429-1.227 8.812-1.513 13.256h-1.661c.053-4.73.379-9.438 1.389-14.068.532-2.446 1.688-4.521 3.83-5.979 2.603-1.772 4.325-4.217 5.215-7.232.136-.461.397-.821.633-1.21 1.579-.058 3.099.135 4.453 1.039z"/>
    <path fill="#9C7763" d="M49.603 5.056c5.024.023 9.818-1.428 14.705-2.289C74.4.987 84.543-.236 94.811.612c7.699.635 14.927 2.693 20.993 7.785 1.086.911 2.156 1.853 2.97 3.036.699 3.147 1.765 6.197 2.52 9.328.959 3.979 2.237 7.899 2.095 12.081-.124 3.679-.937 7.232-2.017 10.706-1.728 5.549-2.156 11.173-1.663 16.936.309 3.622.751 7.242.66 10.89-.043.869-.765 1.205-1.326 1.659-.612.491-1.268.921-1.979 1.26-3.359 1.601-5.988.89-7.922-2.291-1.723-2.835-2.536-6.002-3.136-9.244-.662-3.582-.87-7.23-1.622-10.797-.536-2.533-1.304-4.974-2.493-7.298-3.039-5.933-8.94-6.203-13.568-3.683-.725.395-1.348.976-2.172 1.199-3.373.287-6.717-.169-10.069-.367-.702-.475-.52-1.222-.554-1.886-.155-3.008-.675-3.567-3.692-3.737-1.11-.062-2.19-.13-3.23-.6-1.137-.512-1.733-1.3-1.663-2.579.036-.647.075-1.289.298-1.901 1.407-3.887 1.021-7.417-2.05-10.422-.132-.128-.219-.296-.311-.455-.232-.663-.742-1.151-1.107-1.732-1.046-1.667-.728-2.925 1.066-3.836 1.482-.752 3.084-1.178 4.713-1.485 2.839-.536 5.715-.924 8.404-2.227-.965.264-1.853.624-2.795.767-.951.144-1.932-.039-2.877.229-3.891.509-7.731 1.206-11.458 2.495-3.119 1.079-5.761 2.848-8.162 5.067-1.817 1.68-3.853 3.017-6.35 3.478-.773.143-1.552.29-2.291-.149-2.87-.271-5.393-1.453-7.675-3.115-2.108-1.535-3.235-3.69-3.395-6.319-.139-.312-.103-.621-.006-.939 1.364-4.538 5.04-7.37 9.838-7.5 1.962-.054 3.937-.218 5.89.198.301.064.641.108.928-.108z"/>
    <path fill="#E4C8B9" d="M86.394 41.911c2.595-2.221 5.624-3.17 8.976-2.706 4.089.566 6.168 3.504 7.676 6.988 1.803 4.158 2.19 8.616 2.786 13.037.527 3.92 1.19 7.821 2.96 11.435.391.794.85 1.536 1.403 2.207 1.499 1.82 3.476 2.319 5.704 1.507 1.671-.609 3.098-1.583 4.309-2.881.05-.312.088-.635.537-.57.171 2.235.935 4.221 2.484 5.873-5.715 5.301-10.121 11.64-14.377 18.099-.705 1.07-1.423 2.132-2.137 3.197-4.416 5.309-8.688 10.73-12.838 16.251-.69.917-1.394 1.843-2.24 2.626-1.881 1.743-3.278 1.783-5.232.216-4.227-4.531-9.375-8.063-13.64-12.552-.25-.262-.513-.51-.769-.766-.246-.435-.499-.861-1.065-.926.05-1.058-1.053-1.637-1.103-2.654.724-.223 1.223.269 1.771.571 2.568 1.425 5.318 1.614 7.817.244 3.464-1.902 7.036-3.673 10.146-6.178.503-.406.973-.848 1.465-1.263 3.374-2.84 3.889-6.603 3.505-10.671-.188-1.976-.395-3.942-1.042-5.836-.225-.656-.393-1.329-.865-1.866-.286-.38-.405-.823-.483-1.281-.336-1.995-1.46-3.319-3.352-4.04-.688-.263-1.364-.56-2.052-.833-2.331-1.324-3.286-3.612-3.848-5.995-1.109-4.714-.938-9.506-.405-14.289.031-.277.12-.539.279-.771.087-.119.194-.219.316-.302.736-.412 1.553-.439 2.369-.482.446-.023.835-.184.857-.688.03-.679-.524-.456-.885-.501-.606-.075-1.308.121-1.666-.623-.076-.398.066-.709.373-.955.846-.421 1.787-.266 2.681-.404 1.152-.18 2.166-.577 3.113-1.324-.777-.3-1.552-.245-2.311-.312-.46-.039-1.049.104-1.217-.582zM35.212 64.302c.005-.384-.305-.52-.547-.727-1.534-1.311-1.799-2.301-1.174-4.234.584-1.807 1.564-3.386 2.784-4.822.268-.316.58-.592.606-1.043.181-.155.317-.354.495-.514.319-.307.618-.632.894-.979.63-.929.465-1.935.273-2.935-.138-.722-.384-1.421-.479-2.152-.049-.369-.087-.794.354-.935.503-.161.754.22.924.613.222.509.284 1.061.387 1.604.359 1.894.61 3.812 1.26 5.644.723 2.039 1.985 2.722 4.063 2.138.311-.086.605-.224.917-.294 2.337-.535 3.767-1.827 3.687-4.39.056-.179.083-.36.102-.544.175-1.728.435-1.9 2.085-2.104 2.471-.306 4.959-.331 7.437-.468 5.235-.291 10.483-.382 15.729-.453.804-.011 1.197.348 1.254 1.127.037.506.028 1.012.028 1.517-.271 5.453-1.341 10.683-4.465 15.299-3.144 4.644-7.713 6.96-13.109 7.839-1.219.197-2.452.396-3.707.303-.74-.057-1.352-.296-1.75-.935-2.406-3.851-5.664-6.739-9.786-8.647-.612-.559-.34-1.005.118-1.521 1.328-1.497 1.262-2.469-.165-3.931-1.136-1.162-2.478-1.759-4.11-1.458-.638.118-1.336.386-1.333 1.177.001.753.695.889 1.282 1.03.988.239 1.987.464 2.856 1.011 1.432.9 1.442 2.12.06 3.163-.2.046-.402.048-.605.017-.766-.223-1.558-.105-2.334-.176-.39-.037-.938.013-.967-.532-.023-.464.437-.66.831-.816.332-.131.713-.043 1.098-.179-.809.134-1.579.156-2.333.286-.668.115-.958.478-.902 1.141-.402.659-.953 1.024-1.758.88zM65.109 19.996c1.585 1.646 2.915 3.409 3.216 5.796.188 1.501.014 2.933-.368 4.364-.082.311-.21.609-.318.912-1.037 2.908.042 4.544 3.153 4.695 1.109.053 2.206.16 3.289.38.991.201 1.598.666 1.634 1.851.035 1.19.253 2.378.181 3.579-.466.503-1.093.435-1.68.436-5.71.012-11.422.137-17.126-.04-3.903-.121-7.809-.319-11.712-.506-2.225-.107-4.159.425-5.696 2.198-.899 1.038-1.481.919-2.269-.161-.001-2.603.829-4.91 2.237-7.101 1.588-2.471 2.001-5.393 2.755-8.176.345-1.272.736-2.531 1.107-3.795 1.607 1.667 3.626 1.232 5.417.736 3.232-.896 5.796-2.761 6.862-6.172.406-1.297 1.406-1.759 2.639-1.816 1.354-.062 2.64.279 3.873.826.988.589 2.033 1.1 2.806 1.994z"/>
    <path fill="#090A0A" d="M37.413 43.5c.687.697 1.246.887 1.965-.088 1.385-1.875 3.354-2.607 5.661-2.484 10.004.533 20.012.818 30.031.672.275-.004.551-.018.826-.026 3.5.113 6.999.225 10.498.337 1.458.199 2.916.397 4.391.597-1.744 2.136-4.188 2.03-6.56 2.154-1.751.713-3.635.337-5.441.646-.804.138-1.652.062-2.48.01-.172 0-.345-.002-.517-.001-4.778-.123-9.554.167-14.32.366-3.702.155-7.433-.046-11.112.533-.907.315-1.104.952-.94 1.851.211 1.157.651 2.286.498 3.496-.088 2.753-.493 3.278-3.215 4.185-.304.101-.61.206-.902.336-2.729 1.215-4.608.245-5.339-2.696-.43-1.729-.735-3.488-1.091-5.235-.1-.494-.186-.99-.267-1.487-.061-.375-.303-.648-.638-.546-.325.099-.148.445-.083.708.288 1.198.692 2.362.732 3.625.03.914-.156 1.623-.963 2.102-.637-.379-.533-1.026-.549-1.606-.045-1.755-.302-3.486-.525-5.221-.079-.612-.215-1.186-.808-1.521-.256-.152-.574-.258-.5-.66.526-.799 1.104.171 1.648-.047z"/>
    <path fill="#916C5B" d="M120.744 70.927c-.18.189-.357.38-.537.57-.092-.201-.266-.405-.262-.604.116-5.427-1.08-10.785-.847-16.217.158-3.674.648-7.277 1.747-10.816 1.308-4.208 2.352-8.49 2.131-12.964-.13-2.63-.854-5.15-1.479-7.679-.859-3.469-1.85-6.905-2.794-10.353-.135-.494-.32-.972.07-1.432 3.36 3.967 5.47 8.529 6.469 13.617 1.043 5.305 1.091 10.609.03 15.921-.791 3.969-2.203 7.794-2.669 11.842-.256 2.23.027 4.413.208 6.614.219 2.667.376 5.34-.161 7.988-.272 1.351-.672 2.668-1.906 3.513z"/>
    <path fill="#9C7763" d="M43.508 63.968c4.24 1.574 7.326 4.534 9.707 8.266.609.954 1.242 1.295 2.338 1.229 5.092-.318 9.783-1.599 13.606-5.229 2.903-2.758 4.555-6.208 5.599-9.981.675-2.441 1.067-4.946 1.178-7.486.094-.118.213-.189.361-.218 1.077.156 1.516 1.043 1.188 1.803-.969 2.242-.703 4.68-1.378 6.969-1.356 4.598-3.554 8.597-7.486 11.475-2.568 1.881-5.399 3.171-8.592 3.558-.736.089-1.475.196-2.159.464-1.472.575-2.928.14-4.367-.063-.939-.133-1.365-1.06-1.809-1.801-1.858-3.102-4.523-5.339-7.665-6.99-1.857-.976-3.865-1.268-5.787-.003-.331.217-.86.439-.729.898.144.498.698.346 1.088.281 1.262-.205 2.367.377 3.481.749 2.28.762 4.396 1.877 6.29 3.391 2.262 1.81 1.36 5.972-.431 7.411-.482.387-1.032.647-1.662.549-.569-.088-1.114-.265-.83-1.056 2.336-.814 2.988-1.793 2.805-4.089-.053-.652-.287-1.19-.796-1.539-2.285-1.558-4.653-2.939-7.392-3.599-1.786-.432-3.463-.324-5.088.533-.025-.149-.05-.3-.077-.449-.445-2.487.823-4.479 3.403-5.361.476-.162.979-.194 1.458-.338.603.037 1.216-.127 1.805.106.17.018.342.036.513.054.533-.013 1.003.157 1.428.466z"/>
    <path fill="#DCBDAB" d="M62.353 18.33c-1.217-.375-2.417-.833-3.72-.823-1.317.01-2.304.443-2.62 1.887-.779 3.561-5.987 6.676-9.054 6.427-.686-.056-1.385.044-2.066-.032-.774-.085-1.45-.374-1.38-1.362.17-.53.341-1.06.512-1.588 4.012.11 6.916-2.107 9.644-4.643 3.578-3.324 8.039-4.667 12.644-5.629 1.963-.41 3.933-.93 5.976-.839-.213.842-.992.708-1.554.817-1.726.335-3.341.967-4.955 1.626-1.899.774-3.566 1.718-3.427 4.159z"/>
    <path fill="#B3917D" d="M49.603 5.056c-2.151.557-4.344.059-6.513.253-1.793.161-3.536.427-5.159 1.276-1.395.729-2.415 1.771-3.058 3.211-.556 1.246-1.656 2.204-1.92 3.608-.343-1.548-.115-3.008.706-4.364 1.845-3.046 4.577-4.543 8.115-4.621 2.632-.058 5.247.086 7.829.637z"/>
    <path fill="#B4927D" d="M39.625 63.456c-1.121.644-2.449.911-3.392 1.887-1.002 1.038-1.484 2.25-1.331 3.698-.806-1.639-.9-3.23.309-4.739.551-.279 1.103-.557 1.654-.835.919-.658 1.841-.024 2.76-.011z"/>
    <path fill="#424654" d="M35.764 43.545c.186.093.372.185.559.277.09 2.098.44 4.171.606 6.258.083 1.061.468 2.042.528 3.088-.094.285-.296.37-.575.308-.988-2.833-1.094-5.803-1.363-8.747-.036-.388-.064-.837.245-1.184z"/>
    <path fill="#CEAB98" d="M86.404 117.188c.136.021.302 0 .404.07 2.011 1.373 3.406.95 5.234-1.194 3.063-3.597 5.688-7.546 8.656-11.215 1.891-2.335 3.702-4.778 6.016-6.754-2.499 4.127-4.978 8.266-7.505 12.375-2.072 3.366-4.137 6.752-7.006 9.527-.931.899-1.778 2.005-3.229 2.161-.255-1.966-1.639-3.349-2.57-4.97z"/>
    <path fill="#9C7763" d="M45.451 78.184c.632 1.023 1.599 1.118 2.508.042 1.813-2.147 2.386-5.708-.886-7.551-2.312-1.303-4.667-2.537-7.294-3.175-.779-.189-1.446.396-2.151.048-.312-.155-.816-.059-.907-.501-.07-.349.305-.533.518-.764 1.539-1.664 3.519-1.828 5.469-1.224 2.896.898 5.164 2.822 7.266 4.981 1.071 1.1 1.774 2.417 2.647 3.632.247.344.474.83.884.802 1.404-.097 2.767.624 4.212.036 1.783-.729 3.769-.639 5.607-1.304 2.955-1.069 5.412-2.782 7.599-5 3.26-3.303 4.66-7.476 5.387-11.865.22-1.328.462-2.591.878-3.865.261-.793-.033-1.559-1.034-1.758-.147-.951-.216-1.903.043-2.849 2.288-.519 4.573-.629 6.85.07-.757 5.713-1.123 11.406.857 16.983.604 1.701 1.612 3.065 3.153 4.021.017.139.054.271.125.392 1.831 3.126 1.294 6.268.155 9.462-1.055 2.959-3.047 5.166-5.505 6.939-6.466 4.667-13.363 8.53-21.071 10.792-.863.253-1.716.248-2.598.114-6.314-.966-11.082-4.279-14.563-9.556-.203-.309-.362-.645-.623-.914-.013-.165-.026-.332-.04-.496-.159-.398-.185-.797.01-1.188.792-1.59.659-2.623-.502-3.856-.006-.462-.013-.923-.02-1.384.367-.473.946-.68 1.363-1.088.555.008 1.108.016 1.663.024z"/>
    <path fill="#916C5B" d="M42.977 86.174c.773.008.917.721 1.228 1.179 3.492 5.154 8.325 8.158 14.468 9.034 1.847.265 3.541-.588 5.182-1.208 6.33-2.397 12.21-5.675 17.704-9.63 4.088-2.942 6.242-6.968 6.524-11.99.07-1.236-.503-2.313-.94-3.422-.146-.372-.688-.752-.088-1.192 3.312.746 5.396 2.636 5.737 6.15.65 1.739.017 3.364-.582 4.925-1.388 3.617-3.824 6.488-6.825 8.862-4.722 3.73-9.966 6.586-15.471 8.978-.295.128-.595.259-.931.188-2.197.452-4.225 1.47-6.438 1.892-1.807.345-3.601.702-5.452.59-1.497-.291-3.022-.465-4.453-1.041-2.115-1.15-4.048-2.531-5.566-4.43-.769-.33-1.158-.945-1.304-1.74-1.082-2.037-2.184-4.068-2.713-6.34-.06-.261-.055-.537-.08-.805z"/>
    <path fill="#CFAD99" d="M45.77 93.317c.434.58.87 1.16 1.304 1.74-.811 1.738-2.272 2.51-4.09 2.739-.392.047-.499.271-.593.626-.608 2.275-2.647 2.545-4.445 2.879-1.478.273-2.672-.726-3.411-1.928-.645-1.052-1.389-1.37-2.572-1.322-2.658.109-4.562-1.005-5.53-3.617-.638-1.723-1.52-3.336-2.921-4.605-.437-.396-.745-.906-1.083-1.804.975.842 1.774 1.336 2.83 1.226.622-.066.594.624.762 1.003.74 1.659 1.174 3.491 2.643 4.734.943.798 1.892 1.617 3.22 1.703.366-.014.866.124 1.075-.064 1.276-1.141 1.535-.052 2.105.783.808 1.179 1.552 2.505 3.397 2.353 1.543-.129 2.855-1.143 3.102-2.724.075-.479-.006-.811.759-.73 2.77.292 3.303-.22 3.448-2.992z"/>
    <path fill="#9C7763" d="M42.445 80.633c.436-.019.765.105 1.049.49.457.622 0 1.354.324 1.972.416.793.149 1.234-.66 1.563-.347.141-.165.666-.221 1.018-.341-1.664-.603-3.334-.492-5.043zM43.788 78.161c-.092.816-.742.936-1.363 1.088-.232-1.223.154-1.673 1.363-1.088z"/>
    <path fill="#DCBDAB" d="M68.983 98.047c2.702-1.46 5.564-2.601 8.218-4.162 4.164-2.448 8.292-4.94 11.472-8.675 2.478-2.911 4.112-6.187 4.119-10.115 1.28 1.081 1.285 2.717 1.606 4.133.701 3.09.886 6.268.298 9.405-.3 1.588-1.2 2.965-2.304 4.17-1.974 2.154-4.287 3.899-6.847 5.258-1.953 1.034-3.745 2.339-5.725 3.3-2.916 1.411-5.832 1.36-8.651-.363-.431-.264-.894-.472-1.342-.706-.465-.68-.981-1.341-.844-2.245z"/>
    <path fill="#B3917C" d="M62.353 18.33c-.505-1.681-.284-2.382 1.191-3.339 2.48-1.608 5.258-2.442 8.125-3.028.214-.043.411-.156.617-.236 2.236-.471 4.569-.452 6.724-1.406-1.14 1.306-2.663 1.778-4.192 2.183-2.563.678-5.235.876-7.771 1.686-.741.236-1.492.478-2.181.832-1.595.82-1.768 1.715-.833 3.249.354.579 1.006.975 1.076 1.725-1.027-.375-1.859-1.075-2.756-1.666z"/>
    <path fill="#CEAC98" d="M94.863 60.167c1.624-2.318 3.037-4.688 3.624-7.5.577-2.762-.45-6.126-2.368-7.306-.353-.217-.711-.446-1.146-.436-.405.01-.918-.177-1.185.175-.339.45.054.895.326 1.233.824 1.026.796 1.998-.026 3-.552.671-.474 1.226.143 1.922.918 1.033 1.483 2.333 1.742 3.689.214 1.119-.353 2.033-1.442 2.348-1.821.525-3.556 1.231-5.235 2.1-.686.355-1.369.336-1.842-.351-.501-.732.161-1.166.603-1.458 1.097-.725 1.582-1.717 1.711-2.978.079-.77.642-1.133 1.324-1.425.825-.354 1.345-.888.928-1.944-.402-1.018-.651-2.097-.966-3.151-.552-1.847.022-3.257 1.616-4.067 1.875-.955 3.507-.443 4.69.962 1.97 2.34 2.044 5.187 1.756 8-.304 2.99-1.766 5.434-4.253 7.187z"/>
    <path fill="#CFAD99" d="M85.564 65.143c4.568 1.21 8.011-.314 10.795-3.484 1.684-1.916 2.574-4.305 3.364-6.719.636-1.95.819-4.006 1.424-6.095 1.271 1.27.667 2.621.475 3.847-.753 4.799-2.663 9.043-6.369 12.313-2.702 2.385-6.197 2.948-9.689.138z"/>
    <path fill="#936E5C" d="M83.045 47.94c-2.281.006-4.562.012-6.841.018-.649-.996-.591-2.001-.038-3.013 2.689.027 5.361-.497 8.059-.285-.104.264-.209.527-.313.79-.049.908-.167 1.794-.801 2.515l-.066-.025z"/>
    <path fill="#CEAC98" d="M83.11 47.966c.053-.906.394-1.722.801-2.515.591.559 1.319.182 1.976.298.377.066 1.026-.251.845.619-.12.574.185 1.415-.895 1.317-.93-.085-1.823.14-2.727.281zM76.166 44.946c.013 1.004.024 2.008.038 3.013-.017.92-.035 1.841-.052 2.761-.074.009-.146.025-.217.048-.16-.855.35-1.938-.227-2.529-.527-.542-1.532.056-2.344.016-4.635-.225-9.26.23-13.893.293-2.737.037-5.47.366-8.208.508-.841.044-1.136.402-1.122 1.195.008.441.146.928-.231 1.31-.486-1.417-.702-2.898-1.035-4.352-.208-.917.77-.742.959-1.248 3.718-.094 7.433-.034 11.153-.271 3.993-.255 8.007-.077 12.014-.1 1.006-.006 2.031.032 2.897-.637.09-.044.178-.046.268-.007z"/>
    <path fill="#DCBDAB" d="M43.508 63.968c-.508-.055-.996-.169-1.426-.466 1.245-1.223 1.155-2.134-.362-2.843-.865-.403-1.779-.694-2.749-.83-.735-.103-1.497-.431-1.512-1.332-.012-.784.608-1.154 1.288-1.425 2.405-.957 5.293.979 6.051 3.003.396 1.059.045 2.089-.882 2.835-.347.279-.852.482-.408 1.058z"/>
    <path fill="#62729B" d="M37.457 53.169c-.442-.369-.674-.866-.736-1.417-.25-2.208-.474-4.417-.699-6.628-.048-.462.017-.91.301-1.302.895.146 1.063.783 1.131 1.561.209 2.391.46 4.778.694 7.167-.232.208-.461.413-.691.619z"/>
    <path fill="#DCBDAB" d="M39.625 63.456c-.919.003-1.839.007-2.759.012-.541-.706-.765-1.181.468-1.453 1.241-.274 2.448-.154 3.706-.055-.462.133-.919.289-1.386.394-.446.1-.882.194-1.241.689 1.055.404 2.202-.194 3.157.406-.649.002-1.297.004-1.945.007z"/>
    <path fill="#62739C" d="M42.921 42.393c.793-.455 1.647-.401 2.51-.309.953.101 1.471.653 1.651 1.56.561 2.82 1.136 5.637 1.667 8.46.209 1.112-.385 1.914-1.155 2.639-2.073 1.954-5.474 1.133-6.246-1.568-.363-1.268-.554-2.585-.823-3.88.216-.932.061-1.881.282-2.846.374-1.628 1.302-2.571 2.739-3.201.571-.25 1.206-.387 1.773-.761-.864.388-1.634.48-2.398-.094z"/>
    <path fill="#E3C6B7" d="M75.9 44.952c-.094 1.281-1.128 1.034-1.867 1.043-3.826.049-7.661-.113-11.479.074-3.772.186-7.541.223-11.313.225-.482 0-1.032.179-1.404-.333 1.158-.506 2.414-.401 3.611-.444 7.117-.256 14.235-.42 21.354-.61.365-.009.732.029 1.098.045z"/>
    <path fill="#F0F1F4" d="M42.921 42.393c.878.049 1.779-.235 2.749.14-.507.51-1.08.653-1.62.829-2.311.748-2.976 2.619-3.282 4.747-.058.4.051.835-.241 1.187-.124-.947-.27-1.891-.369-2.84-.252-2.396.373-3.302 2.763-4.063z"/>
    <path fill="#C4CAD8" d="M48.02 50.686c.402 2.726-.313 3.915-2.652 4.373 1.888-.853 2.307-2.592 2.652-4.373z"/>
  </g>
</svg>
