<svg xmlns="http://www.w3.org/2000/svg" width="50.5" height="48.943">
  <path fill="#F4EB24" d="M45.422 31.437c-.668.108-1.264-.053-1.823-.394-.396-.233-.703-.521-.901-.952-.162-.359-.162-.719.02-1.061.181-.288.451-.468.776-.522.849-.145 1.534.179 2.147.771.253.233.415.521.541.826.036.09.035.197.054.287.089.522-.291.955-.814 1.045zM41.575 32.411c.304 3.524.607 7.013.91 10.519-.379-.054-.74-.09-1.119-.125-.289-.018-.577-.018-.866-.035-.795-.018-1.589-.034-2.383-.069-.614 0-1.246-.017-1.859-.053-.343.001-.687-.053-1.029-.07-.285-3.398-.589-6.778-.874-10.158.434 0 .83.018 1.228.017.649-.001 1.3-.02 1.95-.038.577-.019 1.155-.037 1.732-.037.596-.001 1.191.017 1.787.034.18-.002.343.016.523.015z"/>
  <path fill="#68BD45" d="M34.435 7.192c.234-.018.47-.055.704-.091.487-.072.975-.126 1.463-.199.307-.036.596-.108.884-.126.561-.055 1.102-.091 1.661-.128.072 0 .127-.018.199-.036.589 6.652 1.159 13.322 1.73 19.993-.379 0-.759-.018-1.119-.035-.181 0-.361.019-.542.037-.361.018-.722.019-1.083.037-.74.036-1.498.091-2.238.128-.524.019-1.065.037-1.589.037-.217.001-.434-.018-.65-.035-.553-6.436-1.105-12.891-1.659-19.327.38-.018.759-.055 1.12-.091.378-.037.757-.109 1.119-.164z"/>
  <path fill="#3952A4" d="M27.965 30.969c.286 3.326.554 6.599.839 9.906-2.13-.843-4.259-1.596-6.533-1.791-.268-3.2-.553-6.383-.821-9.564 1.155.053 2.256.213 3.339.518 1.065.304 2.13.626 3.176.931z"/>
  <path fill="#ED1C24" d="M20.986 24.233c-.517-6.059-1.035-12.118-1.57-18.194.234-.019.451-.055.686-.073.162 0 .325.018.487.018.325.018.632.017.957.035.379.035.776.071 1.155.125.307.036.614.089.903.143.613.125 1.227.25 1.823.375.036 0 .072.018.108.036.108.018.271.018.307.09.072.072.054.216.054.342.071.863.143 1.726.232 2.606.303 3.38.607 6.778.911 10.176.143 1.834.285 3.667.428 5.483v.144c-2.131-.663-4.243-1.29-6.481-1.306z"/>
  <path d="M42.485 42.93c-.303-3.506-.606-6.994-.91-10.519-.181.001-.343-.018-.523-.017-.596-.018-1.191-.035-1.787-.034-.577 0-1.155.019-1.732.037-.65.019-1.301.037-1.95.038-.397.001-.794-.017-1.228-.017.285 3.38.589 6.76.874 10.158.343.018.687.071 1.029.07.613.036 1.245.053 1.859.053.794.035 1.588.052 2.383.069.289.018.577.018.866.035.379.037.74.073 1.119.127zm1.114-11.887c.56.341 1.155.502 1.823.394.523-.09.903-.522.813-1.044-.019-.09-.018-.197-.054-.287-.126-.306-.288-.593-.541-.826-.613-.593-1.299-.916-2.147-.771-.325.055-.596.234-.776.522-.182.342-.182.701-.02 1.061.199.43.505.718.902.951zm-8.46-23.941c-.234.036-.47.073-.704.091-.361.054-.74.126-1.119.163-.361.036-.74.073-1.12.091.554 6.437 1.106 12.891 1.659 19.327.217.018.434.036.65.035.523 0 1.064-.019 1.589-.037.74-.037 1.498-.092 2.238-.128.361-.019.722-.02 1.083-.037.181-.019.361-.037.542-.037.36.018.74.035 1.119.035-.571-6.67-1.142-13.34-1.73-19.993-.072.018-.127.036-.199.036-.56.037-1.101.073-1.661.128-.288.018-.577.09-.884.126-.489.073-.976.127-1.463.2zM22.772 42.41c-.523-.054-1.065-.071-1.588-.106-.452-.018-.903-.035-1.354-.053-.271 0-.523.001-.794.001-.397-.018-.794-.035-1.191-.053-.343-.018-.668-.054-1.011-.089-1.124-13.089-2.248-26.159-3.372-39.248.722-.09 1.444-.181 2.167-.29.235-.036.469-.073.704-.127.361-.072.74-.162 1.102-.217.379-.072.758-.108 1.119-.145.018 0 .054-.036.072-.036.307-.037.632-.055.939-.091.018.018.036.036.054.036.252-.018.523-.037.776-.037.252 0 .523-.019.794.017.47.036.939.071 1.39.143.415.035.813.089 1.228.178.56.089 1.137.233 1.696.34.451.09.885.179 1.317.25.344.072.668.107 1.011.161.217.036.434.072.668.089.289.036.578.071.867.071.324.018.649.017.992.035.145 0 .308 0 .47-.019.379 0 .758-.019 1.138-.037.198-.018.415-.054.613-.072.307-.036.614-.055.921-.091.343-.054.668-.126 1.011-.181.488-.09.976-.163 1.481-.235.18-.036.36-.055.541-.091.542-.072 1.065-.163 1.589-.235.308-.036.614-.037.921-.037.271-.019.523-.037.794-.037.578 0 1.156.017 1.752.052.541.036 1.101.089 1.643.16.451.054.902.143 1.371.214.578.089 1.138.197 1.733.286 1.302 15.21 2.604 30.42 3.906 45.612.019.054 0 .107-.018.162-.055-.019-.108-.036-.163-.072-.83-.305-1.642-.628-2.49-.896-.83-.287-1.679-.537-2.545-.752-.794-.18-1.624-.305-2.454-.43-.434-.071-.885-.089-1.318-.143-.433-.018-.866-.07-1.281-.07-.542-.035-1.065-.017-1.589-.053-.74-.035-1.479-.07-2.22-.142-.65-.071-1.318-.142-1.968-.285-.776-.144-1.552-.34-2.292-.573-.776-.232-1.516-.538-2.274-.807-.848-.323-1.696-.646-2.544-.95-.704-.251-1.426-.484-2.147-.682-.433-.125-.884-.215-1.318-.286-.271-.068-.559-.121-.849-.139zM21.45 29.52c.268 3.182.553 6.364.821 9.564 2.274.195 4.403.948 6.533 1.791-.285-3.308-.553-6.58-.839-9.906-1.046-.305-2.111-.627-3.176-.932-1.083-.305-2.184-.465-3.339-.517zm-.464-5.287c2.238.016 4.35.643 6.48 1.306v-.144c-.143-1.816-.285-3.649-.428-5.483-.304-3.398-.607-6.796-.911-10.176-.089-.881-.161-1.744-.232-2.606 0-.126.019-.27-.054-.342-.036-.072-.198-.072-.307-.09-.036-.018-.072-.036-.108-.036-.596-.125-1.209-.25-1.823-.375-.289-.054-.596-.107-.903-.143-.379-.054-.776-.089-1.155-.125-.325-.018-.632-.018-.957-.035-.163 0-.325-.018-.487-.018-.235.018-.452.054-.686.073.536 6.077 1.054 12.136 1.571 18.194zM11.824 33.107l3.358-.291.785 9.152-3.358.291z"/>
  <path fill="#3952A4" d="M10.968 23.291L14.326 23l.802 9.151-3.376.291z"/>
  <path fill="#ED1C24" d="M14.254 21.993l-3.376.291-.785-9.169 3.359-.291z"/>
  <path d="M12.595 3.007l.785 9.152-3.358.291-.785-9.152zM10.33 28.955l.713 8.271-2.491.218-.714-8.27z"/>
  <path fill="#3952A4" d="M7.785 28.563l-.714-8.289 2.492-.218.713 8.288z"/>
  <path fill="#ED1C24" d="M9.492 19.139L7 19.357l-.714-8.27 2.492-.218z"/>
  <path d="M8.724 10.257l-2.491.219-.714-8.27 2.492-.219zM5.983 24.771l.625 7.263-1.661.146-.625-7.264z"/>
  <path fill="#3952A4" d="M5.306 16.985l.624 7.264-1.661.146-.624-7.264z"/>
  <path fill="#ED1C24" d="M3.573 16.322l-.624-7.263 1.661-.146.624 7.263z"/>
  <path d="M2.686 19.434l.499 5.896-.777.073-.517-5.897zM4.574 8.392l-1.661.145-.624-7.264 1.661-.145z"/>
  <path fill="#3952A4" d="M2.132 13.105l.518 5.897-.795.073-.499-5.897z"/>
  <path fill="#ED1C24" d="M1.579 6.561l.5 5.897-.777.072-.517-5.897z"/>
  <path d="M1.026.25l.517 5.897-.794.055L.25.323z"/>
</svg>
