<svg xmlns="http://www.w3.org/2000/svg" width="30" height="200"><path fill="#858585" d="M0 0h30v200H0z"/><g fill="#C3C3C2"><path d="M24.204 187.513H5.507v-8.821c0-3.83.932-6.699 2.794-8.604 1.863-1.903 4.019-2.856 6.466-2.856 2.794 0 5.066 1.022 6.814 3.066 1.749 2.044 2.623 4.697 2.623 7.961v9.254zm-4.301-7v-1.821c0-1.157-.461-2.136-1.383-2.933-.923-.795-2.178-1.193-3.767-1.193-1.361 0-2.534.353-3.521 1.061-.987.707-1.479 1.729-1.479 3.065v1.821h10.15zm4.589-22.598c0 2.818-.719 5.057-2.157 6.716-1.438 1.66-3.125 2.489-5.062 2.489-2.081 0-3.817-.866-5.205-2.598s-2.082-3.984-2.082-6.758c0-2.796.685-5.042 2.055-6.742 1.37-1.698 3.087-2.548 5.15-2.548 2.082 0 3.82.861 5.212 2.581 1.393 1.722 2.089 4.009 2.089 6.86zm-3.314-.1c0-1.036-.44-1.669-1.322-1.897a10.973 10.973 0 00-2.76-.342c-1.306 0-2.246.161-2.821.484s-.863.902-.863 1.738c0 .769.297 1.33.891 1.687s1.57.535 2.932.535c1.598 0 2.655-.185 3.171-.552s.772-.917.772-1.653z"/><path d="M24.492 139.294c0 2.817-.719 5.057-2.157 6.716-1.438 1.66-3.125 2.489-5.062 2.489-2.081 0-3.817-.865-5.205-2.598s-2.082-3.984-2.082-6.758c0-2.796.685-5.043 2.055-6.742 1.37-1.697 3.087-2.547 5.15-2.547 2.082 0 3.82.86 5.212 2.58 1.393 1.722 2.089 4.008 2.089 6.86zm-3.314-.1c0-1.036-.44-1.669-1.322-1.897a10.973 10.973 0 00-2.76-.342c-1.306 0-2.246.16-2.821.483-.575.324-.863.902-.863 1.739 0 .768.297 1.33.891 1.687.594.355 1.57.534 2.932.534 1.598 0 2.655-.185 3.171-.551.514-.368.772-.918.772-1.653zm3.026-16.601v6.382H10.273v-5.546h2.877c-2.092-.636-3.137-2.111-3.137-4.427 0-.235.018-.558.055-.97h4.863a6.559 6.559 0 00-.138 1.253c0 2.206 1.01 3.308 3.027 3.308h6.384z"/><path d="M20.261 119.009l-.59-5.264c1.005-.301 1.507-1.492 1.507-3.574 0-1.727-.274-2.589-.821-2.589-.238 0-.423.166-.556.5-.132.333-.267 1.124-.404 2.372-.393 3.452-1.007 5.608-1.842 6.466-.836.857-1.765 1.286-2.788 1.286-1.424 0-2.577-.725-3.458-2.172-.882-1.446-1.322-3.346-1.322-5.696 0-4.121 1.22-6.75 3.657-7.887l.78 5.047c-.821.467-1.232 1.453-1.232 2.956 0 .714.08 1.245.24 1.597.16.35.317.526.473.526.456 0 .734-.536.833-1.604.253-2.786.512-4.673.777-5.664a5.543 5.543 0 011.452-2.539 3.485 3.485 0 012.55-1.053c1.526 0 2.737.777 3.633 2.331s1.344 3.695 1.344 6.423c-.002 4.6-1.412 7.447-4.233 8.538z"/></g><g aria-label="95" style="line-height:1.25;-inkscape-font-specification:'Microsoft Sans Serif'" font-weight="400" font-size="105.286" font-family="Microsoft Sans Serif" fill="#c3c3c2" stroke-width="1.234"><path d="M15.169 86.706q1.963 2.085 1.963 4.804 0 2.632-1.632 4.458-1.645 1.812-4.173 1.812-2.565 0-4.357-1.798-1.805-1.812-1.805-4.803 0-3.423 2.246-5.321 2.247-1.899 6.481-1.899 9.88 0 9.88 7.464 0 2.359-1.129 4.013-1.129 1.64-3.35 1.985v-2.79q2.663-.346 2.663-3.366 0-1.941-1.743-3.135-1.755-1.194-5.044-1.424zm-1.78-.029q-3.105.058-4.75 1.252-1.657 1.193-1.657 3.192 0 1.755 1.203 2.805 1.203 1.05 2.995 1.05 1.816 0 2.982-1.065 1.154-1.078 1.154-2.876 0-2.23-1.927-4.358zM12.603 77.89q-1.08-1.568-1.08-3.912 0-2.632 1.596-4.588 1.583-1.956 4.234-1.956 2.774 0 4.603 1.97 1.817 1.956 1.817 5.221 0 2.675-1.265 4.574-1.264 1.898-3.768 2.2v-2.804q1.633-.23 2.43-1.324.786-1.107.786-2.646 0-1.956-1.264-3.164-1.264-1.222-3.13-1.222-1.89 0-2.983 1.237-1.092 1.236-1.092 3.207 0 2.258 1.485 3.825v2.129l-9.5-.892V68.441h2.136v8.989z" style="-inkscape-font-specification:'Microsoft Sans Serif'"/></g></svg>