<svg xmlns="http://www.w3.org/2000/svg" width="30" height="200">
  <path fill="#858585" d="M0 0h30v200H0z"/>
  <g fill="#C3C3C2">
    <path d="M24.204 187.513H5.507v-8.821c0-3.83.932-6.699 2.794-8.604 1.863-1.903 4.019-2.856 6.466-2.856 2.794 0 5.066 1.022 6.814 3.066 1.749 2.044 2.623 4.697 2.623 7.961v9.254zm-4.301-7v-1.821c0-1.157-.461-2.136-1.383-2.933-.923-.795-2.178-1.193-3.767-1.193-1.361 0-2.534.353-3.521 1.061-.987.707-1.479 1.729-1.479 3.065v1.821h10.15zm4.589-22.598c0 2.818-.719 5.057-2.157 6.716-1.438 1.66-3.125 2.489-5.062 2.489-2.081 0-3.817-.866-5.205-2.598s-2.082-3.984-2.082-6.758c0-2.796.685-5.042 2.055-6.742 1.37-1.698 3.087-2.548 5.15-2.548 2.082 0 3.82.861 5.212 2.581 1.393 1.722 2.089 4.009 2.089 6.86zm-3.314-.1c0-1.036-.44-1.669-1.322-1.897-.881-.228-1.801-.342-2.76-.342-1.306 0-2.246.161-2.821.484s-.863.902-.863 1.738c0 .769.297 1.33.891 1.687s1.57.535 2.932.535c1.598 0 2.655-.185 3.171-.552s.772-.917.772-1.653z"/>
    <path d="M24.492 139.294c0 2.817-.719 5.057-2.157 6.716-1.438 1.66-3.125 2.489-5.062 2.489-2.081 0-3.817-.865-5.205-2.598s-2.082-3.984-2.082-6.758c0-2.796.685-5.043 2.055-6.742 1.37-1.697 3.087-2.547 5.15-2.547 2.082 0 3.82.86 5.212 2.58 1.393 1.722 2.089 4.008 2.089 6.86zm-3.314-.1c0-1.036-.44-1.669-1.322-1.897-.881-.228-1.801-.342-2.76-.342-1.306 0-2.246.16-2.821.483-.575.324-.863.902-.863 1.739 0 .768.297 1.33.891 1.687.594.355 1.57.534 2.932.534 1.598 0 2.655-.185 3.171-.551.514-.368.772-.918.772-1.653zm3.026-16.601v6.382H10.273v-5.546h2.877c-2.092-.636-3.137-2.111-3.137-4.427 0-.235.018-.558.055-.97h4.863c-.092.467-.138.885-.138 1.253 0 2.206 1.01 3.308 3.027 3.308h6.384z"/>
    <path d="M20.261 119.009l-.59-5.264c1.005-.301 1.507-1.492 1.507-3.574 0-1.727-.274-2.589-.821-2.589-.238 0-.423.166-.556.5-.132.333-.267 1.124-.404 2.372-.393 3.452-1.007 5.608-1.842 6.466-.836.857-1.765 1.286-2.788 1.286-1.424 0-2.577-.725-3.458-2.172-.882-1.446-1.322-3.346-1.322-5.696 0-4.121 1.22-6.75 3.657-7.887l.78 5.047c-.821.467-1.232 1.453-1.232 2.956 0 .714.08 1.245.24 1.597.16.35.317.526.473.526.456 0 .734-.536.833-1.604.253-2.786.512-4.673.777-5.664.265-.99.749-1.838 1.452-2.539.705-.701 1.554-1.053 2.55-1.053 1.526 0 2.737.777 3.633 2.331s1.344 3.695 1.344 6.423c-.002 4.6-1.412 7.447-4.233 8.538z"/>
  </g>
  <path fill="#DDDDDB" d="M21.98 81.673h2.192v14.974c-.549.019-1.077-.088-1.583-.325-.837-.381-1.66-.992-2.471-1.831-.811-.841-1.748-2.054-2.813-3.64-1.655-2.462-2.967-4.126-3.935-4.991-.967-.865-1.881-1.298-2.742-1.298-.903 0-1.666.395-2.287 1.182-.621.789-.932 1.815-.932 3.084 0 1.338.33 2.409.988 3.213.659.804 1.571 1.211 2.737 1.221l-.241 2.859c-1.748-.195-3.08-.932-3.997-2.209-.916-1.278-1.374-2.993-1.374-5.147 0-2.172.494-3.894 1.482-5.16.988-1.267 2.213-1.901 3.674-1.901.743 0 1.474.186 2.191.556.719.371 1.475.986 2.269 1.846.794.861 1.883 2.291 3.269 4.288 1.148 1.668 1.928 2.741 2.337 3.214.41.474.822.865 1.236 1.175v-11.11zm-6.967-1.4c-2.196 0-3.963-.275-5.302-.827-1.339-.551-2.371-1.37-3.099-2.457-.726-1.086-1.089-2.454-1.089-4.103 0-1.216.2-2.282.602-3.199.401-.917.979-1.674 1.735-2.271.757-.597 1.677-1.065 2.763-1.406 1.085-.34 2.548-.51 4.39-.51 2.179 0 3.938.274 5.276.819 1.339.546 2.373 1.363 3.104 2.45.73 1.087 1.096 2.46 1.096 4.118 0 2.184-.643 3.899-1.926 5.146-1.544 1.494-4.062 2.24-7.55 2.24zm0-2.858c3.05 0 5.078-.435 6.088-1.306 1.01-.871 1.514-1.944 1.514-3.222 0-1.277-.506-2.351-1.521-3.221-1.013-.872-3.04-1.306-6.08-1.306-3.058 0-5.089.435-6.095 1.306-1.005.87-1.507 1.954-1.507 3.251 0 1.279.443 2.297 1.33 3.06 1.132.958 3.222 1.438 6.271 1.438z"/>
</svg>
